<?xml version="1.0" encoding="UTF-8" standalone="no"?>
<!-- Created with Inkscape (http://www.inkscape.org/) -->

<svg
   version="1.1"
   id="svg1"
   width="700"
   height="700"
   viewBox="296 49 700 700"
   xmlns="http://www.w3.org/2000/svg">
  <g id="g1">
    <path
       style="fill:currentColor"
       d="m 644.9836,692.83453 c -0.85511,-2.08455 -6.41039,-30.29897 -7.28512,-37 -0.58087,-4.4499 -1.29957,-5.97732 -3.76425,-8 -9.82417,-8.06236 -20.43175,-20.07118 -25.22419,-28.55627 -12.67196,-22.43591 -21.56554,-51.59734 -25.90593,-84.94373 -2.21122,-16.98837 -3.62789,-44.16031 -2.94576,-56.5 1.04088,-18.82942 4.69446,-41.69012 8.06785,-50.48101 0.50289,-1.31051 -12.86306,4.54584 -25.48163,11.16489 -0.1928,0.10113 -1.43022,9.55113 -2.74981,21 -1.31959,11.44886 -3.07435,25.66909 -3.89946,31.6005 -0.8251,5.93141 -1.50019,11.12415 -1.50019,11.53942 0,0.41527 -1.2375,0.7373 -2.75,0.71562 -2.7222,-0.039 -2.75678,0.0423 -3.42046,8.04188 -0.79693,9.60574 -5.15015,22.06403 -14.03911,40.17795 -4.65475,9.48543 -6.54797,12.39278 -8.36736,12.84941 -1.64014,0.41165 -3.62214,2.90441 -6.55225,8.24076 -2.31046,4.20782 -4.38908,7.08808 -4.61916,6.40058 -0.73154,-2.18591 -1.84341,-1.39411 -6.67105,4.7507 -5.24178,6.67195 -6.08137,10.65535 -2.98288,14.15204 l 1.90227,2.14673 -3,-0.69882 c -1.65,-0.38436 -4.66454,-2.47143 -6.69897,-4.63794 -2.38211,-2.53674 -4.25116,-3.72721 -5.25,-3.34392 -0.85307,0.32735 -1.55103,0.0829 -1.55103,-0.54319 0,-0.6261 0.65432,-1.38946 1.45405,-1.69634 0.79973,-0.30689 2.43683,-2.58813 3.63801,-5.06943 1.38022,-2.85116 3.97325,-5.79694 7.04595,-8.00445 4.92892,-3.54107 5.793,-4.82838 3.70757,-5.52352 -0.63494,-0.21165 1.16506,-2.08747 4,-4.1685 5.28661,-3.88074 5.99661,-4.97482 4.02079,-6.19595 -1.72259,-1.06462 -0.46374,-13.26495 2.62044,-25.39622 2.79763,-11.00419 7.90485,-23.27335 10.95785,-26.32424 1.73901,-1.73781 1.7214,-1.89129 -0.48685,-4.24186 -3.04959,-3.24614 -2.96701,-8.6612 0.28907,-18.95509 4.87842,-15.42284 15.85155,-42.18692 20.59428,-50.23061 1.55088,-2.6303 3.14046,-6.06002 3.53239,-7.62159 1.00851,-4.01823 5.80247,-8.02301 15.62645,-13.05401 8.4134,-4.30862 29.27702,-13.59379 30.54502,-13.59379 0.36149,0 3.74618,-2.85988 7.52154,-6.35529 3.96168,-3.6679 9.90676,-7.86901 14.0593,-9.93505 l 7.195,-3.57977 -4.55529,-2.21313 -4.55528,-2.21313 -4.85515,4.04002 c -12.37437,10.29685 -19.4405,10.70388 -41.34421,2.38154 -7.41898,-2.81886 -13.94398,-5.12412 -14.5,-5.12281 -0.55601,0.001 -2.36093,2.58849 -4.01093,5.74931 -1.65,3.16082 -6.96872,11.73894 -11.81938,19.06249 -7.30216,11.02485 -9.06549,13.1113 -10.25,12.12824 -1.96718,-1.63262 -4.09934,0.24194 -4.97812,4.37668 -1.2342,5.80701 -7.34952,16.65219 -16.20395,28.73679 -6.64044,9.06294 -9.23048,11.88035 -10.74855,11.69211 -1.38266,-0.17145 -3.53959,1.60154 -6.98785,5.744 -3.67508,4.41494 -5.07614,5.53351 -5.32332,4.25 -0.43177,-2.24199 -0.24186,-2.28075 -6.95398,1.41954 -8.59186,4.73656 -11.25212,7.50212 -10.55747,10.97537 0.31532,1.5766 0.13676,2.86309 -0.39739,2.86309 -1.7178,0 -4.23781,-3.53909 -4.90876,-6.89384 -0.45147,-2.25736 -1.4565,-3.57809 -3.26187,-4.28652 -2.44229,-0.95835 -2.49024,-1.0974 -0.7489,-2.17177 1.02325,-0.63133 3.78776,-2.39599 6.14336,-3.92148 2.35561,-1.52548 6.5809,-3.31947 9.38955,-3.98665 2.80865,-0.66717 5.10663,-1.55655 5.10663,-1.97639 0,-0.41984 -0.45,-0.76335 -1,-0.76335 -0.55,0 -1,-0.45 -1,-1 0,-0.55 0.43312,-1 0.96249,-1 0.52937,0 3.44109,-0.92736 6.47049,-2.06081 4.91233,-1.83794 5.38407,-2.25928 4.36193,-3.89598 -0.89536,-1.43371 -0.7521,-2.89702 0.65492,-6.68919 3.69785,-9.96634 13.15009,-26.8461 18.01436,-32.16995 4.07263,-4.45741 4.91493,-6.00501 4.6899,-8.61698 -0.21185,-2.45888 0.76992,-4.60225 4.31195,-9.41376 6.47224,-8.79192 18.82381,-21.47688 25.96741,-26.66834 3.3366,-2.4248 7.35403,-5.40151 8.92763,-6.6149 2.09263,-1.61364 4.12884,-2.17731 7.58124,-2.09867 4.94525,0.11265 21.83777,5.18949 34.1208,10.25461 3.96657,1.63568 7.30672,2.97397 7.42254,2.97397 0.11583,0 0.99977,-1.75008 1.96432,-3.88908 l 1.75373,-3.88907 -4.43004,-5.4389 c -6.29251,-7.72551 -10.30469,-15.14822 -13.51957,-25.01186 l -2.79189,-8.56583 -19.4811,12.9996 c -25.82675,17.234 -33.89035,21.14544 -51.48111,24.9721 -8.66569,1.88513 -34.81982,1.5707 -45.7699,-0.55024 -18.40305,-3.56453 -34.98085,-10.4662 -47.07764,-19.59936 -9.82322,-7.4166 -13.96859,-16.1787 -11.30787,-23.9015 l 1.34681,-3.90914 -5.0957,-0.64444 c -16.99577,-2.14941 -35.57348,-14.41767 -60.14925,-39.72107 -10.97309,-11.29797 -16.90654,-19.38078 -21.78285,-29.67357 -2.78627,-5.88118 -3.1636,-7.70029 -3.1636,-15.25165 0,-7.78512 0.27786,-9.02725 3.0199,-13.5 6.835,-11.14907 22.195,-17.42311 44.58185,-18.21019 30.20321,-1.06188 50.16433,4.74371 116.89825,33.99927 43.75789,19.18307 94.84422,40.3441 95.51489,39.56427 0.13213,-0.15364 1.01168,-2.9658 1.95454,-6.24924 0.94286,-3.28345 2.60435,-7.71456 3.69219,-9.84691 1.08785,-2.13235 1.83401,-3.9853 1.65814,-4.11767 -0.17587,-0.13237 -2.87706,-1.91247 -6.00265,-3.95579 -6.74977,-4.41258 -16.49903,-12.96517 -21.923,-19.23208 -3.02625,-3.49655 -3.76326,-5.05082 -3.28971,-6.9376 0.45895,-1.82859 -0.15871,-3.30734 -2.49092,-5.96359 -6.1136,-6.963 -10.46889,-19.28355 -11.72784,-33.17648 -0.65534,-7.23201 -0.79277,-7.54103 -4.42157,-9.94246 -2.46404,-1.63062 -3.59881,-3.05641 -3.31726,-4.16799 0.5394,-2.12951 -7.64084,-7.51279 -10.02559,-6.59767 -1.02156,0.39201 -1.62122,0.1017 -1.62122,-0.78487 0,-1.85396 2.00931,-3.80153 3.95,-3.82863 0.8525,-0.0119 2.225,-1.45112 3.05,-3.19827 1.86121,-3.94157 3.99457,-4.79888 4.01488,-1.61342 0.019,2.98086 6.85602,10.94581 7.6762,8.94258 0.3757,-0.91761 1.63078,0.27947 3.68917,3.5187 1.71586,2.7002 4.39552,6.56868 5.95478,8.59663 4.11959,5.35782 9.30954,17.91493 11.74073,28.40674 1.88839,8.14933 2.3294,9.07549 4.10096,8.61222 1.4913,-0.38999 3.78186,1.31843 9.2092,6.86868 5.43695,5.56008 16.85206,19.63743 19.21056,23.69086 0.097,0.16669 1.91496,-1.31359 4.03993,-3.28951 5.10623,-4.74806 17.93751,-10.97366 27.80193,-13.4892 10.57526,-2.69682 24.52686,-2.70881 35.1517,-0.0302 9.4558,2.38387 22.39819,8.55018 27.85857,13.27301 l 3.94861,3.41527 6.67556,-8.59122 c 10.26449,-13.21006 17.95206,-20.94725 21.52167,-21.6606 2.90716,-0.58097 3.16626,-1.00814 4.28095,-7.05777 1.84614,-10.01937 6.92768,-22.8818 11.51986,-29.15915 2.29891,-3.14254 5.19805,-7.3784 6.44253,-9.41303 1.28893,-2.1073 2.81854,-3.48604 3.55427,-3.20372 1.97533,0.75801 8.89345,-7.39714 8.27649,-9.75641 -0.80492,-3.07801 1.63213,-1.65918 3.33145,1.93955 0.825,1.74715 2.21776,3.18636 3.09501,3.19827 1.58732,0.0215 4.90499,3.00966 4.90499,4.41777 0,0.40625 -0.91157,0.44932 -2.02572,0.0957 -2.79844,-0.88819 -11.14502,4.39483 -10.44214,6.60942 0.34113,1.07482 -0.81934,2.4848 -3.5113,4.26625 -3.71069,2.45562 -4.02084,3.01014 -4.02084,7.18884 0,11.71207 -6.10612,29.85418 -12.14807,36.09356 -2.28832,2.36309 -2.87836,3.69145 -2.36214,5.31791 0.48706,1.53461 -0.14132,3.36808 -2.15085,6.27569 -3.35035,4.84768 -17.9535,17.86026 -24.05834,21.43793 -2.35433,1.37973 -4.2806,2.76804 -4.2806,3.08512 0,0.31709 1.08859,3.31183 2.41909,6.65498 1.33051,3.34315 2.73059,7.76596 3.1113,9.82846 0.3807,2.0625 1.01827,3.75 1.41682,3.75 2.02529,0 56.21314,-22.64982 100.55279,-42.02976 61.59785,-26.92315 82.48874,-32.86545 111.38627,-31.68322 24.52263,1.00324 39.88823,7.67785 46.37543,20.14477 2.946,5.66142 2.8537,15.99062 -0.2136,23.91326 -5.715,14.76166 -24.3874,36.43355 -46.5481,54.02547 -13.48091,10.70162 -23.70033,16.03248 -33.88412,17.6753 -7.33802,1.18375 -7.45444,1.2486 -6.54341,3.64479 3.79746,9.98809 -3.61133,21.53486 -19.97562,31.13246 -27.68962,16.23985 -67.79701,20.60786 -97.6485,10.63467 -9.35886,-3.12673 -16.99536,-7.35671 -36.81383,-20.39176 -10.92602,-7.18629 -20.18974,-13.06598 -20.58605,-13.06598 -0.39631,0 -1.48054,2.73345 -2.40939,6.07434 -2.19521,7.89576 -7.88953,19.24984 -12.50076,24.92566 -6.61279,8.13948 -6.29887,7.36212 -4.48252,11.10017 0.90859,1.86991 1.76215,3.54174 1.8968,3.7152 0.13464,0.17345 4.00288,-1.23597 8.5961,-3.13204 12.88342,-5.31824 27.50404,-9.71151 32.70988,-9.82879 3.98574,-0.0898 5.70836,0.55997 11.1767,4.21582 8.04915,5.38126 29.69466,26.90631 33.37913,33.19337 1.69915,2.89939 2.6269,5.77948 2.43893,7.57142 -0.24197,2.30683 0.75192,4.04668 4.91167,8.59811 6.01459,6.58092 10.35863,14.041 16.22912,27.87046 3.30679,7.79001 3.91787,10.09739 2.97504,11.23343 -0.95822,1.15458 -0.73266,1.60245 1.17214,2.32743 8.00062,3.04505 9.80781,4.10443 9.2925,5.44732 -0.3916,1.02049 0.76236,1.75187 4.08359,2.58816 5.74053,1.44549 15.4826,6.84347 15.4826,8.57877 0,0.70835 -0.9,1.52326 -2,1.81092 -1.31591,0.34412 -2,1.36401 -2,2.98177 0,2.53868 -3.41911,7.72848 -5.09163,7.72848 -0.52056,0 -0.67464,-1.08309 -0.34239,-2.40686 0.95737,-3.81448 -1.09275,-6.26284 -8.84014,-10.55733 -6.31479,-3.50038 -7.37088,-3.81126 -8.3762,-2.46573 -0.97647,1.30691 -1.86533,0.66216 -5.88006,-4.26521 -2.9781,-3.65511 -5.36628,-5.69848 -6.44863,-5.51759 -4.60867,0.77022 -28.02095,-35.45506 -28.02095,-43.35618 0,-2.05393 -3.00593,-3.03954 -4.06144,-1.33169 -0.69961,1.13199 -1.14327,1.01952 -2.38378,-0.60428 -4.20034,-5.49816 -12.92586,-19.00664 -17.59843,-27.24513 -2.88544,-5.0875 -5.58922,-9.25 -6.0084,-9.25 -0.41917,0 -6.99144,2.30951 -14.60504,5.13224 -22.35273,8.28724 -28.43896,7.97351 -41.21393,-2.12452 l -5.23247,-4.13603 -4.46599,2.16194 -4.46599,2.16195 6.85712,3.28619 c 3.94237,1.88933 9.58206,5.81878 13.26773,9.2443 5.39245,5.01181 8.64756,6.94158 20.49488,12.15024 24.62444,10.8261 34.41574,17.26163 34.41574,22.62044 0,1.31187 0.46209,2.6708 1.02686,3.01985 3.85366,2.38169 23.35123,50.92395 25.45446,63.37286 0.5431,3.21454 0.23969,5.0332 -1.34777,8.07882 l -2.04864,3.93041 3.33712,5.54185 c 4.95321,8.22562 9.64265,24.48599 12.02443,41.69406 0.48356,3.4937 0.26139,5.01469 -0.90249,6.17857 -0.84918,0.84919 -1.54397,1.70865 -1.54397,1.90992 0,0.20126 2.25914,2.08878 5.02032,4.19448 3.7864,2.88755 4.76064,4.14143 3.9638,5.10156 -0.79411,0.95685 -0.19562,1.80507 2.40976,3.41528 4.0148,2.48128 9.60612,8.54636 9.60612,10.42005 0,0.70668 1.2375,2.37852 2.75,3.7152 l 2.75,2.43034 -2.77064,0.31841 c -1.64251,0.18877 -3.63432,1.4866 -4.89179,3.18741 -2.09167,2.82914 -7.38296,5.78212 -8.44954,4.71555 -0.30131,-0.30132 0.21273,-1.70861 1.1423,-3.12732 2.24335,-3.42378 1.47146,-5.89047 -4.01925,-12.84405 -4.75587,-6.02297 -6.14915,-6.86789 -6.69042,-4.05726 -0.18871,0.97988 -1.91937,-1.53124 -4.10957,-5.96281 -2.59613,-5.25291 -4.63527,-8.05952 -6.49733,-8.94273 -2.04543,-0.9702 -4.32883,-4.52975 -9.27176,-14.45355 -8.12212,-16.30661 -12.73889,-29.5426 -13.71976,-39.33365 -0.73995,-7.38627 -0.79283,-7.49715 -3.48679,-7.31174 -1.74161,0.11987 -2.73545,-0.30969 -2.73545,-1.18231 0,-0.75381 -1.32645,-12.08853 -2.94766,-25.18826 -1.62121,-13.09973 -3.24701,-27.00561 -3.61288,-30.90196 l -0.66522,-7.08426 -12.63712,-6.39557 c -6.95042,-3.51757 -12.89881,-6.49686 -13.21866,-6.62064 -0.31985,-0.12379 0.47122,3.69214 1.75793,8.47984 7.37695,27.44877 7.85462,71.26276 1.21521,111.46385 -7.52401,45.55724 -24.74467,83.03912 -45.13583,98.24105 -6.19051,4.61512 -6.781,5.38488 -7.67114,10 -6.13619,31.81427 -7.87257,39.77633 -8.39614,38.5 z m -18.66981,-72.83449 c -3.44442,-7.94151 -10.3941,-29.12342 -9.76249,-29.75504 0.13887,-0.13886 3.85053,0.65437 8.24815,1.76274 10.55413,2.66006 28.37069,2.89706 37.38588,0.49733 7.8186,-2.08122 14.06881,-4.79406 20.38866,-8.8495 5.78881,-3.71466 5.6261,-4.54576 -0.37434,-1.91208 -10.93014,4.7974 -35.52157,7.269 -51.40454,5.1665 -4.95,-0.65525 -13.38517,-2.64998 -18.74483,-4.43274 l -9.74483,-3.24137 2.40571,2.54933 c 1.32314,1.40212 3.96461,6.61145 5.86993,11.57627 4.33851,11.30514 9.83161,22.27255 14.887,29.72305 2.14585,3.1625 4.07612,5.75 4.28949,5.75 0.21337,0 -1.33634,-3.97552 -3.44379,-8.83449 z m -12.41554,-49.91551 c -0.48832,-2.41627 -1.58207,-11.24587 -3.09682,-25 -0.25743,-2.3375 -0.20986,-4.25 0.10573,-4.25 0.31558,0 5.14447,0.93742 10.73087,2.08316 17.56783,3.60306 38.0568,2.80048 54.65708,-2.14099 6.08374,-1.81097 21.62776,-9.64774 20.79259,-10.48292 -0.20814,-0.20813 -3.15522,0.4858 -6.54907,1.54209 -14.12621,4.39657 -22.85995,5.4587 -44.74352,5.44134 -22.82478,-0.0181 -32.85104,-1.30037 -46.51995,-5.94947 l -7.36577,-2.50526 2.53859,2.75603 c 2.02609,2.19961 2.85979,4.77974 4.1295,12.78 0.87499,5.51319 2.3201,13.23005 3.21134,17.14857 1.60692,7.06506 1.65966,7.14146 6.31337,9.14508 6.19592,2.6676 6.44497,2.64321 5.79606,-0.56763 z m -88.58166,-31.25 c 2.35033,-6.875 5.78738,-16.1 7.63789,-20.5 l 3.36456,-8 -3.38126,3.59269 c -3.62222,3.84872 -6.75299,11.15748 -9.59836,22.40731 -1.86925,7.39051 -3.4241,16.24235 -2.71602,15.46246 0.23093,-0.25435 2.34286,-6.08746 4.69319,-12.96246 z m 244.07559,5.78055 c -1.96739,-10.51452 -7.13234,-25.52916 -10.27357,-29.8655 -1.63394,-2.25559 -3.19512,-3.87676 -3.4693,-3.60259 -0.27417,0.27417 1.50723,5.60353 3.95866,11.84302 2.45143,6.23948 5.72228,15.26863 7.26857,20.06476 1.54628,4.79613 3.00928,8.52238 3.25111,8.28055 0.24183,-0.24183 -0.0891,-3.26594 -0.73547,-6.72024 z M 609.81507,504.91805 c -0.011,-10.40407 0.26907,-19.2056 0.62233,-19.55896 0.35327,-0.35337 4.25261,0.0424 8.6652,0.87944 18.61013,3.53028 41.22297,2.95417 57.13641,-1.45567 7.27683,-2.01651 18.88092,-7.39166 22.5561,-10.44824 l 2,-1.66336 -2,0.66708 c -26.95201,8.98958 -68.87743,10.02727 -97.5,2.4132 -12.84064,-3.41582 -11.81282,-3.29591 -9.27819,-1.0824 2.13049,1.86057 2.24371,2.81506 2.75469,23.22421 0.29309,11.70614 0.74693,21.49794 1.00854,21.75955 0.76797,0.76798 10.87497,4.11333 12.53492,4.14898 1.30822,0.0281 1.51718,-2.60256 1.5,-18.88383 z m -73.75884,-7.83352 c 0.55242,-2.0625 4.46584,-15.15381 8.6965,-29.0918 4.23066,-13.93799 7.4948,-25.53911 7.25365,-25.78027 -0.94324,-0.94324 -16.60617,39.2942 -19.26268,49.48507 -0.98014,3.75999 -1.09615,5.92702 -0.38811,7.25 1.51731,2.83512 2.58646,2.29688 3.70064,-1.863 z m 222.22127,2.27122 c 1.60598,-1.93509 0.17017,-8.11425 -5.4655,-23.52122 -5.18688,-14.18008 -13.60753,-34.24269 -14.1462,-33.70402 -0.21919,0.21919 3.26018,12.50476 7.73194,27.30127 4.47175,14.79651 8.35547,27.91525 8.63049,29.15275 0.58146,2.61641 1.53088,2.84176 3.24927,0.77122 z M 614.34111,455.73448 c 1.1069,-6.81997 2.95391,-15.90685 4.10446,-20.19305 l 2.0919,-7.7931 4.62882,0.7931 c 2.54585,0.4362 12.05382,0.78294 21.12882,0.77053 14.39158,-0.0197 17.45837,-0.31882 24,-2.34088 7.295,-2.25494 19.44725,-8.02263 18.62846,-8.84142 -0.22397,-0.22397 -3.08782,0.2874 -6.36411,1.13637 -16.64813,4.31396 -54.353,4.64871 -71.71369,0.63668 -4.92214,-1.1375 -9.16308,-2.06818 -9.42432,-2.06818 -0.26123,0 0.47134,1.0125 1.62795,2.25 l 2.10291,2.25 -2.48485,8.5 c -2.59326,8.87082 -6.97943,32.72625 -6.16665,33.53903 0.58335,0.58336 15.19501,4.34662 15.56102,4.00778 0.1467,-0.13581 1.17237,-5.82689 2.27928,-12.64686 z M 508.36726,429.6154 c 4.36032,-6.99552 7.92785,-13.02777 7.92785,-13.40499 0,-1.6212 -4.63954,3.6395 -8.67875,9.8407 -4.38578,6.73328 -11.71403,22.04036 -8.75316,18.28342 0.86691,-1.1 5.14374,-7.72361 9.50406,-14.71913 z m 279.77818,5.11084 c -2.94268,-5.63254 -7.28325,-12.29989 -9.64571,-14.81634 -4.29293,-4.57277 -4.29442,-4.57338 -2.62379,-1.07537 2.17486,4.5538 16.77412,26.97838 17.2525,26.5 0.20203,-0.20203 -2.04032,-4.97576 -4.983,-10.60829 z M 567.58892,423.72233 c 8.76497,-7.21994 8.94846,-7.55223 2.20619,-3.99516 -7.90509,4.17055 -10.9472,6.57476 -10.0848,7.97015 1.02041,1.65106 1.09314,1.61437 7.87861,-3.97499 z m 161.70923,0.93095 c -1.37333,-1.12161 -5.19833,-3.35819 -8.5,-4.97016 -5.07583,-2.47818 -5.5436,-2.57746 -3.02853,-0.64278 1.63598,1.25845 4.95942,4.00602 7.38543,6.10571 3.27591,2.83528 4.69771,3.52543 5.52549,2.68207 0.82321,-0.83871 0.46185,-1.66864 -1.38239,-3.17484 z m -74.50304,-11.70553 4,-0.77153 -4,-1.12568 c -8.56281,-2.40976 -13.25519,-3.16804 -19.75,-3.19156 -7.49892,-0.0272 -8.02411,-0.64236 -5.01878,-5.87885 2.23924,-3.90164 1.24374,-4.75428 -3.79002,-3.24613 -5.33511,1.59844 -15.17819,10.81549 -12.91257,12.09132 3.89827,2.19523 33.29416,3.69966 41.47137,2.12243 z M 531.39175,394.08453 c 5.08057,-5.9125 11.49837,-13.10137 14.26178,-15.97526 8.48846,-8.82782 4.33596,-7.00957 -5.42723,2.37642 -9.45441,9.08913 -18.93119,20.6017 -18.93119,22.99797 0,0.74298 0.19333,1.35087 0.42963,1.35087 0.23629,0 4.58645,-4.8375 9.66701,-10.75 z m 238.90336,9.89913 c 0,-1.78443 -10.66364,-14.97024 -18.02203,-22.28459 -8.86714,-8.81409 -14.64894,-12.78746 -8.9299,-6.13681 21.12944,24.57132 25.3167,29.27227 26.07356,29.27227 0.4831,0 0.87837,-0.38289 0.87837,-0.85087 z M 623.76905,365.63672 c -5.26882,-4.81541 -12.91045,-14.69902 -12.03871,-15.57076 0.2084,-0.2084 1.74838,0.32928 3.42218,1.19483 4.87169,2.51925 4.75024,1.90949 -0.7855,-3.94374 -5.39836,-5.70797 -11.30775,-16.84362 -12.5942,-23.73252 -0.80293,-4.29962 -0.65763,-4.22544 -4.44288,-2.26801 l -2.86586,1.48199 1.45964,6.26801 c 3.75794,16.1375 14.26415,30.78623 28.37139,39.55803 5.70306,3.54614 5.52661,2.54397 -0.52606,-2.98783 z m 46.12123,0.59086 c 7.37838,-4.89749 14.57139,-13.21676 19.30026,-22.32223 3.35734,-6.46457 7.10457,-17.47083 7.10457,-20.86734 0,-0.76309 -4.97883,-3.20348 -6.53568,-3.20348 -0.13048,0 -0.53167,1.96348 -0.89155,4.36329 -0.92749,6.18497 -6.54367,17.27574 -11.68958,23.08447 -2.86718,3.23649 -3.69145,4.67325 -2.38319,4.15407 1.1,-0.43653 2.5625,-1.02367 3.25,-1.30475 3.9862,-1.62974 -3.05783,8.0507 -11.71996,16.10646 -5.8547,5.44485 -4.64834,5.4413 3.56513,-0.0105 z m -97.69284,2.61066 c -2.11092,-1.12338 -11.94213,-3.29725 -12.47985,-2.75953 -0.25825,0.25826 -0.20741,1.15272 0.113,1.98769 0.43942,1.1451 2.20265,1.51813 7.17587,1.51813 3.62632,0 5.96226,-0.33583 5.19098,-0.74629 z m 158.61015,-0.89684 c 0.85582,-2.23022 -0.078,-2.40867 -5.7085,-1.09085 -8.00904,1.87453 -8.31426,2.48398 -1.244,2.48398 4.5635,0 6.57238,-0.40253 6.9525,-1.39313 z M 506.79511,357.79567 c 17.49303,-2.49713 26.91502,-6.51496 48.17689,-20.54417 8.15271,-5.3794 19.09811,-12.43771 24.32311,-15.68513 11.37759,-7.07136 9.49404,-7.00024 -11.28664,0.42614 -28.99651,10.36247 -42.2442,16.92244 -56.97087,28.21071 -2.05837,1.57778 -3.74249,2.41687 -3.74249,1.86465 0,-1.13317 11.76858,-12.38037 15.53987,-14.85142 3.11932,-2.04386 3.09588,-3.40389 -0.11844,-6.87219 -2.46637,-2.66127 -2.86971,-2.75527 -9.27004,-2.16042 -11.46487,1.06555 -25.64422,6.36479 -42.32978,15.8199 -3.71815,2.10693 -7.11157,3.82855 -7.54094,3.82582 -1.81885,-0.0116 13.17517,-11.09787 21.09013,-15.59365 l 3.99777,-2.27077 -2.93429,-0.81114 c -3.57219,-0.98749 -45.57829,-1.08971 -53.93428,-0.13125 -5.57768,0.63977 -5.78732,0.59334 -2.97849,-0.65964 1.66184,-0.74132 9.1823,-2.24722 16.71214,-3.34645 13.13351,-1.91727 14.05868,-2.21102 22.7359,-7.21894 4.9749,-2.87119 11.85445,-6.26404 15.28787,-7.53966 l 6.24258,-2.31932 -17.5,-0.0462 c -39.60581,-0.10458 -59.23996,7.65987 -54.02887,21.36606 1.6557,4.35483 9.95859,11.33917 18.93776,15.93032 21.14719,10.8128 48.0357,15.68378 69.59111,12.60676 z m 315.05205,-1.43975 c 18.35571,-3.51203 36.4273,-11.60831 45.26846,-20.28079 6.86869,-6.73766 8.01404,-9.88781 5.47035,-15.04566 -2.19869,-4.45827 -8.16859,-7.70684 -19.04969,-10.36603 -8.42132,-2.05805 -44.2858,-4.53649 -48.89729,-3.37908 -2.43189,0.61036 -1.94847,0.99287 5.16052,4.08327 4.31407,1.8754 11.01731,5.24717 14.89608,7.49281 6.14168,3.55577 8.41495,4.26271 17.60521,5.47484 12.06861,1.59177 19.60914,3.15383 21.90503,4.53774 1.06063,0.63933 0.0924,0.71021 -2.91072,0.21311 -6.0261,-0.99749 -50.49696,-0.94647 -55.31418,0.0635 l -3.81419,0.79965 7.96689,4.78824 c 7.11596,4.27681 17.37836,12.17065 16.71943,12.86059 -0.13843,0.14494 -4.4831,-2.07134 -9.65482,-4.92508 -14.09865,-7.77957 -21.28635,-10.78842 -30.7962,-12.89164 -12.57383,-2.78087 -15.37754,-2.60236 -18.56166,1.18174 l -2.63251,3.12857 9.58546,8.99627 c 5.272,4.94794 9.38289,9.19882 9.13532,9.4464 -0.24758,0.24757 -3.87102,-2.07973 -8.0521,-5.17179 -10.57475,-7.82043 -19.45019,-12.39 -38.58144,-19.86392 -14.80333,-5.78314 -34.82457,-12.67621 -36.76196,-12.65669 -0.40592,0.004 2.86196,2.06035 7.26196,4.56947 4.4,2.50912 15.2,9.33046 24,15.15853 24.02288,15.90991 35.03108,20.76577 52.74968,23.26857 8.27331,1.16863 27.42372,0.40748 37.30237,-1.48262 z m -168.21702,-5.96805 c 7.74607,-3.18495 13.07388,-6.98485 16.69251,-11.90543 4.18986,-5.69733 3.70463,-6.29858 -1.73264,-2.14692 -7.69067,5.87227 -17.05738,9.96714 -22.7949,9.96532 -5.6571,-0.002 -15.41606,-3.99808 -21.99828,-9.00827 -6.42875,-4.89337 -6.8683,-5.04958 -5.1161,-1.8181 3.48349,6.42436 9.44686,11.28096 18.34458,14.93991 7.21591,2.96735 9.33172,2.96397 16.60483,-0.0265 z m -8.33503,-21.93178 v -6.37844 l 7.53942,-1.12135 c 5.99621,-0.89182 15.46058,-4.19265 15.46058,-5.39209 0,-0.12633 -10.2966,-0.22968 -22.88134,-0.22968 h -22.88135 l 6.13135,6.92121 c 6.33839,7.15494 12.92757,12.57879 15.28138,12.57879 0.99218,0 1.34996,-1.69046 1.34996,-6.37844 z m -96,-4.21043 c 10.175,-4.15721 17.375,-7.33698 16,-7.06616 -1.375,0.27082 -11.1726,2.40633 -21.77245,4.74557 l -19.27244,4.25316 2.70953,2.82815 c 1.49025,1.55548 2.96285,2.82133 3.27245,2.813 0.3096,-0.008 8.88791,-3.41651 19.06291,-7.57372 z m 214.38,4.71412 2.75419,-2.87475 -2.31709,-0.57437 c -8.15249,-2.02084 -40.14304,-8.68353 -40.41029,-8.41627 -0.17902,0.17901 3.81872,1.85754 8.88386,3.73006 5.06513,1.87252 13.03433,5.0755 17.70933,7.11774 4.675,2.04225 8.97831,3.75348 9.56291,3.80276 0.5846,0.0493 2.30229,-1.20406 3.81709,-2.78517 z m -250.35473,-5.65329 c 7.9611,-1.39042 19.19973,-3.64362 24.97473,-5.00711 5.775,-1.36349 16.575,-3.75879 24,-5.32289 13.2393,-2.78891 13.40345,-2.85584 8.5,-3.46626 -2.75,-0.34234 -19.175,-0.74692 -36.5,-0.89907 l -31.5,-0.27663 -10.66013,3.69217 c -5.86308,2.0307 -13.96308,5.39795 -18,7.48278 l -7.33987,3.7906 12,1.12337 c 17.76184,1.66277 18.80214,1.62911 34.52527,-1.11696 z m 304.97473,0.60595 6.5,-0.7249 -9.5,-4.51905 c -5.225,-2.48548 -13.325,-5.8274 -18,-7.4265 l -8.5,-2.90746 -30.5,0.26999 c -16.775,0.1485 -33.2,0.55511 -36.5,0.90358 l -6,0.63358 6,1.31994 c 28.96318,6.37159 53.94987,11.65264 60.77967,12.84607 8.14437,1.42312 20.65677,1.28467 35.72033,-0.39525 z M 613.20377,305.98702 c -2.75585,-7.29385 -6.19885,-17.79534 -7.65109,-23.33666 -2.84694,-10.86301 -4.05724,-11.07181 -4.18728,-0.72238 -0.0757,6.02051 2.04128,13.24641 6.40163,21.85114 2.99993,5.92007 9.64952,16.2673 10.13932,15.7775 0.16944,-0.16943 -1.94672,-6.27575 -4.70258,-13.5696 z m 66.9883,3.3703 c 7.33581,-12.10402 10.4117,-24.00086 8.59373,-33.23855 -0.72518,-3.68489 -0.80387,-3.54795 -2.99727,5.21576 -1.23889,4.95 -4.75363,15.75 -7.81052,24 -5.77813,15.59412 -5.31209,16.44088 2.21406,4.02279 z m -257.82211,-3.05435 c 7.8392,-2.67273 16.02721,-4.8605 22.04982,-5.89153 l 3.62466,-0.62051 -1.33077,-3.7282 c -0.73193,-2.05051 -1.35742,-4.8532 -1.38998,-6.2282 -0.10828,-4.57209 -1.0826,-4.96511 -16.09501,-6.49224 -22.35714,-2.27427 -26.81365,-2.0483 -38.40417,1.94725 -5.48383,1.89042 -10.13827,3.26945 -10.34321,3.06452 -0.55215,-0.55216 9.65539,-6.25909 14.61827,-8.17292 l 4.30446,-1.65992 -3.91283,-4.09335 c -4.8667,-5.09122 -9.69142,-12.21197 -12.07178,-17.81662 l -1.81638,-4.27672 -17.40396,0.34984 c -9.57219,0.19241 -17.147,0.0854 -16.83292,-0.23771 0.31407,-0.32316 5.5097,-1.43018 11.54585,-2.46005 l 10.97481,-1.8725 5.82762,-6.10965 c 3.20519,-3.36031 8.46812,-7.81071 11.6954,-9.88979 3.22728,-2.07908 5.86831,-4.00514 5.86897,-4.28014 6.6e-4,-0.275 -7.49207,-2.46379 -16.65051,-4.86398 -9.15844,-2.40019 -19.9789,-5.7074 -24.04549,-7.34935 -8.16037,-3.2949 -9.73156,-3.12364 -16.38629,1.78607 -5.17674,3.81928 -6.88741,7.21007 -6.89482,13.66653 -0.0139,12.09065 7.5323,24.45443 26.42411,43.29366 19.9206,19.86517 36.71471,31.47405 48.37724,33.44064 7.92663,1.33662 10.57103,1.11873 18.26691,-1.50513 z m 463.88469,1.46842 c 3.75736,-0.60961 9.26363,-2.52153 13.16269,-4.57043 13.2177,-6.94571 39.64138,-30.35194 50.57427,-44.79897 5.9746,-7.89501 11.203,-18.92364 11.9463,-25.19891 0.9978,-8.42483 -3.5286,-14.91594 -13.2269,-18.96813 -3.5344,-1.47677 -3.9609,-1.42896 -9.52389,1.06756 -3.20309,1.43745 -13.93606,4.73271 -23.85105,7.32279 -9.91499,2.59008 -18.02141,4.93423 -18.01426,5.20923 0.007,0.275 2.3053,1.85 5.10702,3.5 2.80172,1.65 8.29134,6.11201 12.19915,9.91558 l 7.10511,6.91557 10.49603,1.88279 c 5.77282,1.03552 10.73679,2.13094 11.03099,2.43426 0.2943,0.30331 -7.20198,0.39509 -16.6583,0.20395 l -17.1933,-0.34754 -3.5075,6.9977 c -1.92912,3.84873 -5.74653,9.77136 -8.48312,13.16141 l -4.97562,6.16372 5.19296,2.10767 c 4.49953,1.82622 15.06348,8.05654 13.65988,8.05621 -0.275,-7e-5 -5.17356,-1.57314 -10.8857,-3.49572 -12.09429,-4.07067 -18.49126,-4.39446 -39.6143,-2.00512 -7.15,0.80878 -13.3375,1.47928 -13.75,1.49001 -0.4125,0.0107 -0.75,0.82144 -0.75,1.80158 0,0.98014 -0.6374,4.23932 -1.41645,7.24262 -1.63491,6.30275 -1.50735,6.46615 5.7945,7.42238 2.81707,0.36892 8.94807,1.94836 13.62444,3.50986 7.51893,2.51068 11.01776,3.45174 14.49751,3.89933 0.55,0.0707 3.90679,-0.34298 7.45954,-0.9194 z M 588.8778,299.92591 c -3.48643,-3.85247 -1.81238,-3.64089 -60.01146,-7.5845 -22.96604,-1.5562 -31.61012,-1.18766 -47.57123,2.0282 -19.53379,3.93567 -19.01943,4.08894 16.55782,4.93392 18.1182,0.43032 40.59218,1.1 49.94218,1.48818 9.35,0.38818 22.80724,0.78162 29.90499,0.8743 12.6406,0.16507 12.8696,0.12942 11.1777,-1.7401 z m 166.91731,0.39841 c 23.65,-0.83232 49.075,-1.62051 56.5,-1.75155 l 13.5,-0.23824 -11,-2.69949 c -21.82524,-5.35609 -26.33937,-5.42437 -83,-1.25543 -23.09075,1.69896 -27.29119,2.46172 -29.99219,5.44628 -1.8024,1.99164 -1.76359,2.00865 4.5872,2.01019 3.52275,8.4e-4 25.75499,-0.67945 49.40499,-1.51176 z m -292.5,-6.04251 c 8.91622,-2.87935 23.92306,-6.04243 33.09741,-6.97614 l 6.59741,-0.67145 -0.72038,-3.93949 c -0.39622,-2.16671 -0.94001,-4.1591 -1.20843,-4.42753 -0.96698,-0.96697 -44.58457,-8.43267 -49.26704,-8.43267 -0.22273,0 -0.8736,1.6875 -1.44639,3.75 -2.5632,9.22965 0.0134,25.20722 3.82866,23.74127 0.89032,-0.34209 4.99376,-1.71189 9.11876,-3.04399 z m 377.35815,-2.51361 c 1.63386,-4.77778 1.72184,-6.33549 0.72892,-12.90475 -0.62108,-4.1091 -1.52918,-7.87103 -2.018,-8.35985 -0.75208,-0.75208 -48.6397,6.50339 -49.54753,7.50696 -0.16118,0.17818 -0.59803,2.1714 -0.97077,4.42937 l -0.67771,4.10541 6.61381,0.6776 c 9.98554,1.02305 24.43056,4.20469 33.71347,7.42568 4.56481,1.5839 8.74966,2.80634 9.29966,2.71654 0.55,-0.0898 1.83617,-2.60844 2.85815,-5.59696 z M 639.48365,270.58453 c 0.1713,-14.4375 0.14648,-27.0375 -0.0552,-28 -0.4933,-2.35463 -4.10365,-2.24427 -9.49559,0.29024 -8.1643,3.83767 -14.59625,12.41521 -14.59208,19.45976 0.004,7.21857 9.63557,23.64748 18.12125,30.91091 2.30618,1.974 4.53439,3.58909 4.95159,3.58909 0.4172,0 0.8987,-11.8125 1.07,-26.25 z m -58.75996,20.27858 c -0.75215,-0.75215 -43.84538,-7.91976 -70.67858,-11.75582 -4.09754,-0.58578 -4.61137,0.33146 -2.82209,5.03764 0.90476,2.37968 1.28544,2.45885 15.25,3.17158 11.2924,0.57634 53.74095,3.77351 58.27209,4.38898 0.58068,0.0789 0.57235,-0.24861 -0.0214,-0.84238 z m 155.07142,-1.49079 c 11.55,-0.81965 26.75745,-1.79282 33.79434,-2.16262 13.67658,-0.71871 14.70566,-1.16944 14.70566,-6.4411 0,-1.96787 -0.39172,-2.14141 -3.75,-1.66131 -27.08984,3.87275 -69.93059,11.00783 -70.69733,11.77457 -0.65356,0.65356 0.0191,0.81859 1.97858,0.48545 1.63281,-0.2776 12.41875,-1.17535 23.96875,-1.99499 z m -158.58333,-5.90445 c -0.22917,-0.20166 -9.64167,-4.20579 -20.91667,-8.89808 -11.275,-4.69228 -35.76853,-15.09626 -54.43006,-23.11995 -18.66153,-8.02369 -34.11012,-14.40847 -34.33019,-14.18839 -0.74853,0.74852 21.22907,22.86578 28.45539,28.63622 3.95732,3.16005 8.68232,6.21956 10.5,6.79891 6.99126,2.22833 72.3205,12.17835 70.72153,10.77129 z m 161.84609,-3.14486 c 37.69009,-5.57559 46.2944,-7.27842 50.23724,-9.94211 7.16594,-4.84115 26.54237,-23.58149 32.97783,-31.89523 1.68187,-2.17276 3.05772,-2.68419 -20.47783,7.61204 -17.52083,7.66493 -68.9448,29.34615 -80.22124,33.82264 -4.27832,1.69839 -7.96626,3.27388 -8.19543,3.50108 -0.75175,0.74532 1.67922,0.452 25.67943,-3.09842 z m -83.13951,11.75517 c 11.28421,-14.84507 18.51753,-30.05371 17.39437,-35.61531 -0.94321,-4.67057 -8.37822,-11.88798 -12.35298,-13.97507 -4.80187,-2.5214 -6.32105,-1.99909 -8.23751,-1.26368 -1.17642,0.45143 -1.41326,4.19846 -1.34818,21.32903 0.0469,12.33821 -1.31888,29.99596 -0.93305,34.56281 2.82385,-0.66559 2.51976,-1.14689 5.47735,-5.03778 z M 444.818,278.08453 c 0.30855,-1.5125 0.92786,-4.14035 1.37625,-5.83968 0.77725,-2.94564 0.41249,-3.46404 -7.82444,-11.12037 -8.14469,-7.57058 -9.05021,-8.12407 -15.8046,-9.66033 -3.9407,-0.89629 -10.67608,-1.62057 -14.96751,-1.60951 -7.71643,0.0199 -20.05549,1.39945 -21.00444,2.3484 -0.92662,0.92662 6.10574,12.8644 10.3763,17.6143 2.35029,2.61409 5.52253,5.22737 7.04941,5.80729 1.52687,0.57993 9.07614,1.58371 16.77614,2.23063 7.7,0.64692 15.8,1.53015 18,1.96274 2.2,0.43259 4.32893,0.83828 4.73095,0.90153 0.40202,0.0632 0.9834,-1.1225 1.29194,-2.635 z m 431.36672,-0.76939 10.61039,-0.69282 6,-6.16395 c 5.81031,-5.96909 12.60709,-16.85008 11.32574,-18.13143 -1.39863,-1.39864 -15.90705,-2.66871 -24.82574,-2.17326 -14.9236,0.82903 -17.65752,1.95026 -26.98194,11.06575 l -8.06563,7.8849 1.1165,5.67504 1.1165,5.67505 9.5469,-1.22323 c 5.25079,-0.67278 14.32157,-1.535 20.15728,-1.91605 z M 598.56826,273.4769 c 1.27389,-12.3428 10.52833,-25.2234 25.76529,-35.86088 2.39452,-1.6717 2.34998,-1.68119 -1.63568,-0.34825 -16.47455,5.50963 -28.82922,19.42826 -31.81626,35.84384 -0.6505,3.57493 -0.51117,3.85114 2.6032,5.16064 1.80977,0.76095 3.56813,1.21195 3.90746,1.00223 0.33934,-0.20972 0.86854,-2.81863 1.17599,-5.79758 z m 101.71498,2.43985 c -0.0251,-3.3516 -2.87519,-12.10405 -5.52941,-16.98073 -3.87174,-7.11366 -13.06504,-15.55439 -20.97044,-19.25377 -3.62282,-1.69532 -6.77588,-2.89345 -7.00682,-2.66252 -0.23093,0.23094 2.06814,2.19624 5.10905,4.36734 9.88431,7.05704 18.39312,20.20081 20.50814,31.67945 l 1.1959,6.49041 3.35273,-1.02898 c 1.96816,-0.60405 3.34782,-1.68238 3.34085,-2.6112 z m 137.30777,-10.56543 c 4.08975,-0.55694 5.7094,-1.52641 11,-6.58428 5.8484,-5.59112 6.09736,-6.01389 4.34227,-7.37386 -2.85418,-2.21162 -12.03323,-2.94683 -21.0253,-1.68405 -13.46596,1.89106 -14.78362,2.51465 -24.81777,11.74511 -5.1123,4.70283 -9.41635,8.87603 -9.56454,9.27378 -0.1482,0.39775 7.7268,-0.50235 17.5,-2.00021 9.77319,-1.49787 19.9276,-3.01729 22.56534,-3.37649 z m -352.2959,-2.52978 c -4.675,-4.39919 -9.70406,-8.6652 -11.17569,-9.48002 -3.95777,-2.19137 -20.50518,-4.79429 -26.82431,-4.2195 -6.18601,0.56269 -11.23231,2.51389 -10.69368,4.13482 0.19696,0.59273 3.10015,3.4076 6.45155,6.25527 4.87521,4.14245 7.05794,5.30979 10.91778,5.83888 2.65339,0.36372 11.34935,1.68775 19.32435,2.9423 22.7173,3.57365 21.97312,3.91298 12,-5.47175 z m -47.71866,-15.81117 3.78135,-1.67584 -6.41667,-6.35746 -6.41667,-6.35745 -5.14771,1.10398 c -6.53506,1.40152 -11.80339,4.10837 -15.43216,7.92899 l -2.85052,3.00122 6.85052,0.67695 c 3.76779,0.37233 9.10052,1.25593 11.85052,1.96356 6.76411,1.74055 9.33268,1.68763 13.78134,-0.28395 z m 428.57432,0.39697 c 3.10438,-0.78496 8.71265,-1.74068 12.4628,-2.12383 l 6.81845,-0.69664 -2.81845,-2.96942 c -3.81246,-4.01666 -10.98037,-7.53337 -16.1097,-7.90372 -3.97024,-0.28666 -4.57845,0.0491 -10.248,5.65803 l -6.02727,5.96277 3.78325,1.67584 c 4.76804,2.11205 5.28866,2.12908 12.13892,0.39697 z m -475.65158,-0.70643 c 8.60362,-1.10337 8.92396,-1.24023 12.0032,-5.12809 1.74002,-2.19695 4.89258,-5.24688 7.0057,-6.77761 l 3.84203,-2.78315 -5.07673,-1.08877 c -2.7922,-0.59882 -6.10981,-1.08876 -7.37246,-1.08876 -3.75878,0 -24.60582,14.48198 -24.60582,17.09312 0,1.19989 3.51766,1.14373 14.20408,-0.22674 z m 519.6586,-4.16146 c -3.10052,-2.86271 -8.50052,-6.92285 -12,-9.02254 -5.87173,-3.52305 -6.77797,-3.77195 -11.74484,-3.22573 -8.23423,0.90554 -8.9269,1.71067 -4.25633,4.94738 2.18904,1.517 5.10971,4.46519 6.49038,6.55153 2.33701,3.53145 2.9811,3.86168 9.32922,4.78312 3.75039,0.54437 9.29389,1.03057 12.31889,1.08046 l 5.5,0.0907 z m -442.27614,2.73877 c -0.85597,-0.85598 -3.5602,-4.16052 -6.00939,-7.34343 -3.98873,-5.18365 -5.2337,-6.07182 -11.93897,-8.51737 l -7.48589,-2.73026 -4.06844,2.32369 c -2.23765,1.27802 -4.07191,2.56277 -4.07615,2.85498 -0.004,0.29222 2.6061,3.11783 5.80074,6.27914 l 5.80844,5.74783 9.44156,1.01443 c 5.19286,0.55793 9.89156,1.1843 10.44156,1.39192 2.63575,0.99496 3.62058,0.5131 2.08654,-1.02093 z m 367.86593,-0.13297 8.95247,-0.633 5.79753,-5.63792 c 3.18864,-3.10086 5.79753,-6.1692 5.79753,-6.81854 0,-0.64934 -1.84537,-2.12205 -4.10082,-3.2727 l -4.10083,-2.09208 -7.71387,3.10947 c -7.84823,3.16362 -8.34875,3.61753 -17.00391,15.42029 -1.31879,1.7984 -1.24789,1.88678 1,1.24656 1.33069,-0.37899 6.44804,-0.97393 11.3719,-1.32208 z M 578.45119,229.08453 c -5.55132,-6.91154 -9.03082,-10.25 -10.68304,-10.25 -0.90184,0 -1.48971,0.37448 -1.30637,0.83217 0.31609,0.78911 13.96181,12.98515 14.66736,13.10913 0.18372,0.0323 -1.02136,-1.6288 -2.67795,-3.6913 z m 139.86218,-3.49822 c 3.47525,-3.16152 6.03724,-6.02961 5.69331,-6.37354 -1.19908,-1.19908 -3.37052,0.4565 -8.76325,6.68141 -6.54769,7.5581 -5.45628,7.44865 3.06994,-0.30787 z m -286.09634,1.19818 c 3.08464,-1.39943 4.1048,-2.32324 3.3733,-3.05474 -1.96745,-1.96745 -26.76764,-10.05353 -38.29522,-12.48613 -15.5404,-3.27941 -42.59994,-3.48345 -44.54524,-0.33589 -0.70447,1.13986 12.07258,4.90452 35.54524,10.47311 33.7292,8.00182 37.24229,8.43403 43.92192,5.40365 z m 467.57945,-4.92773 c 13.75075,-3.1842 28.35137,-6.78712 32.44582,-8.0065 6.47025,-1.92693 7.18981,-2.36444 5.49863,-3.34335 -1.11822,-0.64726 -8.32562,-1.27892 -16.94582,-1.48514 -12.41576,-0.29702 -16.79846,0.0104 -25.439,1.78441 -9.78618,2.00922 -28.59226,7.80456 -37.51237,11.55993 -3.61565,1.5222 -3.78557,1.75697 -2,2.76324 8.29528,4.67484 10.26592,4.52811 43.95274,-3.27259 z M 555.33624,195.71788 c -3.31895,-10.25569 -5.64901,-14.8765 -4.47946,-8.88335 1.00198,5.13448 6.72809,20.63072 7.15269,19.35693 0.19987,-0.59963 -1.00308,-5.31274 -2.67323,-10.47358 z m 182.0432,-0.63284 c 3.00715,-8.89631 3.61537,-11.86051 1.89812,-9.25051 -1.0138,1.54084 -7.00659,19.43804 -6.95204,20.76196 0.0699,1.69633 2.32789,-3.44677 5.05392,-11.51145 z m -134.05243,29.99794 c -8.5091,-4.28988 -11.81659,-20.26762 -6.43221,-31.07265 3.00012,-6.02047 7.40414,-9.42657 18.46721,-14.28266 4.08821,-1.7945 7.58463,-3.36861 7.76984,-3.49801 0.1852,-0.1294 -2.6273,-4.16486 -6.25,-8.9677 -3.62271,-4.80283 -6.58674,-9.30099 -6.58674,-9.9959 0,-0.69491 -1.9125,-2.75709 -4.25,-4.58263 -2.3375,-1.82554 -10.02094,-8.38344 -17.07431,-14.57312 -15.13923,-13.28542 -23.19404,-18.39459 -34.48261,-21.87235 -6.52012,-2.00871 -8.54793,-3.08812 -9.42735,-5.01825 -2.64881,-5.8135 5.5311,-7.36437 16.17231,-3.0662 9.84022,3.97464 19.32309,11.16064 36.75469,27.85222 9.244,8.85157 18.84831,18.04652 21.34291,20.43322 2.4946,2.3867 6.0946,7.06343 8,10.39271 l 3.46436,6.05326 4,-0.7752 c 5.20535,-1.00879 15.91046,-0.99125 21.08327,0.0345 l 4.08326,0.80973 3.91674,-6.70311 c 2.73035,-4.67272 6.94574,-9.47459 13.91673,-15.85292 5.5,-5.0324 14.34733,-13.46649 19.66074,-18.74241 14.50121,-14.3989 28.05085,-23.29123 39.34738,-25.82284 3.89475,-0.87283 5.16875,-0.7847 7.11786,0.49241 2.60239,1.70515 3.10567,4.6573 1.0805,6.33804 -0.71143,0.59044 -4.93267,2.22314 -9.38052,3.62821 -9.99634,3.15784 -19.52119,9.31602 -33.13959,21.42599 -5.67249,5.04419 -12.58897,10.96981 -15.36995,13.16805 -2.78098,2.19823 -5.8019,5.4592 -6.71316,7.24659 -0.91127,1.78739 -4.25486,6.50592 -7.43021,10.48564 l -5.77336,7.23584 9.44193,4.3823 c 11.91142,5.52846 16.93317,10.29631 19.25432,18.28079 1.39222,4.78905 1.48868,6.76116 0.57186,11.69112 -1.37512,7.3943 -5.192,13.32118 -9.82558,15.25721 -3.27624,1.3689 -4.06612,1.29417 -11.18372,-1.05815 -11.26742,-3.72376 -21.27695,-5.57218 -30.17465,-5.57218 -9.16304,0 -14.9519,1.06117 -27.74581,5.08617 -5.09407,1.60261 -9.59407,2.91313 -10,2.91228 -0.40592,-8.6e-4 -2.29869,-0.78836 -4.20614,-1.75 z m 20.64428,-17.87085 c 0.64506,-4.80932 -0.98998,-11.23552 -3.75215,-14.74705 -3.14443,-3.9975 -4.04076,-3.14869 -1.86621,1.76726 2.17666,4.92069 2.84239,12.32571 1.58248,17.60219 l -0.83572,3.5 2.17318,-2.10325 c 1.19525,-1.15679 2.40954,-3.86541 2.69842,-6.01915 z m 46.82762,-1.6276 c 0.003,-6.95807 0.44284,-10.05527 1.77568,-12.5 2.09515,-3.84295 0.71267,-4.32677 -2.10994,-0.7384 -4.28975,5.45353 -5.04468,16.61033 -1.40326,20.7384 0.84903,0.9625 1.58645,1.75 1.63871,1.75 0.0522,0 0.0967,-4.1625 0.0988,-9.25 z m -59.61095,-5.13594 c 3.0275,-3.22263 2.69765,-9.95843 -0.51007,-10.41621 -2.58972,-0.36958 -7.38278,4.94033 -7.38278,8.17888 0,4.82994 4.30957,6.05155 7.89285,2.23733 z m 72.90715,-0.81406 c 2.81049,-2.81049 0.13237,-9.8 -3.75499,-9.8 -3.65794,0 -5.26733,4.84756 -3.00983,9.06574 1.15713,2.16212 4.9277,2.57138 6.76482,0.73426 z M 652.1728,194.9351 c 3.64227,-2.69469 8.75981,-5.93436 11.37231,-7.19927 2.6125,-1.26491 4.75,-2.62984 4.75,-3.03318 0,-1.6744 -4.06652,-1.87064 -6.4467,-0.31109 -3.19192,2.09143 -5.5533,1.24935 -5.5533,-1.98033 0,-2.07482 -0.62034,-2.60826 -3.75,-3.22472 -8.38249,-1.65111 -18.46148,-0.29159 -18.18833,2.45337 0.45372,4.55945 -1.77023,5.67336 -5.17507,2.59203 -1.337,-1.20997 -2.43974,-1.37967 -4.50089,-0.69262 -2.72777,0.90926 -2.72555,0.91253 2.69214,3.97463 2.98218,1.68554 8.12215,5.13208 11.42215,7.65899 3.3,2.5269 6.16996,4.6095 6.37769,4.62799 0.20772,0.0185 3.35772,-2.17111 7,-4.8658 z"
       id="path1" />
  </g>
</svg>
