<?xml version="1.0" encoding="UTF-8" standalone="no"?>
<svg
   xmlns:dc="http://purl.org/dc/elements/1.1/"
   xmlns:cc="http://creativecommons.org/ns#"
   xmlns:rdf="http://www.w3.org/1999/02/22-rdf-syntax-ns#"
   xmlns:svg="http://www.w3.org/2000/svg"
   xmlns="http://www.w3.org/2000/svg"
   xmlns:sodipodi="http://sodipodi.sourceforge.net/DTD/sodipodi-0.dtd"
   xmlns:inkscape="http://www.inkscape.org/namespaces/inkscape"
   width="210mm"
   height="297mm"
   viewBox="0 0 210 297"
   version="1.1"
   id="svg8"
   inkscape:version="1.0.2-2 (e86c870879, 2021-01-15)"
   sodipodi:docname="beehive.svg">
  <defs
     id="defs2" />
  <sodipodi:namedview
     id="base"
     pagecolor="#ffffff"
     bordercolor="#666666"
     borderopacity="1.0"
     inkscape:pageopacity="0.0"
     inkscape:pageshadow="2"
     inkscape:zoom="0.7"
     inkscape:cx="352.66728"
     inkscape:cy="482.96465"
     inkscape:document-units="mm"
     inkscape:current-layer="layer1"
     inkscape:document-rotation="0"
     showgrid="false"
     inkscape:window-width="1800"
     inkscape:window-height="1020"
     inkscape:window-x="102"
     inkscape:window-y="0"
     inkscape:window-maximized="0" />
  <metadata
     id="metadata5">
    <rdf:RDF>
      <cc:Work
         rdf:about="">
        <dc:format>image/svg+xml</dc:format>
        <dc:type
           rdf:resource="http://purl.org/dc/dcmitype/StillImage" />
        <dc:title></dc:title>
      </cc:Work>
    </rdf:RDF>
  </metadata>
  <g
     inkscape:label="Livello 1"
     inkscape:groupmode="layer"
     id="layer1">
    <path
       style="fill:#000000;stroke-width:0.264583"
       d="m 88.824549,211.9401 c -0.46767,-0.13519 -1.152628,-0.64216 -1.522135,-1.12661 l -0.671827,-0.88081 -5.092449,-0.16235 c -2.800847,-0.0893 -6.164013,-0.28383 -7.473701,-0.43232 -1.309687,-0.14849 -4.286249,-0.45904 -6.614583,-0.69011 -4.806735,-0.47703 -16.914203,-2.46018 -20.947432,-3.4311 -2.886974,-0.69498 -6.434084,-1.7964 -7.173647,-2.22749 -0.67405,-0.39291 0.07676,-0.34205 1.075933,0.0729 0.468268,0.19446 1.208585,0.42857 1.645148,0.52026 0.679082,0.14262 0.640857,0.0944 -0.264584,-0.33394 -0.582083,-0.27535 -1.266692,-0.50947 -1.521354,-0.52026 -0.254661,-0.0108 -0.463021,-0.13868 -0.463021,-0.28421 0,-0.14552 0.528754,-0.26458 1.17501,-0.26458 0.646255,0 1.237032,-0.10036 1.312841,-0.22301 0.07581,-0.12266 -0.925819,-0.78383 -2.225831,-1.46927 -4.341037,-2.28884 -7.104263,-4.90562 -8.55047,-8.0973 -0.759474,-1.67611 -0.915446,-5.22705 -0.320734,-7.30205 0.522912,-1.82448 1.62115,-4.18447 2.152481,-4.62544 0.555617,-0.46112 0.471133,-0.68961 -0.705199,-1.90722 -1.178671,-1.22002 -2.677639,-4.09499 -3.174415,-6.0884 -0.193429,-0.77618 -0.264594,-2.26791 -0.183026,-3.83646 0.206063,-3.96252 1.570463,-7.34054 4.032906,-9.98479 0.657124,-0.70565 1.194771,-1.32447 1.194771,-1.37517 0,-0.0507 -0.23296,-0.34224 -0.517689,-0.64786 -1.580327,-1.69628 -2.372918,-5.05252 -1.910358,-8.08946 0.481971,-3.16435 1.725562,-5.43922 4.250407,-7.77513 l 2.070536,-1.9156 -0.666586,-1.45601 c -1.739233,-3.79899 -0.698753,-9.17849 2.449767,-12.66582 1.234916,-1.3678 4.950452,-4.03268 5.62261,-4.03268 0.501417,0 0.423098,-0.41276 -0.293794,-1.54839 -1.619665,-2.56572 -1.56837,-5.76632 0.152064,-9.48838 0.903005,-1.9536 4.195159,-5.10192 6.437834,-6.15657 1.018646,-0.47903 1.894247,-0.90671 1.945783,-0.95039 0.05154,-0.0437 -0.235366,-0.75201 -0.637554,-1.57406 -1.291579,-2.639889 -1.006295,-5.439459 0.870606,-8.543529 1.7989,-2.97505 4.440873,-5.13777 7.157318,-5.85898 1.245812,-0.33076 1.20591,-0.15584 0.680323,-2.98221 -0.344016,-1.84996 1.094846,-5.63982 2.975279,-7.83668 1.184653,-1.384005 3.447857,-2.857989 5.761873,-3.752608 1.657424,-0.640774 1.874899,-0.803299 1.809229,-1.352111 -0.279283,-2.334054 -0.105963,-4.174723 0.521936,-5.542952 1.246563,-2.71634 4.412726,-5.581012 7.42406,-6.717123 1.079582,-0.407305 1.25677,-0.576709 1.25677,-1.201573 0,-3.029414 2.926543,-6.524147 6.404967,-7.648501 0.617493,-0.199595 1.177282,-0.634671 1.510678,-1.174119 0.763448,-1.235284 3.643461,-3.918134 5.148728,-4.796254 2.61248,-1.524028 4.01376,-1.721398 12.221432,-1.721398 6.48437,0 7.69409,0.06553 9.43641,0.511137 3.64691,0.932723 6.80098,2.916732 8.79627,5.533132 0.57214,0.750235 1.19098,1.364064 1.37521,1.364064 0.84918,0 3.26922,1.366599 4.63781,2.618978 1.55101,1.419303 2.67279,3.335525 3.06685,5.238745 0.19559,0.944669 0.3494,1.075608 2.52994,2.153746 4.36791,2.159661 6.88547,5.612574 6.9063,9.472218 l 0.0102,1.888892 2.3014,1.083908 c 3.24774,1.529606 5.41414,3.602309 6.897,6.598689 1.11346,2.24995 1.12024,2.28135 1.10262,5.10865 -0.0167,2.68163 0.0143,2.85282 0.541,2.98501 0.97124,0.24377 3.78969,2.20992 5.05052,3.52325 1.43499,1.49476 2.85483,4.31979 3.32027,6.6063 0.32798,1.61124 0.28946,2.08511 -0.43683,5.373699 -0.13197,0.59758 0.0147,0.73704 1.51918,1.44413 2.33972,1.09967 4.8652,3.66743 6.12622,6.22878 1.80354,3.66331 2.17275,6.30813 1.22771,8.79456 -0.29097,0.76555 -0.5291,1.41332 -0.52917,1.43949 -7e-5,0.0262 0.56542,0.32209 1.25664,0.65761 0.69122,0.33552 2.16098,1.50473 3.26612,2.59825 1.56288,1.54645 2.26074,2.49753 3.14076,4.28044 1.00627,2.03865 1.1462,2.55131 1.26497,4.63446 0.12076,2.11786 0.0633,2.5179 -0.60001,4.17587 l -0.73357,1.83362 0.62755,0.41108 c 1.65232,1.08237 3.68738,3.00889 4.52895,4.2874 1.65691,2.51717 2.16311,4.22713 2.18132,7.36847 0.0181,3.12176 -0.32166,4.08154 -2.16841,6.12567 l -0.97096,1.07474 0.77974,0.56698 c 2.19363,1.5951 4.16239,4.49253 4.92752,7.25183 0.54193,1.95436 0.63449,5.06386 0.20662,6.9412 -0.43609,1.91338 -2.05715,4.91798 -3.40255,6.30652 l -1.24552,1.28546 1.13591,1.56182 c 2.01193,2.76633 2.77112,6.12158 2.10644,9.30943 -0.52908,2.53746 -1.70829,4.67946 -3.61999,6.57556 -1.40967,1.39818 -2.02652,2.2626 -1.28954,1.80712 0.373,-0.23052 1.57246,0.0831 1.57246,0.41121 0,0.14275 -0.24186,0.25955 -0.53747,0.25955 -0.29561,0 -0.606,0.17859 -0.68976,0.39687 -0.0838,0.21828 -0.37769,0.39688 -0.65316,0.39688 -0.27547,0 -0.50086,0.17859 -0.50086,0.39687 0,0.21828 0.11906,0.39688 0.26458,0.39688 0.14553,0 0.26459,0.22487 0.26459,0.49972 0,0.36486 -0.2587,0.54825 -0.95862,0.67956 -0.52723,0.0989 -1.15231,0.27614 -1.38906,0.39385 -0.56504,0.28093 -4.31618,1.39507 -7.30961,2.17106 -2.16012,0.55997 -2.29526,0.6308 -1.45521,0.76271 0.90459,0.14206 0.8954,0.1495 -0.39688,0.32151 -0.7276,0.0968 -1.85869,0.30494 -2.51354,0.46242 -0.65484,0.15748 -1.42875,0.3403 -1.71979,0.40627 -4.8589,1.10128 -29.18975,3.8279 -34.15802,3.8279 -0.99223,0 -1.71187,0.19617 -2.65187,0.72288 -1.10408,0.61864 -1.59531,0.72328 -3.40677,0.7257 -2.88655,0.004 -4.44198,-0.8294 -5.27648,-2.82663 -0.38703,-0.9263 -0.45916,-0.96573 -2.06021,-1.12625 -2.60118,-0.2608 -3.57937,-0.26838 -6.55393,-0.0508 -4.776,0.34936 -9.26042,1.10423 -9.26042,1.55882 0,0.131 0.23573,0.16336 0.52383,0.0719 0.28811,-0.0914 0.72481,-0.0538 0.97045,0.0837 0.46868,0.26228 0.21303,0.36043 -1.89115,0.72599 -0.43656,0.0758 -1.21047,0.25554 -1.71979,0.39932 -4.233922,1.19522 -9.835084,1.66263 -12.095101,1.00932 z m 4.945734,-1.95253 c 0.732277,-0.37867 1.281284,-1.32897 0.955812,-1.65444 -0.08605,-0.0861 -0.15645,-0.0217 -0.15645,0.14292 0,0.16466 -0.256178,0.43648 -0.569286,0.60405 -0.473704,0.25352 -0.543808,0.23828 -0.417552,-0.0907 0.08346,-0.21748 0.03161,-0.51555 -0.115226,-0.66238 -0.179559,-0.17956 -0.170643,-0.32649 0.02723,-0.44878 0.161806,-0.1 0.261477,-0.0658 0.221493,0.076 -0.03999,0.14178 0.04636,0.25779 0.191881,0.25779 0.145521,0 0.236247,-0.10287 0.201613,-0.2286 -0.03464,-0.12573 0.114191,-0.16062 0.330729,-0.0775 0.260567,0.1 0.395637,-0.0151 0.399431,-0.34025 0.176879,-15.16459 0.336116,-16.29631 2.50169,-17.78019 1.07848,-0.73898 1.93249,-0.97605 5.362192,-1.48849 5.04002,-0.75304 13.63463,-0.39081 16.14257,0.68034 1.30312,0.55657 2.54739,1.57305 3.04384,2.4866 0.59723,1.09899 0.97161,3.82057 0.98269,7.14375 0.0167,5.00519 0.6728,9.92187 1.32404,9.92187 0.0837,0 0.11969,-0.50601 0.0799,-1.12448 -0.0504,-0.78285 -0.006,-0.96802 0.147,-0.60948 0.20468,0.48044 0.23102,0.47156 0.39253,-0.13229 0.0952,-0.35601 0.17476,-1.11362 0.17675,-1.68358 0.006,-1.63477 0.30645,-0.90487 0.39114,0.94928 0.0421,0.92098 -0.031,1.80943 -0.16228,1.97434 -0.30346,0.38109 0.55113,0.74941 0.90884,0.3917 0.81455,-0.81454 0.87435,-14.20805 0.0765,-17.13055 -1.07622,-3.9421 -4.09529,-5.71767 -10.471,-6.15818 l -3.04271,-0.21023 2.51355,-0.0349 c 5.4438,-0.0756 9.71619,1.72894 11.01104,4.65084 0.17768,0.40096 0.33229,0.55042 0.34356,0.33213 0.0527,-1.02011 -1.709,-3.09734 -3.32685,-3.9227 -2.56529,-1.30872 -3.67728,-1.44304 -12.83418,-1.55033 -11.505672,-0.13481 -14.000752,0.22037 -17.072628,2.43033 -2.792696,2.00911 -4.034205,6.10589 -4.044873,13.34744 -0.006,4.07723 0.45635,9.51441 0.850532,10.00204 0.369393,0.45695 2.709267,0.41626 3.636531,-0.0633 z m -3.23578,-1.35148 c -0.0898,-0.1453 -0.05389,-0.4371 0.0798,-0.64843 0.133692,-0.21133 0.244899,-0.65213 0.247126,-0.97955 0.0021,-0.32743 0.123114,-0.59532 0.268635,-0.59532 0.242392,0 0.292668,0.15263 0.370416,1.12448 0.01455,0.1819 0.145521,0.41821 0.291042,0.52512 0.145521,0.10691 0.0066,0.19621 -0.308682,0.19844 -0.315293,0.002 -0.620918,0.14701 -0.679161,0.32175 -0.06571,0.19713 -0.167862,0.21744 -0.269174,0.0535 z M 89.97859,205.5529 c -0.09177,-0.76399 -0.165304,-3.41313 -0.16342,-5.88698 0.006,-7.80816 1.082931,-10.96104 4.51659,-13.22237 1.800871,-1.18601 2.488508,-1.22428 1.310902,-0.0729 -0.483737,0.47294 -0.952825,0.86172 -1.042416,0.86394 -0.383606,0.01 -0.820338,0.44985 -0.676708,0.68225 0.08595,0.13907 0.0034,0.22014 -0.183404,0.18015 -0.18682,-0.04 -0.357878,0.16543 -0.380125,0.45647 -0.02225,0.29104 -0.297764,0.98426 -0.612259,1.54049 -0.763661,1.35064 -0.895712,2.89451 -0.871439,10.18853 0.01754,5.2735 -0.03363,6.12782 -0.351266,5.8642 -0.431634,-0.35822 -0.92415,-0.13755 -0.92415,0.41406 0,0.20969 -0.102479,0.38126 -0.22773,0.38126 -0.125251,0 -0.30281,-0.62508 -0.394575,-1.38906 z m 6.919388,-20.09511 c 0.24694,-0.24694 0.38806,-0.24694 0.635,0 0.24694,0.24695 0.17639,0.3175 -0.3175,0.3175 -0.49389,0 -0.56444,-0.0705 -0.3175,-0.3175 z M 100.592,185.059 c 0.32912,-0.0633 0.80537,-0.0609 1.05834,0.005 0.25296,0.0662 -0.0163,0.11801 -0.5984,0.11507 -0.58209,-0.003 -0.78906,-0.0571 -0.45994,-0.12041 z m 7.81011,-0.27226 c 0.69561,-0.0547 1.76718,-0.054 2.38125,0.002 0.61407,0.0555 0.0449,0.10023 -1.26476,0.0994 -1.30968,-7.9e-4 -1.81211,-0.0462 -1.11649,-0.10089 z m 16.78754,24.11203 c -0.0879,-0.0879 -0.31612,-0.0973 -0.50711,-0.0209 -0.21107,0.0845 -0.14838,0.14715 0.15985,0.15985 0.27891,0.0115 0.43518,-0.0511 0.34726,-0.13897 z m -38.52104,-5.92556 c -0.06105,-1.83842 0.379407,-8.6278 0.646298,-9.96225 l 0.160763,-0.80381 -2.07541,-0.17971 c -1.141473,-0.0988 -4.218532,-0.35824 -6.837907,-0.57644 -12.826515,-1.06849 -27.512324,-3.62348 -35.189582,-6.12216 -1.164166,-0.37889 -3.128698,-1.15559 -4.365625,-1.726 l -2.248958,-1.0371 -0.797541,0.91527 c -1.039477,1.19291 -1.827575,3.4092 -1.807118,5.08197 0.05528,4.51979 5.307568,8.78991 13.654013,11.10074 6.527025,1.8071 17.177316,3.78693 24.140228,4.48754 5.360143,0.53933 6.257226,0.58591 10.828559,0.56221 l 3.949393,-0.0205 z m 57.23382,1.44787 c 9.94588,-0.8818 22.30402,-3.32017 29.51305,-5.82319 5.82826,-2.0236 8.61933,-4.06701 9.77536,-7.15678 1.08495,-2.89978 0.42507,-6.63773 -1.46469,-8.29697 -0.86568,-0.76007 -0.96884,-0.78763 -1.64315,-0.43893 -4.8809,2.52401 -11.02875,4.28868 -20.33964,5.83826 -7.23004,1.20326 -12.67097,1.84999 -27.47059,3.26522 -1.66854,0.15955 -2.09449,0.28451 -2.01191,0.59023 0.0576,0.21331 0.17668,3.00721 0.26458,6.20867 l 0.15983,5.82083 2.24896,0.14914 c 4.16138,0.27598 6.46045,0.24317 10.9682,-0.15648 z m 34.14325,-2.77079 c 0.0899,-0.14552 0.0445,-0.26458 -0.10106,-0.26458 -0.14552,0 -0.33817,0.11906 -0.4281,0.26458 -0.0899,0.14553 -0.0445,0.26459 0.10106,0.26459 0.14552,0 0.33817,-0.11906 0.4281,-0.26459 z m 3.175,-0.52916 c 0.0899,-0.14552 0.0374,-0.26459 -0.11667,-0.26459 -0.15411,0 -0.2802,0.11907 -0.2802,0.26459 0,0.14552 0.0525,0.26458 0.11668,0.26458 0.0642,0 0.19026,-0.11906 0.28019,-0.26458 z m -0.92604,-0.82498 c 0,-0.14552 -0.11906,-0.191 -0.26458,-0.10106 -0.14552,0.0899 -0.26458,0.28258 -0.26458,0.4281 0,0.14552 0.11906,0.191 0.26458,0.10106 0.14552,-0.0899 0.26458,-0.28258 0.26458,-0.4281 z m -53.00051,-7.6913 c -0.0845,-0.21106 -0.14715,-0.14837 -0.15985,0.15985 -0.0115,0.27892 0.0511,0.43519 0.13897,0.34727 0.0879,-0.0879 0.0973,-0.31612 0.0209,-0.50712 z m -0.52916,-2.11667 c -0.0845,-0.21106 -0.14716,-0.14837 -0.15985,0.15986 -0.0115,0.27891 0.051,0.43518 0.13896,0.34726 0.0879,-0.0879 0.0973,-0.31612 0.0209,-0.50712 z M 88.634115,187.4311 c 0.849923,-1.29715 2.584534,-2.67593 4.744905,-3.77155 3.474438,-1.76205 4.680238,-1.90891 16.00729,-1.94963 10.60932,-0.0381 11.3851,0.0388 14.44961,1.43358 1.55,0.70546 3.75841,2.5198 4.40878,3.62209 l 0.55508,0.94079 4.11775,-0.16411 c 8.48675,-0.33824 23.21586,-1.94949 29.65003,-3.24347 3.23316,-0.65022 9.2269,-2.23651 11.64167,-3.08106 4.91858,-1.72023 8.6509,-4.3335 10.01888,-7.01495 2.24274,-4.39614 1.57227,-9.51286 -1.62296,-12.38564 -0.72017,-0.6475 -1.41823,-1.17727 -1.55125,-1.17727 -0.13301,0 -1.19077,0.47711 -2.35058,1.06025 -7.88472,3.96437 -16.82903,6.15137 -32.40763,7.9241 -1.30969,0.14903 -3.86954,0.44612 -5.68855,0.66019 -6.31661,0.7434 -19.82128,1.30428 -31.35312,1.30218 -19.919868,-0.004 -35.210135,-1.33903 -52.387498,-4.57538 -6.563998,-1.2367 -13.810202,-3.34578 -17.751319,-5.16669 -1.119065,-0.51704 -2.26778,-0.94007 -2.552705,-0.94007 -1.049173,0 -2.903913,2.78143 -3.616864,5.42396 -0.61459,2.27797 -0.194443,5.76595 0.930317,7.72329 1.930987,3.36037 5.067149,5.02417 14.788488,7.84561 8.410789,2.44108 22.311639,4.79984 35.189581,5.97113 4.170627,0.37933 4.24973,0.37209 4.780095,-0.43735 z m 46.152195,-20.41371 c 1.38245,-0.14782 4.59714,-0.44839 7.14375,-0.66793 5.09512,-0.43925 5.97344,-0.55293 13.49375,-1.7465 8.78301,-1.39398 11.52414,-2.04931 16.53646,-3.95339 3.66075,-1.39066 6.5816,-2.94101 7.9054,-4.1961 1.34576,-1.2759 2.47849,-3.76867 2.70147,-5.94504 0.32593,-3.18132 -1.32147,-6.96213 -3.83858,-8.80959 -1.41643,-1.03961 -1.67833,-1.07772 -2.6502,-0.38569 -2.00057,1.42453 -6.04301,3.09241 -9.93893,4.10072 -2.32989,0.60301 -13.29711,2.43063 -16.66874,2.77775 -1.60073,0.16479 -4.99401,0.53347 -7.54063,0.81928 -15.0795,1.69238 -37.15719,2.5276 -48.683332,1.84175 -26.657481,-1.58623 -43.490817,-4.73668 -49.946639,-9.34778 l -1.131015,-0.80783 -1.200025,0.58301 c -2.741062,1.33171 -4.352385,3.52926 -5.300022,7.22825 -1.288704,5.0303 2.020649,8.70666 10.295434,11.43719 1.57095,0.51839 3.773606,1.13065 4.894792,1.36059 1.121185,0.22993 2.693362,0.58364 3.493727,0.78601 3.272578,0.82747 11.277827,2.31401 16.38724,3.04305 9.04906,1.29118 12.775554,1.65658 22.6388,2.21987 3.535758,0.20192 39.07104,-0.0878 41.40729,-0.33762 z m -12.25859,-19.88151 c 25.82477,-1.17489 43.26421,-4.02721 50.24411,-8.2177 1.85506,-1.11371 2.58585,-2.04648 3.1592,-4.03236 0.38573,-1.33603 0.40174,-1.77912 0.11851,-3.28022 -0.63857,-3.38425 -3.18041,-7.24116 -5.62786,-8.53953 l -1.18518,-0.62874 -0.94335,0.82828 c -4.50573,3.95608 -24.18319,7.7807 -45.41309,8.82675 -7.59031,0.37399 -25.725882,0.13455 -33.410709,-0.44112 -7.272006,-0.54475 -18.285776,-1.80733 -22.945538,-2.63039 -8.347583,-1.47444 -12.244332,-2.5415 -15.815333,-4.33075 -1.946751,-0.97542 -2.09572,-1.00877 -3.129812,-0.7005 -2.441972,0.72797 -5.260202,3.40123 -6.181447,5.86347 -0.996315,2.66289 -0.591389,5.84494 0.938469,7.3748 1.758323,1.75832 9.771208,4.59203 17.114255,6.05236 4.659116,0.92657 8.923789,1.53383 14.217617,2.0245 1.67349,0.15511 5.840677,0.58422 9.260417,0.95358 3.419739,0.36936 8.420364,0.76126 11.112499,0.87088 7.558892,0.30779 21.795432,0.31114 28.487242,0.007 z m 9.48047,-19.28452 c 8.71149,-0.66403 19.57522,-2.32124 24.36854,-3.71731 3.05737,-0.89047 8.16618,-3.00191 9.83844,-4.06617 2.13063,-1.35598 2.79651,-3.39101 2.05573,-6.28257 -0.52211,-2.03801 -1.43096,-3.6435 -3.03068,-5.35373 -2.48318,-2.65471 -4.26692,-2.97699 -7.75621,-1.40134 -3.31743,1.49804 -8.04073,2.35755 -21.27407,3.87129 -5.82118,0.66588 -20.03405,1.31914 -28.67571,1.31802 -18.994093,-0.002 -41.852798,-2.77717 -48.388019,-5.87356 -1.977641,-0.93701 -3.169073,-0.91808 -5.220205,0.083 -1.614985,0.78818 -4.330475,3.43437 -5.13461,5.00359 -0.80069,1.5625 -1.007258,4.48463 -0.415091,5.87198 1.00122,2.34569 2.75351,3.55647 7.696467,5.31805 5.227269,1.86291 10.475292,2.93742 19.480103,3.98848 7.166458,0.83649 11.182381,1.19612 16.503228,1.47789 5.611565,0.29717 35.248817,0.12093 39.952087,-0.23757 z m -10.15015,-19.86063 c 17.58034,-0.68547 27.64114,-1.90173 33.78169,-4.0839 2.86545,-1.01829 3.8825,-2.58294 3.88268,-5.973199 1e-4,-1.98068 -0.0859,-2.39099 -0.72073,-3.43959 -1.40634,-2.32288 -3.56838,-4.16714 -5.72483,-4.8834 l -1.31549,-0.43694 -1.64722,0.83152 c -5.43494,2.74355 -15.50618,4.11214 -32.39345,4.402 -20.950662,0.3596 -40.149658,-1.36951 -49.108304,-4.42282 -1.688941,-0.57563 -3.363973,-1.04661 -3.722291,-1.04661 -1.307639,0 -3.391238,0.82963 -4.718504,1.87878 -4.607097,3.6417 -4.429498,9.601959 0.352903,11.843559 3.910558,1.83296 18.351074,4.20465 32.325359,5.30909 3.910475,0.30906 21.302587,0.32195 29.008187,0.0215 z m -0.1686,-17.329449 c 15.7131,-0.55652 26.2796,-2.49684 28.18734,-5.17602 1.18763,-1.66787 1.03261,-4.73965 -0.3442,-6.82014 -1.25374,-1.89454 -4.1747,-3.49429 -7.27259,-3.983057 -1.23713,-0.195186 -2.0877,-0.123545 -4.56326,0.384337 -6.95545,1.42699 -15.68209,2.18962 -27.51667,2.40472 -12.254352,0.22272 -20.670815,-0.42479 -30.14189,-2.31894 -4.79513,-0.958998 -6.054925,-0.901986 -8.884149,0.40204 -3.251319,1.49857 -5.159375,4.31635 -5.159375,7.61926 0,2.13608 1.191001,2.95652 6.071555,4.1825 7.68192,1.92967 18.375206,3.0087 33.748239,3.40545 7.15064,0.18455 7.98551,0.17928 15.875,-0.10015 z m -7.80521,-16.811295 c 11.8358,-0.48591 20.67516,-1.599975 24.34484,-3.068293 1.22244,-0.489122 1.58432,-1.318355 1.58432,-3.630385 0,-1.583997 -0.0133,-1.612099 -1.40325,-2.958346 -0.77179,-0.747538 -2.11124,-1.706777 -2.97656,-2.131642 -1.56428,-0.768051 -1.60064,-0.77243 -6.33581,-0.763469 -2.61937,0.0049 -6.9564,0.153787 -9.63782,0.33073 -9.16921,0.605062 -25.674324,0.221974 -32.145471,-0.746102 -5.620975,-0.840893 -10.7365,2.37825 -10.7365,6.756358 0,2.042417 0.531027,2.90684 2.157396,3.511889 3.075292,1.144079 12.422031,2.365348 20.596773,2.691228 7.374182,0.293965 7.584522,0.294081 14.552082,0.008 z m 10.58333,-15.998097 c 2.98318,-0.235622 5.5253,-0.529198 5.64916,-0.652391 0.41462,-0.412374 -0.11493,-1.805288 -1.05388,-2.772095 -0.51133,-0.526494 -1.90327,-1.446687 -3.09321,-2.044874 -1.18994,-0.598186 -2.33126,-1.339292 -2.53627,-1.646901 -1.69543,-2.543907 -6.00138,-5.063016 -9.28455,-5.431735 -2.84828,-0.319879 -11.75842,-0.340261 -13.61139,-0.03114 -2.877912,0.480112 -5.281941,2.10844 -7.923144,5.366602 -0.560337,0.691224 -1.153279,1.256865 -1.317649,1.256979 -0.680058,4.77e-4 -3.533724,1.569021 -4.314155,2.371318 -0.973217,1.000483 -1.595895,2.317406 -1.248421,2.64032 0.303221,0.281786 7.309792,1.04386 12.275177,1.335122 5.528472,0.324291 20.133632,0.108341 26.458332,-0.391208 z m 48.89831,147.321831 c 0.19099,-0.0764 0.4192,-0.067 0.50712,0.0209 0.0879,0.0879 -0.0684,0.15045 -0.34727,0.13896 -0.30823,-0.0127 -0.37092,-0.0754 -0.15985,-0.15985 z m 1.57096,-0.25907 c 0.1819,-0.0734 0.47956,-0.0734 0.66146,0 0.1819,0.0734 0.0331,0.13345 -0.33073,0.13345 -0.3638,0 -0.51263,-0.06 -0.33073,-0.13345 z m 1.59238,-0.39851 c 0.15375,-0.15375 0.43572,-0.22748 0.6266,-0.16386 0.19816,0.0661 0.0782,0.18599 -0.27954,0.27955 -0.4401,0.11508 -0.5434,0.0806 -0.34706,-0.11569 z m 1.59916,-0.40075 c 0.19099,-0.0764 0.4192,-0.067 0.50712,0.0209 0.0879,0.0879 -0.0684,0.15046 -0.34727,0.13897 -0.30823,-0.0127 -0.37092,-0.0754 -0.15985,-0.15985 z"
       id="path849" />
  </g>
</svg>
