<?xml version="1.0" encoding="UTF-8" standalone="no"?>
<!-- Body layer split from APE.svg (everything except the two wing paths).
     The original <pattern> fill was removed: flutter_svg aborts the whole file
     when it hits a <pattern>/xlink:href definition. The white eye-highlight
     (path25-1-0) is kept. -->
<svg
   version="1.1"
   width="535.2691"
   height="459.00455"
   viewBox="0 0 535.2691 459.00455"
   xmlns="http://www.w3.org/2000/svg">
  <g transform="translate(1354.3451,-373.76254)">
    <path
       style="fill:#000000;fill-opacity:1;stroke:none;stroke-width:8.03528;stroke-linecap:round;stroke-linejoin:round;stroke-opacity:1"
       d="M -1109.7868,438.26532 -1132.5274,399 l -29.6684,-14.25 c 0,0 -4.2506,-5.79326 -0.6267,-8.88686 3.6239,-3.09359 8.5736,-1.85615 8.5736,-1.85615 l 30.7592,14.84924 24.6603,43.04513 z"
       id="path26" />
    <path
       style="fill:#000000;fill-opacity:1;stroke:none;stroke-width:7.75767;stroke-linecap:round;stroke-linejoin:round;stroke-opacity:1"
       d="M -1065.0569,438.26532 -1043.8605,399 l 27.6538,-14.25 c 0,0 3.962,-5.79326 0.5842,-8.88686 -3.3779,-3.09359 -7.9915,-1.85615 -7.9915,-1.85615 l -28.6705,14.84924 -22.9857,43.04513 z"
       id="path26-3" />
    <path
       style="fill:#000000;fill-opacity:1;stroke:none;stroke-width:8.03528;stroke-linecap:round;stroke-linejoin:round;stroke-opacity:1"
       d="M -1140.8088,513.42082 -1183.6958,476 l -0.125,-30.75 -20.75,-20.5 c 0,0 -1.25,-4.375 2.125,-6.625 3.375,-2.25 7.375,-0.625 7.375,-0.625 l 25,22.375 0.25,31.50022 38.2635,34.62478 -7.1385,9.25 z"
       id="path27" />
    <path
       style="fill:#000000;fill-opacity:1;stroke:none;stroke-width:7.37873;stroke-linecap:round;stroke-linejoin:round;stroke-opacity:1"
       d="M -1033.0137,513.42082 -996.8488,476 l 0.1054,-30.75 17.4976,-20.5 c 0,0 1.0541,-4.375 -1.7919,-6.625 -2.846,-2.25 -6.2191,-0.625 -6.2191,-0.625 l -21.0814,22.375 -0.2109,31.50022 -32.266,34.62478 6.0196,9.25 z"
       id="path27-5" />
    <path
       style="fill:#000000;fill-opacity:1;stroke:none;stroke-width:8.03528;stroke-linecap:round;stroke-linejoin:round;stroke-opacity:1"
       d="m -1127.8757,594.01878 -74.0145,34.54665 -29.5217,49.3207 -30.052,7.77817 c 0,0 -3.8891,2.38649 -3.7123,7.07107 0.1767,4.68458 6.0104,4.68458 6.0104,4.68458 l 37.4766,-8.39689 28.1075,-48.26004 80.0799,-38.61251 z"
       id="path28" />
    <path
       style="fill:#000000;fill-opacity:1;stroke:none;stroke-width:7.94589;stroke-linecap:round;stroke-linejoin:round;stroke-opacity:1"
       d="m -1064.1066,585.51351 72.37688,34.54665 28.86849,49.3207 29.38706,7.77818 c 0,0 3.80305,2.38648 3.63016,7.07106 -0.17279,4.68458 -5.87741,4.68458 -5.87741,4.68458 l -36.64738,-8.39689 -27.48559,-48.26004 -78.30801,-38.61251 z"
       id="path28-6" />
    <path
       style="fill:#000000;fill-opacity:1;stroke:none;stroke-width:8.03528;stroke-linecap:round;stroke-linejoin:round;stroke-opacity:1"
       d="m -1129.2499,609.74384 -66.4531,70.26361 -8.662,72.30167 -21.0365,25.27907 c 0,0 -1.9445,5.12652 1.591,8.3085 3.5356,3.18198 8.6621,0.35355 8.6621,0.35355 l 24.0416,-27.40038 8.1317,-73.89266 38.007,-40.30509 z"
       id="path29" />
    <path
       style="fill:#000000;fill-opacity:1;stroke:none;stroke-width:8.58395;stroke-linecap:round;stroke-linejoin:round;stroke-opacity:1"
       d="m -1065.1048,589.74159 75.83803,70.26361 9.8853,72.30167 24.00742,25.27907 c 0,0 2.21912,5.12652 -1.81569,8.3085 -4.03492,3.18198 -9.88542,0.35355 -9.88542,0.35355 l -27.43692,-27.40038 -9.28012,-73.89266 -43.3746,-40.30509 z"
       id="path29-3" />
    <path
       style="fill:#f9bf19;fill-opacity:1;stroke:#000000;stroke-width:8.03528;stroke-linecap:round;stroke-linejoin:round;stroke-opacity:1"
       d="m -1099.7132,426.50967 -28.6379,21.56675 c 0,0 -7.4246,14.84925 -2.4748,24.74874 4.9497,9.8995 15.2028,16.61701 15.2028,16.61701 l 54.0936,-1.06066 c 0,0 13.0815,-11.31371 14.4957,-20.15254 1.4142,-8.83884 -8.8388,-28.28427 -8.8388,-28.28427 l -22.981,-14.84925 c 0,0 -16.9706,-3.53553 -20.8596,1.41422 z"
       id="path22" />
    <path
       style="fill:#f9bf19;fill-opacity:1;stroke:#000000;stroke-width:8.03528;stroke-linecap:round;stroke-linejoin:round;stroke-opacity:1"
       d="m -1115.2195,594.62431 c 0,0 -24.4819,23.21593 -31.8699,38.00699 -6.2721,12.55688 -8.0713,27.05371 -9.5459,41.01219 -1.3622,12.89401 -2.1962,26.25433 0.7071,38.89087 4.1583,18.09881 12.0972,35.82425 23.4008,50.55814 11.7553,15.32265 44.4815,37.1231 44.4815,37.1231 0,0 36.6774,-23.43614 49.1438,-40.65864 10.9845,-15.17516 17.3181,-33.86563 20.5061,-52.3259 2.5483,-14.7561 1.009,-30.12413 -1.4142,-44.90128 -1.7134,-10.4487 -4.0819,-21.13227 -9.1924,-30.40559 -8.0677,-14.63956 -16.4838,-35.98616 -32.8303,-37.90541 -2.502,6.44461 -16.4688,20.03226 -27.8807,19.87419 -10.6543,-0.14758 -25.5059,-19.26866 -25.5059,-19.26866"
       id="path24" />
    <path
       style="fill:#f9bf19;fill-opacity:1;stroke:#000000;stroke-width:8.03528;stroke-linecap:round;stroke-linejoin:round;stroke-opacity:1"
       d="m -1138.9577,509.24116 c 4.409,-9.19872 23.3346,-19.79899 23.3346,-19.79899 54.0936,-1.06066 0,0 54.0936,-1.06066 16.7649,9.0783 21.0166,10.89016 25.8094,20.85965 9.8551,20.49972 11.0107,48.14135 0.3536,68.23581 -10.2171,19.26489 -24.4344,30.46304 -54.3482,44.29061 -23.7882,-11.74246 -41.7693,-27.20922 -51.0107,-46.41193 -9.5603,-19.86527 -7.7611,-46.23411 1.7677,-66.11449 z"
       id="path23" />
    <path
       style="fill:#ffffff;fill-opacity:1;stroke:none;stroke-width:7.90522;stroke-linecap:round;stroke-linejoin:round;stroke-opacity:1"
       d="m -1063.2883,445.24799 5.4753,-10.42982 c 0,0 10.437,1.23744 15.57,13.25825 5.133,12.02082 -4.7908,20.15255 -4.7908,20.15255 0,0 -4.4486,3.0052 -9.4105,-2.2981 -4.9619,-5.3033 -6.844,-20.68288 -6.844,-20.68288 z"
       id="path25-1-0" />
    <path
       style="fill:#ffffff;fill-opacity:1;stroke:none;stroke-width:12.5757;stroke-linecap:round;stroke-linejoin:round;stroke-opacity:1"
       d="m -1104.3456,448.16038 -9.1201,-15.84599 c 0,0 -17.385,1.88004 -25.935,20.14321 -8.5501,18.26318 7.9799,30.61769 7.9799,30.61769 0,0 7.4101,4.56579 15.6752,-3.4915 8.2651,-8.05728 11.4,-31.42341 11.4,-31.42341 z"
       id="path25-1-0-6" />
    <path
       style="fill:#000000;fill-opacity:1;stroke:none;stroke-width:12.5757;stroke-linecap:round;stroke-linejoin:round;stroke-opacity:1"
       d="m -1104.3456,448.16038 -9.1201,-15.84599 c 0,0 -17.385,1.88004 -25.935,20.14321 -8.5501,18.26318 7.9799,30.61769 7.9799,30.61769 0,0 7.4101,4.56579 15.6752,-3.4915 8.2651,-8.05728 11.4,-31.42341 11.4,-31.42341 z"
       id="path25-1-4" />
    <path
       style="fill:#ffffff;fill-opacity:1;stroke:none;stroke-width:12.325;stroke-linecap:round;stroke-linejoin:round;stroke-opacity:1"
       d="m -1071.0496,446.47657 8.7601,-15.84599 c 0,0 16.6987,1.88004 24.9111,20.14321 8.2126,18.26318 -7.6648,30.61769 -7.6648,30.61769 0,0 -7.1176,4.56579 -15.0565,-3.4915 -7.9388,-8.05728 -10.9499,-31.42341 -10.9499,-31.42341 z"
       id="path25-1-0-6-2" />
    <path
       style="fill:#000000;fill-opacity:1;stroke:none;stroke-width:12.325;stroke-linecap:round;stroke-linejoin:round;stroke-opacity:1"
       d="m -1071.0496,446.47657 8.7601,-15.84599 c 0,0 16.6987,1.88004 24.9111,20.14321 8.2126,18.26318 -7.6648,30.61769 -7.6648,30.61769 0,0 -7.1176,4.56579 -15.0565,-3.4915 -7.9388,-8.05728 -10.9499,-31.42341 -10.9499,-31.42341 z"
       id="path25-1-4-5" />
    <path
       style="fill:#000000;fill-opacity:1;stroke:none;stroke-width:8.03528;stroke-linecap:round;stroke-linejoin:round;stroke-opacity:1"
       d="m -1097.1715,793.84827 -3.956,6.36733 c 0,0 8.3086,31.46625 12.728,32.52691 4.4194,1.06066 13.435,-32.52691 13.435,-32.52691 l -3.5303,-6.4218 z"
       id="path30" />
    <path
       style="fill:#bb8c05;fill-opacity:1;stroke:none;stroke-width:0.856;stroke-linecap:round;stroke-linejoin:round;stroke-dasharray:none;stroke-opacity:1"
       d="m -1089.7266,617.09658 c 0,0 29.239,-25.97158 42.1601,-53.72158 12.921,-27.75 1.25,-61.375 1.25,-61.375 0,0 21.854,18.44496 11.671,62.375 -3.9453,17.02018 -12.2683,25.19569 -22.0055,33.19898 -15.3951,12.65364 -33.0756,19.5226 -33.0756,19.5226 z"
       id="path37" />
    <path
       style="fill:#bb8c05;fill-opacity:1;stroke:none;stroke-width:0.856;stroke-linecap:round;stroke-linejoin:round;stroke-dasharray:none;stroke-opacity:1"
       d="m -1085.0832,793.7938 c 0,0 17.1714,-23.64261 31.0188,-52.13583 8.4809,-17.45065 13.9651,-38.48114 15.9979,-50.45332 5.1241,-30.17878 -13.2215,-87.47302 -13.2215,-87.47302 0,0 2.9732,2.79121 6.8583,8.33148 21.4225,22.97698 25.233,54.43332 23.372,84.31667 -2.2622,19.87906 -11.6672,48.19239 -18.7766,57.93752 -19.7333,27.04934 -45.2489,39.4765 -45.2489,39.4765 z"
       id="path37-6" />
    <path
       style="fill:#000000;fill-opacity:1;stroke:#000000;stroke-width:8.03528;stroke-linecap:round;stroke-linejoin:round;stroke-opacity:1"
       d="m -1144.9681,642.65211 -6.168,31.09294 c 0,0 32.8046,12.12437 67.4529,10.71015 34.6482,-1.41421 59.9261,-10.32627 59.9261,-10.32627 l -1.7224,-31.32653 c 0,0 -34.1621,8.94911 -63.3303,8.94911 -29.1681,0 -56.1583,-9.0994 -56.1583,-9.0994 z"
       id="path36" />
    <path
       style="fill:#000000;fill-opacity:1;stroke:#000000;stroke-width:7.79746;stroke-linecap:round;stroke-linejoin:round;stroke-opacity:1"
       d="m -1149.9342,707.07539 4.9345,33.59768 c 0,0 24.6888,11.0224 57.6698,9.62332 32.9808,-1.39906 59.428,-10.44147 59.428,-10.44147 l 4.2461,-32.45976 c 0,0 -36.6366,10.54785 -64.4012,10.54785 -27.7644,0 -61.8772,-10.86762 -61.8772,-10.86762 z"
       id="path36-2" />
  </g>
</svg>
