<?xml version="1.0" encoding="UTF-8" standalone="no"?>
<!-- Created with Inkscape (http://www.inkscape.org/) -->

<svg
   version="1.1"
   id="svg1"
   width="236.86655"
   height="266.37958"
   viewBox="0 0 236.86655 266.37958"
   sodipodi:docname="Gemini_Generated_Image_dkqwordkqwordkqw.png"
   xmlns:inkscape="http://www.inkscape.org/namespaces/inkscape"
   xmlns:sodipodi="http://sodipodi.sourceforge.net/DTD/sodipodi-0.dtd"
   xmlns="http://www.w3.org/2000/svg"
   xmlns:svg="http://www.w3.org/2000/svg">
  <defs
     id="defs1" />
  <sodipodi:namedview
     id="namedview1"
     pagecolor="#ffffff"
     bordercolor="#000000"
     borderopacity="0.25"
     inkscape:showpageshadow="2"
     inkscape:pageopacity="0.0"
     inkscape:pagecheckerboard="0"
     inkscape:deskcolor="#d1d1d1" />
  <g
     inkscape:groupmode="layer"
     inkscape:label="Image"
     id="g1"
     transform="translate(706.53198,-398.401)">
    <path
       style="fill:#fce7a8;fill-opacity:1;stroke:#000000;stroke-width:8.03528;stroke-linecap:round;stroke-linejoin:round;stroke-opacity:1"
       d="m -561.25,572.1607 24.5,-8.75 c 0,0 30,-23.25 49.5,-0.25 19.5,23 12.25,32.75 12.25,32.75 0,0 5.75,9.25 -12.75,25.5 -18.5,16.25 -20.25,25 -60.75,32.75 -40.5,7.75 -23.25,10.25 -59.75,-1.25 -36.5,-11.5 -41.25,-20 -41.25,-20 0,0 -23.5,-5.25 -35,-41.5 -11.5,-36.25 -13.5,-41.75 -13.5,-41.75 0,0 -8.75,-16.75 -1.5,-29 7.25,-12.25 -6.75,-33.75 16.25,-47.375 23,-13.625 5.125,-33.875 32.75,-42.625 27.625,-8.75 42.75,-17.875 42.75,-17.875 0,0 25.375,-19.25 55,-5.375 29.625,13.875 33.75,-5 63.375,37 29.625,42 -30,60.375 -30,60.375 0,0 -38.75,-13.375 -53,-9.5 -14.25,3.875 -67.25,53.75 11.125,76.875 z"
       id="path12" />
    <path
       style="fill:#f9d053;fill-opacity:1;stroke:none;stroke-width:8.03528;stroke-linecap:round;stroke-linejoin:round;stroke-opacity:1"
       d="m -520.75,566.6607 c 4.76117,6.66286 -10.501,7.57371 -12.75,21 -7.7389,6.54567 -10.5359,-7.8686 -28.25,11.25 -10.6412,0.84572 0.5,-16.75 -31.25,-7 -10.2666,-10.28896 -0.9343,-19.55836 -33.2186,-14.75291 -2.8377,0.42238 -5.8542,0.0606 -5.2082,-2.83808 19.3107,-27.15091 -0.4218,-30.80284 -14.8239,-39.51118 -2.0055,-1.21261 -1.8894,-4.07621 -0.2493,-5.89783 43.647,-17.58179 11.9382,-34.9494 14.25,-46.75 0.3465,-2.99735 2.7995,-2.5619 4.4261,-2.25233 26.7165,5.08485 31.6252,-6.44368 37.1901,-18.06177 0.5492,-1.14655 1.2127,-2.4415 3.3838,-1.1859 9.4167,16.11265 30.3249,11.7882 45.25,18.25 11.4621,4.96251 34,15.75 34,15.75 0,0 -1.76515,3.03663 -11.64146,5.62249 -7.53919,1.97395 -26.40448,-11.61954 -47.50283,-9.43315 -36.85315,5.17144 -66.7043,69.02171 6.6014,85.12348 27.16518,-8.1728 33.38867,-18.27498 39.79289,-9.31282 z"
       id="path13"
       sodipodi:nodetypes="scccscsccsscacsccs" />
    <path
       style="fill:#f9d053;fill-opacity:1;stroke:none;stroke-width:8.03528;stroke-linecap:round;stroke-linejoin:round;stroke-opacity:1"
       d="m -546.54874,570.99013 c 0,0 22.90036,21.52304 35.12474,66.22397"
       id="path14"
       sodipodi:nodetypes="cc" />
    <path
       style="fill:#f9d053;fill-opacity:1;stroke:none;stroke-width:8.03528;stroke-linecap:round;stroke-linejoin:round;stroke-opacity:1"
       d="m -560.54289,575.97352 c 0,0 5.39836,25.48113 -21.82856,80.73566"
       id="path15"
       sodipodi:nodetypes="cc" />
    <path
       style="fill:#f9d053;fill-opacity:1;stroke:none;stroke-width:8.03528;stroke-linecap:round;stroke-linejoin:round;stroke-opacity:1"
       d="m -578.33158,573.21071 c 0,0 -13.59093,29.89119 -68.664,56.48788"
       id="path16"
       sodipodi:nodetypes="cc" />
    <path
       style="fill:#f9d053;fill-opacity:1;stroke:none;stroke-width:8.03528;stroke-linecap:round;stroke-linejoin:round;stroke-opacity:1"
       d="m -595.59084,558.92438 c 0,0 -22.55014,21.70721 -85.10846,31.33727"
       id="path17"
       sodipodi:nodetypes="cc" />
    <path
       style="fill:#f9d053;fill-opacity:1;stroke:none;stroke-width:8.03528;stroke-linecap:round;stroke-linejoin:round;stroke-opacity:1"
       d="m -602.49631,553.80124 c 0,0 -27.06212,-28.39742 -92.33795,-35.66611"
       id="path18"
       sodipodi:nodetypes="cc" />
    <path
       style="fill:#f9d053;fill-opacity:1;stroke:none;stroke-width:8.03528;stroke-linecap:round;stroke-linejoin:round;stroke-opacity:1"
       d="m -587.39271,497.19756 c 0,0 -59.62388,-10.69526 -81.22506,-34.25664"
       id="path19"
       sodipodi:nodetypes="cc" />
    <path
       style="fill:#f9d053;fill-opacity:1;stroke:none;stroke-width:4.35544;stroke-linecap:round;stroke-linejoin:round;stroke-opacity:1"
       d="m -583.58838,497.19756 c 0,0 -20.10142,-55.63156 -9.44963,-87.51757"
       id="path20"
       sodipodi:nodetypes="cc" />
    <path
       style="fill:#f9bf19;fill-opacity:1;stroke:#000000;stroke-width:0.856028;stroke-linecap:round;stroke-linejoin:round;stroke-dasharray:none;stroke-opacity:1"
       id="path21"
       sodipodi:type="arc"
       sodipodi:cx="-17.317482"
       sodipodi:cy="692.05292"
       sodipodi:rx="11.133066"
       sodipodi:ry="8.1223679"
       sodipodi:start="0"
       sodipodi:end="6.253899"
       sodipodi:open="true"
       sodipodi:arc-type="arc"
       d="m -6.1844158,692.05292 a 11.133066,8.1223679 0 0 1 -11.0515552,8.12215 11.133066,8.1223679 0 0 1 -11.213384,-8.00322 11.133066,8.1223679 0 0 1 10.887358,-8.23934 11.133066,8.1223679 0 0 1 11.3728072,7.88257"
       transform="matrix(0.66076466,0.75059314,-0.74301261,0.66927742,0,0)" />
    <path
       style="fill:#000000;fill-opacity:1;stroke:none;stroke-width:6.09179;stroke-linecap:round;stroke-linejoin:round;stroke-opacity:1"
       id="path21-9"
       sodipodi:type="arc"
       sodipodi:cx="70.629158"
       sodipodi:cy="700.77924"
       sodipodi:rx="11.145566"
       sodipodi:ry="8.2082767"
       sodipodi:start="0"
       sodipodi:end="6.253899"
       sodipodi:open="true"
       sodipodi:arc-type="arc"
       d="m 81.774724,700.77924 a 11.145566,8.2082767 0 0 1 -11.063964,8.20805 11.145566,8.2082767 0 0 1 -11.225973,-8.08786 11.145566,8.2082767 0 0 1 10.899581,-8.32649 11.145566,8.2082767 0 0 1 11.385577,7.96594"
       transform="matrix(0.6906793,0.72316119,-0.76938525,0.63878504,0,0)" />
    <path
       style="fill:#000000;fill-opacity:1;stroke:none;stroke-width:6.09179;stroke-linecap:round;stroke-linejoin:round;stroke-opacity:1"
       id="path21-9-6"
       sodipodi:type="arc"
       sodipodi:cx="365.04883"
       sodipodi:cy="610.77545"
       sodipodi:rx="11.145566"
       sodipodi:ry="8.2082767"
       sodipodi:start="0"
       sodipodi:end="6.253899"
       sodipodi:open="true"
       sodipodi:arc-type="arc"
       d="m 376.19439,610.77545 a 11.145566,8.2082767 0 0 1 -11.06396,8.20806 11.145566,8.2082767 0 0 1 -11.22597,-8.08787 11.145566,8.2082767 0 0 1 10.89958,-8.32649 11.145566,8.2082767 0 0 1 11.38557,7.96595"
       transform="matrix(0.30127608,0.95353696,-0.97215912,0.23432167,0,0)" />
  </g>
</svg>
