<?xml version="1.0" encoding="UTF-8" standalone="no"?>
<!-- Created with Inkscape (http://www.inkscape.org/) -->

<svg
   version="1.1"
   id="svg1"
   width="114.50589"
   height="233.58218"
   viewBox="0 0 114.50589 233.58218"
   sodipodi:docname="Gemini_Generated_Image_dkqwordkqwordkqw.png"
   xmlns:inkscape="http://www.inkscape.org/namespaces/inkscape"
   xmlns:sodipodi="http://sodipodi.sourceforge.net/DTD/sodipodi-0.dtd"
   xmlns="http://www.w3.org/2000/svg"
   xmlns:svg="http://www.w3.org/2000/svg">
  <defs
     id="defs1" />
  <sodipodi:namedview
     id="namedview1"
     pagecolor="#ffffff"
     bordercolor="#000000"
     borderopacity="0.25"
     inkscape:showpageshadow="2"
     inkscape:pageopacity="0.0"
     inkscape:pagecheckerboard="0"
     inkscape:deskcolor="#d1d1d1" />
  <g
     inkscape:groupmode="layer"
     inkscape:label="Image"
     id="g1"
     transform="translate(283.07153,-431.19839)">
    <path
       style="fill:#ffffff;fill-opacity:1;stroke:#000000;stroke-width:9.70426;stroke-linecap:round;stroke-linejoin:round;stroke-opacity:1"
       d="m -262.11146,641.04519 c 0,0 -25.27323,-28.54223 -12.50469,-125.1589 12.76853,-96.61664 56.50925,-78.62537 56.50925,-78.62537 38.06937,11.8953 44.61678,107.6119 44.4735,124.09099 0,0 5.38385,81.4794 -37.95962,95.72408 -35.8719,11.78918 -50.51844,-16.0308 -50.51844,-16.0308 z"
       id="path10"
       sodipodi:nodetypes="csccsc" />
    <path
       style="fill:#d6d6d6;fill-opacity:1;stroke:none;stroke-width:8.03528;stroke-linecap:round;stroke-linejoin:round;stroke-opacity:1"
       d="m -262.51339,630.91603 c 0,0 21.58626,11.68177 39.33281,5.3033 30.49398,-10.96016 36.76306,-65.68683 37.03472,-76.19076 0.26517,-10.25305 2.47487,-50.38136 2.47487,-50.38136 l 4.5962,36.59278 0.7071,21.92031 -0.17677,10.78338 c 0,0 0.11508,71.94732 -43.92641,75.99437 -32.70369,3.0052 -40.04252,-24.02202 -40.04252,-24.02202 z"
       id="path11"
       sodipodi:nodetypes="cssccccsc" />
  </g>
</svg>
