<svg xmlns="http://www.w3.org/2000/svg" viewBox="0 0 200 200" width="200" height="200">
  <!-- Background circle -->
  <circle cx="100" cy="100" r="95" fill="#FFF8E7" stroke="#F5D77A" stroke-width="2"/>

  <!-- Sun -->
  <circle cx="155" cy="35" r="12" fill="#FFD54F" opacity="0.5"/>
  <g stroke="#FFD54F" stroke-width="1" opacity="0.3">
    <line x1="155" y1="18" x2="155" y2="14"/>
    <line x1="155" y1="52" x2="155" y2="56"/>
    <line x1="138" y1="35" x2="134" y2="35"/>
    <line x1="172" y1="35" x2="176" y2="35"/>
    <line x1="143" y1="23" x2="140" y2="20"/>
    <line x1="167" y1="23" x2="170" y2="20"/>
    <line x1="143" y1="47" x2="140" y2="50"/>
    <line x1="167" y1="47" x2="170" y2="50"/>
  </g>

  <!-- Ground / grass -->
  <ellipse cx="100" cy="172" rx="85" ry="9" fill="#8BC34A" opacity="0.5"/>
  <path d="M30 172 Q33 159 36 172" fill="#66BB6A" opacity="0.6"/>
  <path d="M50 172 Q53 157 56 172" fill="#66BB6A" opacity="0.7"/>
  <path d="M70 172 Q73 160 76 172" fill="#66BB6A" opacity="0.5"/>
  <path d="M125 172 Q128 158 131 172" fill="#66BB6A" opacity="0.6"/>
  <path d="M145 172 Q148 155 151 172" fill="#66BB6A" opacity="0.7"/>
  <path d="M162 172 Q165 162 168 172" fill="#66BB6A" opacity="0.5"/>

  <!-- Large beehive - three stacked boxes -->
  <!-- Bottom box (brood) -->
  <rect x="58" y="137" width="84" height="30" rx="3" fill="#F5C542" stroke="#D4A017" stroke-width="1.5"/>
  <rect x="58" y="137" width="84" height="30" rx="3" fill="url(#hiveGradLg)"/>
  <line x1="60" y1="147" x2="140" y2="147" stroke="#D4A017" stroke-width="0.8" opacity="0.4"/>
  <line x1="60" y1="157" x2="140" y2="157" stroke="#D4A017" stroke-width="0.8" opacity="0.4"/>

  <!-- Middle box (honey super) -->
  <rect x="58" y="104" width="84" height="30" rx="3" fill="#FFCA28" stroke="#D4A017" stroke-width="1.5"/>
  <rect x="58" y="104" width="84" height="30" rx="3" fill="url(#hiveGradLg)"/>
  <line x1="60" y1="114" x2="140" y2="114" stroke="#D4A017" stroke-width="0.8" opacity="0.4"/>
  <line x1="60" y1="124" x2="140" y2="124" stroke="#D4A017" stroke-width="0.8" opacity="0.4"/>

  <!-- Top box (honey super) -->
  <rect x="58" y="71" width="84" height="30" rx="3" fill="#FFD54F" stroke="#D4A017" stroke-width="1.5"/>
  <rect x="58" y="71" width="84" height="30" rx="3" fill="url(#hiveGradLg)"/>
  <line x1="60" y1="81" x2="140" y2="81" stroke="#D4A017" stroke-width="0.8" opacity="0.4"/>
  <line x1="60" y1="91" x2="140" y2="91" stroke="#D4A017" stroke-width="0.8" opacity="0.4"/>

  <!-- Roof -->
  <path d="M50 71 L100 50 L150 71 Z" fill="#8D6E63" stroke="#6D4C41" stroke-width="1.5"/>
  <path d="M50 71 L100 50 L150 71 Z" fill="url(#roofGradLg)"/>

  <!-- Hive entrance -->
  <ellipse cx="100" cy="160" rx="10" ry="12" fill="#5D4037"/>

  <!-- Stand -->
  <rect x="55" y="167" width="90" height="5" rx="2" fill="#8D6E63"/>
  <rect x="63" y="172" width="5" height="11" fill="#8D6E63"/>
  <rect x="132" y="172" width="5" height="11" fill="#8D6E63"/>

  <!-- Bee 1 - top left -->
  <g transform="translate(32, 55)">
    <ellipse cx="-3" cy="-4.5" rx="5.5" ry="3.2" fill="white" opacity="0.7" transform="rotate(-25)"/>
    <ellipse cx="5" cy="-4.5" rx="5.5" ry="3.2" fill="white" opacity="0.7" transform="rotate(25)"/>
    <ellipse cx="0" cy="0" rx="6.5" ry="4.5" fill="#FFD54F"/>
    <rect x="-2" y="-4.5" width="2.2" height="9" rx="1" fill="#5D4037" opacity="0.7"/>
    <rect x="1.5" y="-4" width="2.2" height="8" rx="1" fill="#5D4037" opacity="0.7"/>
    <circle cx="-7.5" cy="0" r="4" fill="#FFD54F"/>
    <circle cx="-9.5" cy="-1" r="1.2" fill="#333"/>
    <path d="M-10 1 Q-7.5 3 -5.5 1" fill="none" stroke="#333" stroke-width="0.6" stroke-linecap="round"/>
    <line x1="-10" y1="-3.5" x2="-13" y2="-7" stroke="#5D4037" stroke-width="0.6"/>
    <circle cx="-13" cy="-7.5" r="0.8" fill="#5D4037"/>
    <line x1="-6.5" y1="-3.5" x2="-7.5" y2="-8" stroke="#5D4037" stroke-width="0.6"/>
    <circle cx="-7.5" cy="-8.5" r="0.8" fill="#5D4037"/>
    <path d="M6.5 0 L9 0" stroke="#5D4037" stroke-width="0.7" stroke-linecap="round"/>
  </g>

  <!-- Bee 2 - top right -->
  <g transform="translate(170, 48) scale(-1,1)">
    <ellipse cx="-3" cy="-4.5" rx="5.5" ry="3.2" fill="white" opacity="0.7" transform="rotate(-25)"/>
    <ellipse cx="5" cy="-4.5" rx="5.5" ry="3.2" fill="white" opacity="0.7" transform="rotate(25)"/>
    <ellipse cx="0" cy="0" rx="6.5" ry="4.5" fill="#FFD54F"/>
    <rect x="-2" y="-4.5" width="2.2" height="9" rx="1" fill="#5D4037" opacity="0.7"/>
    <rect x="1.5" y="-4" width="2.2" height="8" rx="1" fill="#5D4037" opacity="0.7"/>
    <circle cx="-7.5" cy="0" r="4" fill="#FFD54F"/>
    <circle cx="-9.5" cy="-1" r="1.2" fill="#333"/>
    <path d="M-10 1 Q-7.5 3 -5.5 1" fill="none" stroke="#333" stroke-width="0.6" stroke-linecap="round"/>
    <line x1="-10" y1="-3.5" x2="-13" y2="-7" stroke="#5D4037" stroke-width="0.6"/>
    <circle cx="-13" cy="-7.5" r="0.8" fill="#5D4037"/>
    <line x1="-6.5" y1="-3.5" x2="-7.5" y2="-8" stroke="#5D4037" stroke-width="0.6"/>
    <circle cx="-7.5" cy="-8.5" r="0.8" fill="#5D4037"/>
    <path d="M6.5 0 L9 0" stroke="#5D4037" stroke-width="0.7" stroke-linecap="round"/>
  </g>

  <!-- Bee 3 - middle right -->
  <g transform="translate(158, 95) scale(-0.8, 0.8)">
    <ellipse cx="-3" cy="-4.5" rx="5.5" ry="3.2" fill="white" opacity="0.7" transform="rotate(-25)"/>
    <ellipse cx="5" cy="-4.5" rx="5.5" ry="3.2" fill="white" opacity="0.7" transform="rotate(25)"/>
    <ellipse cx="0" cy="0" rx="6.5" ry="4.5" fill="#FFD54F"/>
    <rect x="-2" y="-4.5" width="2.2" height="9" rx="1" fill="#5D4037" opacity="0.7"/>
    <rect x="1.5" y="-4" width="2.2" height="8" rx="1" fill="#5D4037" opacity="0.7"/>
    <circle cx="-7.5" cy="0" r="4" fill="#FFD54F"/>
    <circle cx="-9.5" cy="-1" r="1.2" fill="#333"/>
    <path d="M-10 1 Q-7.5 3 -5.5 1" fill="none" stroke="#333" stroke-width="0.6" stroke-linecap="round"/>
    <line x1="-10" y1="-3.5" x2="-13" y2="-7" stroke="#5D4037" stroke-width="0.6"/>
    <circle cx="-13" cy="-7.5" r="0.8" fill="#5D4037"/>
    <line x1="-6.5" y1="-3.5" x2="-7.5" y2="-8" stroke="#5D4037" stroke-width="0.6"/>
    <circle cx="-7.5" cy="-8.5" r="0.8" fill="#5D4037"/>
  </g>

  <!-- Bee 4 - near entrance -->
  <g transform="translate(80, 148) scale(0.65)">
    <ellipse cx="-3" cy="-4.5" rx="5.5" ry="3.2" fill="white" opacity="0.7" transform="rotate(-25)"/>
    <ellipse cx="5" cy="-4.5" rx="5.5" ry="3.2" fill="white" opacity="0.7" transform="rotate(25)"/>
    <ellipse cx="0" cy="0" rx="6.5" ry="4.5" fill="#FFD54F"/>
    <rect x="-2" y="-4.5" width="2.2" height="9" rx="1" fill="#5D4037" opacity="0.7"/>
    <rect x="1.5" y="-4" width="2.2" height="8" rx="1" fill="#5D4037" opacity="0.7"/>
    <circle cx="-7.5" cy="0" r="4" fill="#FFD54F"/>
    <circle cx="-9.5" cy="-1" r="1.2" fill="#333"/>
    <path d="M-10 1 Q-7.5 3 -5.5 1" fill="none" stroke="#333" stroke-width="0.6" stroke-linecap="round"/>
    <line x1="-10" y1="-3.5" x2="-13" y2="-7" stroke="#5D4037" stroke-width="0.6"/>
    <circle cx="-13" cy="-7.5" r="0.8" fill="#5D4037"/>
    <line x1="-6.5" y1="-3.5" x2="-7.5" y2="-8" stroke="#5D4037" stroke-width="0.6"/>
    <circle cx="-7.5" cy="-8.5" r="0.8" fill="#5D4037"/>
  </g>

  <!-- Bee 5 - middle left -->
  <g transform="translate(38, 105) scale(0.75)">
    <ellipse cx="-3" cy="-4.5" rx="5.5" ry="3.2" fill="white" opacity="0.7" transform="rotate(-25)"/>
    <ellipse cx="5" cy="-4.5" rx="5.5" ry="3.2" fill="white" opacity="0.7" transform="rotate(25)"/>
    <ellipse cx="0" cy="0" rx="6.5" ry="4.5" fill="#FFD54F"/>
    <rect x="-2" y="-4.5" width="2.2" height="9" rx="1" fill="#5D4037" opacity="0.7"/>
    <rect x="1.5" y="-4" width="2.2" height="8" rx="1" fill="#5D4037" opacity="0.7"/>
    <circle cx="-7.5" cy="0" r="4" fill="#FFD54F"/>
    <circle cx="-9.5" cy="-1" r="1.2" fill="#333"/>
    <path d="M-10 1 Q-7.5 3 -5.5 1" fill="none" stroke="#333" stroke-width="0.6" stroke-linecap="round"/>
    <line x1="-10" y1="-3.5" x2="-13" y2="-7" stroke="#5D4037" stroke-width="0.6"/>
    <circle cx="-13" cy="-7.5" r="0.8" fill="#5D4037"/>
    <line x1="-6.5" y1="-3.5" x2="-7.5" y2="-8" stroke="#5D4037" stroke-width="0.6"/>
    <circle cx="-7.5" cy="-8.5" r="0.8" fill="#5D4037"/>
    <path d="M6.5 0 L9 0" stroke="#5D4037" stroke-width="0.7" stroke-linecap="round"/>
  </g>

  <!-- Flowers left -->
  <g transform="translate(28, 160)">
    <line x1="0" y1="0" x2="0" y2="12" stroke="#66BB6A" stroke-width="1.5"/>
    <circle cx="0" cy="0" r="4" fill="#E91E63" opacity="0.7"/>
    <circle cx="0" cy="-3.5" r="2.2" fill="#F48FB1" opacity="0.8"/>
    <circle cx="3.2" cy="-1" r="2.2" fill="#F48FB1" opacity="0.8"/>
    <circle cx="3.2" cy="2.5" r="2.2" fill="#F48FB1" opacity="0.8"/>
    <circle cx="0" cy="3.5" r="2.2" fill="#F48FB1" opacity="0.8"/>
    <circle cx="-3.2" cy="2.5" r="2.2" fill="#F48FB1" opacity="0.8"/>
    <circle cx="-3.2" cy="-1" r="2.2" fill="#F48FB1" opacity="0.8"/>
    <circle cx="0" cy="0" r="2" fill="#E91E63" opacity="0.7"/>
  </g>
  <g transform="translate(42, 164)">
    <line x1="0" y1="0" x2="0" y2="8" stroke="#66BB6A" stroke-width="1.2"/>
    <circle cx="0" cy="0" r="3" fill="#FFB74D"/>
    <circle cx="0" cy="-2.5" r="1.5" fill="#FFF176" opacity="0.8"/>
    <circle cx="2.2" cy="0" r="1.5" fill="#FFF176" opacity="0.8"/>
    <circle cx="0" cy="2.5" r="1.5" fill="#FFF176" opacity="0.8"/>
    <circle cx="-2.2" cy="0" r="1.5" fill="#FFF176" opacity="0.8"/>
    <circle cx="0" cy="0" r="1.3" fill="#FFB74D"/>
  </g>

  <!-- Flowers right -->
  <g transform="translate(168, 158)">
    <line x1="0" y1="0" x2="0" y2="14" stroke="#66BB6A" stroke-width="1.5"/>
    <circle cx="0" cy="0" r="4.5" fill="#7E57C2" opacity="0.6"/>
    <circle cx="0" cy="-4" r="2.5" fill="#B39DDB" opacity="0.7"/>
    <circle cx="3.5" cy="-1" r="2.5" fill="#B39DDB" opacity="0.7"/>
    <circle cx="3.5" cy="3" r="2.5" fill="#B39DDB" opacity="0.7"/>
    <circle cx="0" cy="4" r="2.5" fill="#B39DDB" opacity="0.7"/>
    <circle cx="-3.5" cy="3" r="2.5" fill="#B39DDB" opacity="0.7"/>
    <circle cx="-3.5" cy="-1" r="2.5" fill="#B39DDB" opacity="0.7"/>
    <circle cx="0" cy="0" r="2.2" fill="#7E57C2" opacity="0.6"/>
  </g>
  <g transform="translate(155, 163)">
    <line x1="0" y1="0" x2="0" y2="9" stroke="#66BB6A" stroke-width="1.2"/>
    <circle cx="0" cy="0" r="3" fill="#E91E63" opacity="0.6"/>
    <circle cx="0" cy="-2.5" r="1.5" fill="#F48FB1" opacity="0.7"/>
    <circle cx="2.2" cy="0" r="1.5" fill="#F48FB1" opacity="0.7"/>
    <circle cx="0" cy="2.5" r="1.5" fill="#F48FB1" opacity="0.7"/>
    <circle cx="-2.2" cy="0" r="1.5" fill="#F48FB1" opacity="0.7"/>
    <circle cx="0" cy="0" r="1.3" fill="#E91E63" opacity="0.6"/>
  </g>

  <!-- Honeycomb decorations -->
  <g transform="translate(25, 33)" opacity="0.25">
    <polygon points="0,-6 5.2,-3 5.2,3 0,6 -5.2,3 -5.2,-3" fill="#F5C542" stroke="#D4A017" stroke-width="0.5"/>
  </g>
  <g transform="translate(36, 25)" opacity="0.2">
    <polygon points="0,-5 4.3,-2.5 4.3,2.5 0,5 -4.3,2.5 -4.3,-2.5" fill="#F5C542" stroke="#D4A017" stroke-width="0.5"/>
  </g>
  <g transform="translate(36, 39)" opacity="0.15">
    <polygon points="0,-5 4.3,-2.5 4.3,2.5 0,5 -4.3,2.5 -4.3,-2.5" fill="#F5C542" stroke="#D4A017" stroke-width="0.5"/>
  </g>

  <!-- Honey drip from entrance - cute detail -->
  <path d="M96 168 Q95 174 96 178 Q97 182 96 183" stroke="#F5C542" stroke-width="1.5" fill="none" opacity="0.6"/>
  <circle cx="96" cy="184" r="2" fill="#F5C542" opacity="0.6"/>

  <!-- Label -->
  <text x="100" y="28" text-anchor="middle" font-family="sans-serif" font-size="11" font-weight="bold" fill="#8D6E63">GRANDE</text>

  <!-- Crown on top of hive - this is a big colony! -->
  <g transform="translate(100, 47)" opacity="0.7">
    <path d="M-8 0 L-6 -6 L-3 -2 L0 -8 L3 -2 L6 -6 L8 0 Z" fill="#FFD54F" stroke="#D4A017" stroke-width="0.5"/>
  </g>

  <defs>
    <linearGradient id="hiveGradLg" x1="0" y1="0" x2="1" y2="1">
      <stop offset="0%" stop-color="#FFE082" stop-opacity="0.3"/>
      <stop offset="100%" stop-color="#F5C542" stop-opacity="0"/>
    </linearGradient>
    <linearGradient id="roofGradLg" x1="0" y1="0" x2="0" y2="1">
      <stop offset="0%" stop-color="#A1887F" stop-opacity="0.3"/>
      <stop offset="100%" stop-color="#6D4C41" stop-opacity="0"/>
    </linearGradient>
  </defs>
</svg>