<?xml version="1.0" encoding="UTF-8" standalone="no"?>
<svg
   xmlns:dc="http://purl.org/dc/elements/1.1/"
   xmlns:cc="http://creativecommons.org/ns#"
   xmlns:rdf="http://www.w3.org/1999/02/22-rdf-syntax-ns#"
   xmlns:svg="http://www.w3.org/2000/svg"
   xmlns="http://www.w3.org/2000/svg"
   xmlns:sodipodi="http://sodipodi.sourceforge.net/DTD/sodipodi-0.dtd"
   xmlns:inkscape="http://www.inkscape.org/namespaces/inkscape"
   version="1.1"
   id="svg2"
   width="320"
   height="296.32001"
   viewBox="0 0 320 296.32001"
   sodipodi:docname="honeycomb.svg"
   inkscape:version="1.0.2-2 (e86c870879, 2021-01-15)">
  <metadata
     id="metadata8">
    <rdf:RDF>
      <cc:Work
         rdf:about="">
        <dc:format>image/svg+xml</dc:format>
        <dc:type
           rdf:resource="http://purl.org/dc/dcmitype/StillImage" />
        <dc:title></dc:title>
      </cc:Work>
    </rdf:RDF>
  </metadata>
  <defs
     id="defs6" />
  <sodipodi:namedview
     pagecolor="#ffffff"
     bordercolor="#666666"
     borderopacity="1"
     objecttolerance="10"
     gridtolerance="10"
     guidetolerance="10"
     inkscape:pageopacity="0"
     inkscape:pageshadow="2"
     inkscape:window-width="984"
     inkscape:window-height="480"
     id="namedview4"
     showgrid="false"
     inkscape:zoom="0.34590982"
     inkscape:cx="159.90307"
     inkscape:cy="47.752436"
     inkscape:window-x="0"
     inkscape:window-y="0"
     inkscape:window-maximized="0"
     inkscape:current-layer="g10" />
  <g
     inkscape:groupmode="layer"
     inkscape:label="Image"
     id="g10">
    <path
       style="fill:#000000;stroke-width:0.32"
       d="m 15.459134,287.44001 c -3.666013,-6.36896 -5.288837,-8.90646 -5.738927,-8.97357 -0.4983977,-0.0743 -0.6247302,0.0903 -0.6138748,0.8 0.013408,0.87658 -0.025251,0.8954 -2.0338298,0.99007 -1.1413296,0.0538 -2.1964246,-0.0524 -2.384,-0.24 -0.2353366,-0.23534 -0.1489034,-0.34789 0.2874976,-0.37439 0.3432,-0.0208 0.732,-0.0208 0.864,0 0.132,0.0208 0.24,-0.25011 0.24,-0.60211 0,-0.59509 -0.2133334,-0.64 -3.04,-0.64 -2.4888889,0 -3.04,-0.087 -3.04,-0.48 0,-0.4065 0.77761616,-0.48 5.0785453,-0.48 h 5.0785457 l 5.161454,-8.94711 c 2.8388,-4.92091 5.158948,-9.06091 5.155885,-9.2 -0.0031,-0.13909 -2.295324,-4.21289 -5.093911,-9.05289 C 10.969423,242.61127 9.28,240.21208 9.28,241.57655 c 0,0.1889 -0.216,0.34346 -0.48,0.34346 -0.32,0 -0.48,0.32 -0.48,0.96 0,0.56188 -0.1682538,0.96 -0.4057168,0.96 -0.6717718,0 -2.7942832,-1.58871 -2.7942832,-2.09154 0,-0.37224 -0.5257965,-0.46846 -2.56,-0.46846 -2.06222221,0 -2.56,-0.0933 -2.56,-0.48 0,-0.39103 0.53257107,-0.48 2.8731396,-0.48 H 5.746279 l -0.3601865,-0.79053 c -0.4516083,-0.99117 0.1666518,-1.89831 1.1232889,-1.64815 0.3487492,0.0912 0.8888084,0.0295 1.2001312,-0.13712 1.1080637,-0.59301 2.0936772,1.27333 1.1704874,2.21642 -0.3228374,0.3298 -0.2249696,0.38844 0.5073341,0.304 0.8227949,-0.0949 1.3813179,-0.92455 5.9944299,-8.90462 2.797903,-4.84 5.089602,-8.92191 5.092666,-9.0709 0.0031,-0.14899 -2.314113,-4.28899 -5.149282,-9.2 l -5.154851,-8.9291 H 5.0851485 C 0.81629971,204.16001 0,204.08423 0,203.68793 c 0,-0.39295 0.86522032,-0.48681 5.1626176,-0.56 l 5.1626174,-0.0879 5.077383,-8.79272 c 2.79256,-4.836 5.065766,-8.94 5.051569,-9.12 -0.0142,-0.18001 -2.283002,-4.21528 -5.04179,-8.96728 l -5.015977,-8.64 -5.1982101,-0.0879 C 0.28739912,167.34901 0,167.30964 0,166.72001 c 0,-0.58958 0.28730877,-0.62902 5.1875395,-0.71208 l 5.1875395,-0.0879 5.052461,-8.74545 c 2.778853,-4.80999 5.05246,-8.85835 5.05246,-8.99634 0,-0.13799 -2.281924,-4.19454 -5.070943,-9.01455 L 10.338113,130.4 5.1690566,130.31208 C 0.86598381,130.23888 0,130.14506 0,129.75208 0,129.35581 0.81558675,129.28 5.0791354,129.28 h 5.0791356 l 5.160864,-8.95792 c 2.838476,-4.92686 5.158204,-9.06686 5.154951,-9.2 -0.0033,-0.13314 -2.290431,-4.20208 -5.082618,-9.04208 L 10.314763,93.280003 5.1573814,93.192077 C 0.86459946,93.11889 0,93.025011 0,92.632077 0,92.235757 0.81715053,92.160003 5.0923238,92.160003 H 10.184648 L 15.332324,83.24792 C 18.163546,78.346271 20.48,74.236019 20.48,74.114025 c 0,-0.121994 -2.317797,-4.247555 -5.150661,-9.167914 l -5.15066,-8.946109 H 5.0893392 C 0.81679664,56.000002 0,55.924239 0,55.527928 c 0,-0.392963 0.86541885,-0.486806 5.1642918,-0.56 l 5.1642922,-0.08793 5.074293,-8.8 c 2.790862,-4.840001 5.07493,-8.903178 5.075708,-9.029287 7.79e-4,-0.126106 -2.325311,-4.266106 -5.169088,-9.2 l -5.170503,-8.97071 H 5.0694966 C 0.81444384,18.880001 0,18.804159 0,18.407927 c 0,-0.393048 0.86765341,-0.486792 5.183137,-0.56 L 10.366274,17.760001 15.492023,8.8800003 20.617772,0 H 32 43.382227 l 5.126154,8.8800003 5.12615,8.8800007 H 64 74.365469 L 79.491619,8.8800003 84.617773,0 H 96.009635 107.4015 l 5.11838,8.8800003 5.11837,8.8800007 h 10.36361 10.36361 L 143.49162,8.8800003 148.61777,0 h 11.39187 11.39186 l 5.11838,8.8800003 5.11837,8.8800007 h 10.36361 10.36361 L 207.49162,8.8800003 212.61777,0 h 11.38305 11.38304 l 5.13024,8.8800003 5.13024,8.8800007 h 10.36057 10.36056 L 271.49162,8.8800003 276.61777,0 h 11.39187 11.39186 l 5.11797,8.8800003 5.11797,8.8800007 5.18128,0.08793 c 4.31385,0.07321 5.18128,0.16696 5.18128,0.56 0,0.396232 -0.81444,0.472074 -5.0695,0.472074 h -5.06949 l -5.17051,8.970714 c -2.84377,4.933894 -5.16784,9.073894 -5.16459,9.2 0.003,0.126109 2.29044,4.189286 5.08262,9.029287 l 5.07671,8.8 5.15738,0.08793 c 4.29278,0.07319 5.15738,0.167066 5.15738,0.56 0,0.396311 -0.8168,0.472074 -5.08934,0.472074 h -5.08934 l -5.15066,8.946109 c -2.83286,4.920359 -5.15066,9.045907 -5.15066,9.167882 0,0.121978 2.31901,4.23223 5.15336,9.133895 l 5.15337,8.912115 h 5.08663 c 4.27016,0 5.08664,0.07577 5.08664,0.472074 0,0.392925 -0.86435,0.486816 -5.15528,0.56 l -5.15528,0.08793 -5.07722,8.799995 c -2.79247,4.84 -5.08059,8.91012 -5.08472,9.0447 -0.004,0.13458 2.31813,4.27458 5.16057,9.2 l 5.16808,8.9553 h 5.07192 c 4.2572,0 5.07193,0.0758 5.07193,0.47208 0,0.393 -0.86631,0.4868 -5.1718,0.56 l -5.1718,0.0879 -5.0682,8.78856 c -2.78751,4.83371 -5.0682,8.89125 -5.0682,9.01676 0,0.1255 2.27679,4.16265 5.05953,8.97144 l 5.05953,8.74325 5.18047,0.0879 c 4.89322,0.0831 5.18047,0.12254 5.18047,0.71208 0,0.58957 -0.28731,0.62901 -5.18754,0.71207 l -5.18754,0.0879 -5.05246,8.74544 c -2.77885,4.81 -5.05246,8.84301 -5.05246,8.96225 0,0.11924 2.28092,4.17579 5.06872,9.01456 l 5.06871,8.79775 5.17129,0.0879 c 4.30503,0.0732 5.17128,0.16701 5.17128,0.56 0,0.39627 -0.81552,0.47208 -5.07854,0.47208 h -5.07855 l -5.16145,8.94711 c -2.8388,4.92091 -5.16146,9.04647 -5.16146,9.16791 0,0.12144 2.31645,4.23125 5.14768,9.13289 l 5.14767,8.91209 h 5.09233 c 4.31317,0 5.09232,0.0734 5.09232,0.48 0,0.40655 -0.77895,0.48 -5.09052,0.48 h -5.09053 l -4.99596,8.63073 c -2.74778,4.7469 -5.0745,8.83541 -5.1705,9.08558 -0.096,0.25016 2.15731,4.50234 5.00735,9.44927 l 5.18189,8.99442 h 5.07913 c 4.26355,0 5.07914,0.0758 5.07914,0.47207 0,0.39293 -0.86459,0.48682 -5.15727,0.56 l -5.15727,0.0879 -5.1316,8.88 -5.1316,8.88 h -11.42077 -11.42077 l -5.11779,-8.88 -5.1178,-8.88 H 256.0157 245.68627 l -5.13201,8.88 -5.132,8.88 h -11.42077 -11.42077 l -5.11779,-8.88 -5.1178,-8.88 h -10.3359 -10.3359 l -5.1248,8.88 -5.1248,8.88 h -11.42151 -11.4215 l -5.11779,-8.88 -5.1178,-8.88 H 128.0086 117.67206 l -5.12927,8.88 -5.12927,8.88 H 96 84.586483 l -5.129273,-8.88 -5.129274,-8.88 H 64 53.672064 l -5.129274,8.88 -5.129273,8.88 h -11.4215 -11.421499 z m 32.111058,-0.56 5.175133,-8.96 -1.172663,-2.09785 c -0.644963,-1.15381 -2.972624,-5.22181 -5.172579,-9.04 l -3.999917,-6.94215 -10.400083,0.002 -10.400083,0.002 -5.093333,8.84842 c -2.801334,4.86664 -5.08827,9.00582 -5.082081,9.19818 0.0095,0.29653 8.507668,15.24196 9.890507,17.39418 l 0.465452,0.72442 10.307257,-0.0844 10.307254,-0.0844 5.175136,-8.96 z m 63.996518,0 5.1743,-8.96 -1.17051,-2.09785 c -0.64377,-1.15381 -2.97046,-5.22181 -5.17042,-9.04 l -3.99991,-6.94215 H 95.994749 85.589331 l -5.088,8.84854 c -2.798397,4.86669 -5.082934,9.00669 -5.076745,9.2 0.0095,0.29771 8.502889,15.23622 9.890508,17.39588 l 0.46545,0.72442 10.305936,-0.0844 10.30594,-0.0844 z m 64,0 5.1743,-8.96 -1.17051,-2.0928 c -0.64377,-1.15104 -2.96462,-5.21904 -5.15742,-9.04 l -3.98693,-6.9472 -10.41307,0.002 -10.41308,0.002 -5.09333,8.84842 c -2.80134,4.86664 -5.08827,9.00582 -5.08208,9.19818 0.01,0.29653 8.50766,15.24196 9.8905,17.39418 l 0.46545,0.72442 10.30594,-0.0844 10.30594,-0.0844 5.17429,-8.96 z m 64.00477,0 5.17641,-8.96 -0.72466,-1.31214 c -0.39857,-0.72167 -2.72451,-4.78967 -5.16876,-9.04 l -4.44409,-7.72786 -10.40519,9.6e-4 -10.40519,9.6e-4 -5.09333,8.86291 c -2.80134,4.87461 -5.08827,9.01412 -5.08208,9.19891 0.01,0.28692 8.54641,15.28851 9.8905,17.38042 l 0.46545,0.72442 10.30726,-0.0844 10.30726,-0.0844 5.17642,-8.96 z m 64,0 5.17641,-8.96 -0.72466,-1.31214 c -0.39857,-0.72167 -2.72451,-4.78967 -5.16876,-9.04 l -4.44409,-7.72786 -10.40519,0.002 -10.40519,0.002 -5.09333,8.84842 c -2.80134,4.86664 -5.08827,9.00582 -5.08208,9.19818 0.01,0.29653 8.50766,15.24196 9.8905,17.39418 l 0.46545,0.72442 10.30726,-0.0844 10.30726,-0.0844 5.17642,-8.96 z M 8.5834637,278.93362 c 0.078496,-0.40484 -0.1338666,-0.53361 -0.88,-0.53361 -0.8850186,0 -1.311785,0.52501 -0.8235984,1.0132 0.3644038,0.3644 1.607824,0.0144 1.7035984,-0.47959 z M 79.325149,268.51091 c 2.835168,-4.91101 5.153059,-9.05101 5.150867,-9.2 -0.0022,-0.149 -2.294173,-4.2309 -5.093293,-9.0709 l -5.089309,-8.8 H 63.99183 53.69025 l -5.077626,8.8 c -2.792694,4.84 -5.080998,8.9138 -5.085123,9.05289 -0.0041,0.13909 2.315155,4.27909 5.153955,9.2 l 5.161453,8.94711 h 10.163693 10.163696 z m 64.002691,-0.0242 c 2.83369,-4.92433 5.14965,-9.06433 5.14659,-9.2 -0.003,-0.13567 -2.29594,-4.20667 -5.09527,-9.04667 l -5.0897,-8.8 -10.23271,-0.0844 -10.23271,-0.0844 -4.99851,8.63512 c -2.74917,4.74931 -5.07817,8.84273 -5.17555,9.09649 -0.099,0.25795 2.1091,4.42428 5.00794,9.44927 l 5.18499,8.9879 h 10.16638 10.16638 z m 64.0015,0.007 c 2.83286,-4.92036 5.14815,-9.06036 5.14509,-9.2 -0.003,-0.13964 -2.29594,-4.2139 -5.09527,-9.0539 l -5.0897,-8.8 -10.23271,-0.0844 -10.23271,-0.0844 -4.99851,8.63512 c -2.74917,4.74932 -5.07752,8.84103 -5.17409,9.0927 -0.097,0.25274 2.14075,4.48288 4.99865,9.44928 l 5.17424,8.99167 h 10.17717 10.17718 l 5.15066,-8.94611 z m 64,0 c 2.83286,-4.92036 5.148,-9.06036 5.14475,-9.2 -0.003,-0.13966 -2.29056,-4.21391 -5.0829,-9.05391 l -5.07699,-8.8 -10.24508,-0.0844 -10.24508,-0.0844 -4.99851,8.63512 c -2.74917,4.74931 -5.07817,8.84273 -5.17555,9.09649 -0.099,0.25795 2.1091,4.42428 5.00794,9.44927 l 5.18499,8.9879 h 10.16788 10.16789 l 5.15066,-8.94611 z M 47.484998,249.99424 c 2.796749,-4.88083 5.100749,-8.99081 5.12,-9.13331 C 52.62425,240.71844 50.336,236.58104 47.52,231.66671 L 42.4,222.73156 H 32 21.6 l -5.084997,8.87422 c -2.796749,4.88083 -5.082284,9.01823 -5.078967,9.19423 0.0033,0.176 2.291565,4.31346 5.084997,9.19435 l 5.078967,8.87436 10.4,-1.3e-4 10.4,-1.3e-4 z m 64.000002,0 c 2.79675,-4.88083 5.10075,-8.99081 5.12,-9.13331 0.0192,-0.14249 -2.269,-4.27989 -5.085,-9.19422 l -5.12,-8.93515 H 96 85.6 l -5.084998,8.87422 c -2.796749,4.88083 -5.084061,9.01823 -5.082916,9.19423 0.0013,0.176 2.289392,4.31193 5.084996,9.19095 l 5.082918,8.87096 10.4,0.003 10.4,0.003 5.085,-8.87423 z m 64.035,-0.0894 c 2.816,-4.92998 5.07947,-9.11699 5.02992,-9.30445 -0.0495,-0.18747 -2.35354,-4.28457 -5.12,-9.10468 l -5.02992,-8.76384 -10.4,0.003 -10.4,0.003 -5.10683,8.91251 c -2.80875,4.90187 -5.09428,9.0378 -5.07896,9.19095 0.0153,0.15314 2.31339,4.27191 5.10682,9.1528 l 5.07897,8.87436 10.4,-1.3e-4 10.4,-1.3e-4 5.12,-8.96361 z m 63.97333,0.0893 c 2.80134,-4.88071 5.09334,-9.01806 5.09334,-9.19411 0,-0.17605 -2.292,-4.31341 -5.09334,-9.19411 L 234.4,222.7319 l -10.4,0.003 -10.4,0.003 -5.11136,8.90972 c -2.81125,4.90034 -5.09856,9.03621 -5.08292,9.19082 0.0156,0.15461 2.31576,4.27304 5.11136,9.15206 l 5.08292,8.87096 10.4,0.003 10.4,0.003 5.09333,-8.87402 z m 64,0 c 2.80134,-4.88071 5.09334,-9.01806 5.09334,-9.19411 0,-0.17605 -2.292,-4.31341 -5.09334,-9.19411 L 298.4,222.7319 l -10.4,-1.6e-4 -10.4,-1.6e-4 -5.085,8.87422 c -2.79675,4.88083 -5.08406,9.01823 -5.08291,9.19423 10e-4,0.176 2.28939,4.31193 5.08499,9.19095 l 5.08292,8.87096 10.4,0.003 10.4,0.003 5.09333,-8.87402 z M 7.68,242.56001 c 0,-0.48743 -0.2097846,-0.63746 -0.88,-0.62936 l -0.88,0.0107 0.7554509,0.62935 C 7.6140163,243.35256 7.68,243.35186 7.68,242.56001 Z M 7.2733334,240.12667 C 7.167,240.02034 6.891,240.00897 6.66,240.10143 c -0.2552746,0.10215 -0.1794483,0.17797 0.1933334,0.19333 0.3373332,0.0139 0.5263332,-0.0617 0.42,-0.16807 z m 72.1058246,-8.76666 c 2.799335,-4.84 5.092208,-8.9138 5.095271,-9.05289 0.0032,-0.13909 -2.317085,-4.27909 -5.155885,-9.2 l -5.161453,-8.94711 H 63.998496 53.839901 l -5.185146,8.98356 c -2.889504,5.00623 -5.10696,9.18731 -5.008544,9.44378 0.127095,0.3312 7.716189,13.59235 10.013229,17.49706 0.07908,0.13442 4.753181,0.20642 10.386896,0.16 l 10.24312,-0.0844 z m 64.000002,0 c 2.79933,-4.84 5.09221,-8.91426 5.09527,-9.05389 0.003,-0.13965 -2.31223,-4.27965 -5.14509,-9.2 l -5.15066,-8.94611 H 128.00929 117.8399 l -5.18514,8.98356 c -2.88951,5.00623 -5.10696,9.18731 -5.00855,9.44378 0.1271,0.3312 7.71619,13.59235 10.01323,17.49706 0.0791,0.13442 4.75318,0.20642 10.3869,0.16 l 10.24312,-0.0844 z m 64,0 c 2.79933,-4.84 5.09221,-8.91426 5.09527,-9.05389 0.003,-0.13965 -2.31223,-4.27965 -5.14509,-9.2 l -5.15066,-8.94611 h -10.16789 -10.16788 l -5.18499,8.98789 c -2.85174,4.94335 -5.10626,9.19305 -5.01004,9.44378 0.12588,0.32804 7.72925,13.61306 10.01156,17.49273 0.0791,0.13442 4.75318,0.20642 10.3869,0.16 l 10.24312,-0.0844 z m 64,0 c 2.79933,-4.84 5.09221,-8.91426 5.09527,-9.05389 0.003,-0.13965 -2.31223,-4.27965 -5.14509,-9.2 l -5.15066,-8.94611 h -10.16789 -10.16788 l -5.18499,8.98789 c -2.85174,4.94335 -5.10626,9.19305 -5.01004,9.44378 0.12588,0.32804 7.72925,13.61306 10.01156,17.49273 0.0791,0.13442 4.75318,0.20642 10.3869,0.16 l 10.24312,-0.0844 z M 6.72,238.86112 c 0,-0.25361 -0.216,-0.46111 -0.48,-0.46111 -0.4819936,0 -0.6578163,0.67551 -0.2753664,1.05797 C 6.2632714,239.75661 6.72,239.39573 6.72,238.86112 Z m 1.8634637,0.0724 c 0.069762,-0.35971 -0.1126522,-0.53348 -0.56,-0.53348 -0.364905,0 -0.6634637,0.192 -0.6634637,0.42666 0,0.98008 1.036552,1.07058 1.2234637,0.10682 z M 46.85447,214.03214 c 2.44425,-4.25032 4.770189,-8.31832 5.168756,-9.04 l 0.724668,-1.31213 -5.176544,-8.96 -5.176544,-8.96 H 32 21.605192 l -5.169405,8.96 c -4.363403,7.56297 -5.117439,9.05979 -4.836111,9.6 0.183311,0.352 2.159353,3.808 4.391205,7.68 2.231851,3.872 4.39745,7.652 4.81244,8.4 l 0.754529,1.36 h 10.426267 10.426267 z m 64,0 c 2.44425,-4.25032 4.77019,-8.31832 5.16876,-9.04 l 0.72466,-1.31213 -5.17654,-8.96 -5.17654,-8.96 H 96 85.605194 l -5.175261,8.96 -5.175258,8.96 1.172663,2.09785 c 0.644963,1.15381 2.972624,5.22181 5.172579,9.04 l 3.999917,6.94215 h 10.405276 10.40527 z m 64,0 c 2.44425,-4.25032 4.77019,-8.31832 5.16876,-9.04 l 0.72466,-1.31213 -5.17654,-8.96 -5.17654,-8.96 h -10.39349 -10.39349 l -5.17442,8.96 -5.17442,8.96 1.17051,2.09967 c 0.64377,1.15483 2.9705,5.22137 5.1705,9.03677 l 4,6.93708 10.40519,0.003 10.40519,0.003 4.44409,-7.72786 z m 63.92477,0.12557 c 2.40858,-4.17874 4.73686,-8.2457 5.17395,-9.0377 l 0.7947,-1.44 -5.17654,-8.96 -5.17654,-8.96 H 224 213.60519 l -5.17526,8.96 -5.17525,8.96 1.17266,2.09967 c 0.64496,1.15483 2.97266,5.22137 5.17266,9.03677 l 4,6.93708 10.4,9.6e-4 10.4,9.6e-4 4.37924,-7.5977 z m 64.07523,-0.12557 c 2.44425,-4.25032 4.77294,-8.31832 5.17488,-9.04 l 0.73079,-1.31213 -5.18362,-8.96 -5.18362,-8.96 H 288.00945 277.626 l -5.17844,8.96 -5.17843,8.96 0.52543,0.98643 c 0.289,0.54253 2.61344,4.60939 5.16544,9.03746 l 4.64,8.05104 10.40519,0.003 10.40519,0.003 4.44409,-7.72786 z M 79.402339,194.24729 c 2.792714,-4.836 5.077661,-8.89257 5.077661,-9.01461 0,-0.33102 -9.607568,-16.99984 -10.100029,-17.52322 -0.57664,-0.61285 -20.245478,-0.55644 -20.819661,0.0597 -0.200316,0.21496 -2.551334,4.19962 -5.224486,8.85479 -4.282221,7.4573 -4.820016,8.55232 -4.521779,9.20687 0.309542,0.67937 7.888886,13.8913 9.37015,16.33357 l 0.633437,1.0444 10.253523,-0.0844 10.25352,-0.0844 z m 64.000511,0.009 c 2.79243,-4.83095 5.06766,-8.93495 5.05606,-9.12 -0.0116,-0.18506 -2.28242,-4.22446 -5.04627,-8.97646 l -5.02516,-8.64 -4.79374,-0.16 c -2.63656,-0.088 -7.31251,-0.088 -10.39101,0 l -5.59727,0.16 -4.73871,8.16 c -2.6063,4.488 -4.89749,8.48147 -5.09154,8.87438 -0.35893,0.72677 0.69529,2.7218 8.291,15.69002 l 1.73631,2.96441 10.26159,-0.0844 10.2616,-0.0844 z m 64,0 c 2.79243,-4.83095 5.06604,-8.93495 5.05246,-9.12 -0.0136,-0.18505 -2.28158,-4.22445 -5.04,-8.97645 l -5.01531,-8.64001 -10.06393,-0.16 c -8.64931,-0.13751 -10.13958,-0.0925 -10.60215,0.32 -0.29602,0.264 -2.72613,4.28684 -5.40025,8.93965 -4.29642,7.4755 -4.82243,8.54658 -4.52158,9.20687 0.31097,0.68251 7.8858,13.88729 9.37211,16.33787 l 0.63343,1.0444 10.25404,-0.0844 10.25404,-0.0844 5.07714,-8.78355 z m 64.00867,-0.005 c 2.78766,-4.83371 5.05949,-8.93771 5.04852,-9.12 -0.011,-0.18229 -2.2808,-4.21944 -5.04403,-8.97144 l -5.02405,-8.64 h -10.38272 -10.38272 l -4.71398,8.14502 c -2.59269,4.47976 -4.88915,8.47231 -5.10324,8.87235 -0.40038,0.74811 0.5138,2.48715 8.25691,15.70703 l 1.73631,2.96441 10.27026,-0.0844 10.27026,-0.0844 z m -223.820499,-18.57442 5.167171,-8.96297 -5.147843,-8.95703 -5.147847,-8.95702 H 32 21.537497 l -5.147844,8.95702 -5.147845,8.95703 5.167171,8.96297 5.167169,8.96298 H 32 42.423853 Z m 64.017749,-0.001 5.14812,-8.9641 -5.14719,-8.95575 -5.1472,-8.95589 H 96.000928 85.539354 l -5.144912,8.9585 -5.144909,8.95851 5.154563,8.96149 5.154563,8.9615 h 10.450995 10.450996 l 5.14812,-8.96411 z m 63.99171,0.004 5.16149,-8.95969 -5.14973,-8.96016 -5.14974,-8.96031 H 160 149.5375 l -5.14785,8.95702 -5.14784,8.95703 5.16717,8.96297 5.16717,8.96298 h 10.43142 10.43143 l 5.16148,-8.95969 z m 64,0 5.16149,-8.95969 -5.14973,-8.96016 -5.14974,-8.96031 h -10.46157 -10.46158 l -5.14641,8.96112 -5.14641,8.96112 5.16481,8.95888 5.16481,8.95888 h 10.43142 10.43143 l 5.16148,-8.95969 z m 64.00161,-0.003 5.1631,-8.96248 -5.14322,-8.95728 -5.14321,-8.95752 H 288.00813 277.5375 l -5.15028,8.96126 -5.15029,8.96127 4.01329,6.95873 c 2.2073,3.82731 4.53292,7.85874 5.16802,8.95874 l 1.15474,2 h 10.43301 10.43301 l 5.16309,-8.96248 z M 79.412118,157.28001 c 2.758941,-4.752 5.027872,-8.7964 5.042071,-8.98756 0.01421,-0.19116 -2.251411,-4.29516 -5.034688,-9.12 L 74.359005,130.4 H 64.002701 53.646394 l -5.063197,8.77782 c -2.784759,4.8278 -5.063197,8.88703 -5.063197,9.02051 0,0.20721 8.492672,15.07462 9.805741,17.16609 l 0.454803,0.72442 10.307661,-0.0844 10.307657,-0.0844 z m 64.015142,-0.10545 c 2.77901,-4.80999 5.05274,-8.8544 5.05274,-8.98756 0,-0.13316 -2.27722,-4.18971 -5.0605,-9.01455 L 138.359,130.4 h -10.34544 -10.34545 l -5.07406,8.76903 c -2.79073,4.82296 -5.07405,8.88219 -5.07405,9.02051 0,0.21341 8.461,15.03298 9.80574,17.17488 l 0.4548,0.72442 10.29699,-0.0844 10.29699,-0.0844 z m 64,0 c 2.77901,-4.80999 5.05274,-8.8544 5.05274,-8.98756 0,-0.13316 -2.27722,-4.18971 -5.0605,-9.01455 L 202.359,130.4 h -10.34544 -10.34545 l -5.07406,8.76903 c -2.79073,4.82296 -5.07405,8.88219 -5.07405,9.02051 0,0.21341 8.461,15.03298 9.80574,17.17488 l 0.4548,0.72442 10.29699,-0.0844 10.29699,-0.0844 z m 64,0 c 2.77901,-4.80999 5.05274,-8.8544 5.05274,-8.98756 0,-0.13316 -2.27722,-4.18971 -5.0605,-9.01455 L 266.359,130.4 h -10.35089 -10.3509 l -5.06861,8.78856 c -2.78773,4.83371 -5.0686,8.89092 -5.0686,9.01602 0,0.20195 8.64124,15.33111 9.80109,17.15984 l 0.45945,0.72442 10.29699,-0.0844 10.29699,-0.0844 z M 47.567581,138.67188 52.773366,129.66375 47.590682,120.67188 42.407997,111.68 H 31.998663 21.589331 l -5.087999,8.84854 c -2.798399,4.8667 -5.082592,9.0067 -5.075984,9.2 0.0098,0.28759 8.366872,14.98464 9.86741,17.35325 0.427085,0.67416 0.547399,0.68132 10.750477,0.64 l 10.31856,-0.0418 z m 64.006419,-10e-4 5.19804,-9.00929 -5.18202,-8.99059 -5.18202,-8.991 H 95.998662 85.589331 l -5.088,8.84854 c -2.798397,4.8667 -5.08311,9.0067 -5.077139,9.2 0.0088,0.28475 8.253235,14.7717 9.8916,17.38131 l 0.445658,0.70985 10.30726,-0.0699 10.30726,-0.0699 5.19803,-9.00928 z m 63.99977,0 5.19827,-9.00929 -5.18202,-8.99059 -5.18202,-8.991 h -10.40934 -10.40933 l -5.088,8.84854 c -2.7984,4.8667 -5.08311,9.0067 -5.07714,9.2 0.009,0.28374 8.24225,14.75286 9.88425,17.37009 0.43709,0.6967 0.46671,0.69846 10.75268,0.64 l 10.31439,-0.0586 5.19826,-9.00928 z m 64.00022,0 5.19805,-9.00929 -5.18202,-8.99059 -5.18202,-8.991 h -10.40934 -10.40933 l -5.088,8.84854 c -2.7984,4.8667 -5.08311,9.0067 -5.07714,9.2 0.009,0.28489 8.25469,14.7742 9.8926,17.38283 l 0.44665,0.71137 10.30625,-0.0714 10.30626,-0.0714 5.19804,-9.00928 z m 64.00292,0.004 5.20245,-9.00477 -5.18113,-8.99512 -5.18113,-8.99512 h -10.41388 -10.41389 l -5.088,8.84854 c -2.7984,4.8667 -5.08311,9.0067 -5.07714,9.2 0.009,0.28444 8.24983,14.76586 9.88929,17.37778 l 0.44335,0.70632 10.30881,-0.0663 10.30881,-0.0663 5.20246,-9.00488 z M 79.319136,120.32208 c 2.838474,-4.92686 5.158202,-9.06686 5.15495,-9.2 -0.0033,-0.13314 -2.290611,-4.20208 -5.08302,-9.04208 L 74.313955,93.280003 H 64 53.686045 L 48.608934,102.08 c -2.792409,4.84 -5.079766,8.90894 -5.08302,9.04208 -0.0033,0.13314 2.316476,4.27314 5.15495,9.2 L 53.841728,129.28 H 64 74.158272 Z m 64.000004,0 c 2.83847,-4.92686 5.1582,-9.06686 5.15495,-9.2 -0.003,-0.13314 -2.29061,-4.20208 -5.08302,-9.04208 l -5.07711,-8.799997 H 128 117.68604 L 112.60893,102.08 c -2.79241,4.84 -5.07976,8.90894 -5.08302,9.04208 -0.003,0.13314 2.31648,4.27314 5.15495,9.2 l 5.16087,8.95792 H 128 138.15827 Z m 64,0 c 2.83847,-4.92686 5.16007,-9.06686 5.1591,-9.2 -9.6e-4,-0.13314 -2.29006,-4.20208 -5.08689,-9.04208 l -5.08513,-8.799997 H 191.99613 181.68604 L 176.60893,102.08 c -2.79241,4.84 -5.07976,8.91012 -5.08302,9.0447 -0.003,0.13458 2.31972,4.27458 5.16216,9.2 l 5.16808,8.9553 h 10.15106 10.15106 z m 63.9994,0.0108 c 2.8388,-4.92091 5.16067,-9.06091 5.1597,-9.2 -9.6e-4,-0.13909 -2.29006,-4.2129 -5.08689,-9.0529 l -5.08513,-8.799997 H 256.0064 245.70659 L 240.61728,102.08 c -2.79912,4.84 -5.0911,8.91012 -5.0933,9.0447 -0.002,0.13458 2.32165,4.27458 5.16409,9.2 l 5.16808,8.9553 h 10.15047 10.15047 l 5.16145,-8.94711 z M 42.480509,110.32 c 0.622125,-0.7804 10.098707,-17.365213 10.102403,-17.680045 0.0019,-0.176025 -2.288246,-4.313357 -5.089578,-9.194064 L 42.4,74.571871 H 32 21.6 l -5.093333,8.87402 c -2.801334,4.880707 -5.091118,9.018039 -5.08841,9.194064 0.0049,0.321434 9.489877,16.930855 10.096323,17.680045 0.468647,0.57896 20.50439,0.57896 20.965929,0 z m 64.000001,0 c 0.62212,-0.7804 10.09871,-17.365213 10.1024,-17.680045 0.002,-0.176025 -2.28824,-4.313357 -5.08958,-9.194064 L 106.4,74.571871 H 96 85.6 l -5.093334,8.87402 c -2.801332,4.880707 -5.091642,9.018039 -5.089578,9.194064 0.0037,0.314832 9.480278,16.899645 10.102403,17.680045 0.243069,0.30491 2.734599,0.4 10.480509,0.4 7.74591,0 10.23744,-0.0951 10.48051,-0.4 z m 64,0 c 0.62212,-0.7804 10.09871,-17.365213 10.1024,-17.680045 0.002,-0.176025 -2.28824,-4.313357 -5.08958,-9.194064 l -5.09333,-8.87402 -10.4,-1.6e-4 -10.4,-1.6e-4 -5.12,8.963607 c -2.816,4.929987 -5.08499,9.100416 -5.0422,9.26762 0.0971,0.379596 9.64533,16.969842 10.08169,17.517222 0.24307,0.30491 2.7346,0.4 10.48051,0.4 7.74591,0 10.23744,-0.0951 10.48051,-0.4 z M 239.52,101.7391 c 2.816,-4.929542 5.07947,-9.115074 5.02992,-9.301177 -0.0495,-0.186105 -2.35354,-4.282102 -5.12,-9.102211 L 234.4,74.571871 H 224 213.6 l -5.09333,8.87402 c -2.80134,4.880707 -5.09165,9.018039 -5.08958,9.194064 0.004,0.314832 9.48028,16.899645 10.1024,17.680045 0.24349,0.30543 2.74951,0.39787 10.59969,0.39096 l 10.28082,-0.009 5.12,-8.96281 z m 64.06471,-0.1379 5.18513,-8.958803 -1.02492,-1.798685 c -0.5637,-0.98928 -2.89692,-5.055588 -5.18492,-9.03624 l -4.16,-7.237553 -10.4,9.6e-4 -10.4,9.6e-4 -5.12,8.963607 c -2.816,4.929987 -5.08499,9.100416 -5.0422,9.26762 0.0977,0.381776 9.64675,16.971684 10.08532,17.521604 0.25041,0.31397 2.62007,0.38551 10.59948,0.32 L 298.39958,110.56 Z M 79.332323,83.24792 C 82.163546,78.346271 84.48,74.236019 84.48,74.114025 c 0,-0.121994 -2.317798,-4.247555 -5.150659,-9.167914 L 74.178678,56.000002 H 64 53.821322 l -5.150663,8.946109 C 45.837798,69.86647 43.52,73.992031 43.52,74.114025 c 0,0.121994 2.316454,4.232246 5.147677,9.133895 l 5.147677,8.912083 H 64 74.184646 Z m 63.999997,0 c 2.83123,-4.901649 5.14768,-9.011901 5.14768,-9.133895 0,-0.121994 -2.3178,-4.247555 -5.15066,-9.167914 l -5.15066,-8.946109 H 128 117.82132 l -5.15066,8.946109 c -2.83286,4.920359 -5.15066,9.04592 -5.15066,9.167914 0,0.121994 2.31645,4.232246 5.14768,9.133895 l 5.14767,8.912083 H 128 138.18465 Z M 207.37916,83.2 c 2.79933,-4.84 5.09221,-8.92353 5.09527,-9.074509 0.003,-0.15098 -2.3125,-4.29098 -5.14569,-9.200001 l -5.15126,-8.925491 H 191.9994 181.82132 l -5.15066,8.946109 c -2.83286,4.920359 -5.15066,9.045907 -5.15066,9.167882 0,0.121978 2.32015,4.234205 5.1559,9.138279 l 5.1559,8.916502 10.22883,-0.08438 10.22883,-0.08439 z m 63.95316,0.04792 c 2.83123,-4.901649 5.14768,-9.027197 5.14768,-9.167885 0,-0.140692 -2.31901,-4.266253 -5.15336,-9.167918 l -5.15337,-8.912115 H 255.9973 245.82132 l -5.15066,8.946109 C 237.8378,69.86647 235.52,73.985999 235.52,74.10062 c 0,0.114621 2.31807,4.224871 5.15126,9.133892 l 5.15126,8.925491 h 10.18106 10.18107 z M 47.04,65.541525 c 2.552,-4.427053 4.877136,-8.493283 5.166966,-9.036067 l 0.52697,-0.98688 -5.16697,-8.959287 L 42.4,37.600001 H 32 21.6 l -5.166967,8.95929 -5.166967,8.959287 0.526967,0.98688 C 12.082865,57.048242 14.408,61.114472 16.96,65.541525 L 21.6,73.59071 H 32 42.4 Z m 64,0.0022 c 2.552,-4.42807 4.87927,-8.499408 5.17171,-9.047414 l 0.5317,-0.996378 -5.17525,-8.950051 -5.17526,-8.950055 H 95.996451 85.6 l -5.166966,8.95929 -5.16697,8.959286 0.52697,0.986881 c 0.28983,0.542784 2.614966,4.609014 5.166966,9.036067 l 4.64,8.049184 10.4,0.0022 10.4,0.0022 4.64,-8.051037 z m 63.36,1.112541 c 2.2,-3.815398 4.5282,-7.881939 5.17378,-9.036762 l 1.17378,-2.099677 -5.17378,-8.96 -5.17378,-8.96 H 160 149.6 l -5.16697,8.95929 -5.16697,8.959286 0.52697,0.986881 c 0.28983,0.542784 2.61497,4.609014 5.16697,9.036067 l 4.64,8.049184 10.4,0.0013 10.4,0.0013 4,-6.937085 z m 64.64,-1.112541 c 2.552,-4.42807 4.88095,-8.502694 5.17546,-9.054723 l 0.53545,-1.003687 -5.18128,-8.942745 -5.18128,-8.942743 h -10.39158 -10.39158 l -5.16847,8.96 -5.16848,8.96 0.52588,0.98617 c 0.28923,0.542391 2.61388,4.608301 5.16588,9.035354 l 4.64,8.049184 10.4,0.0022 10.4,0.0022 4.64,-8.051037 z m 64.45333,-0.807475 c 2.80134,-4.870608 5.09112,-9.008823 5.08841,-9.196035 -0.005,-0.336359 -9.46696,-16.922986 -10.09995,-17.704766 -0.25415,-0.313891 -2.62655,-0.385494 -10.60213,-0.32 l -10.27472,0.08438 -5.16835,8.96 -5.16835,8.96 0.52588,0.98617 c 0.28923,0.542391 2.61388,4.608301 5.16588,9.035354 l 4.64,8.049184 10.4,6.4e-4 10.4,6.4e-4 5.09333,-8.855645 z M 79.396416,46.080002 c 2.794749,-4.840001 5.081859,-8.903178 5.08247,-9.029287 6.4e-4,-0.126106 -2.325612,-4.266106 -5.169388,-9.2 L 74.138992,18.880001 H 63.994883 53.850774 l -5.191587,9.015232 c -4.446297,7.721034 -5.145683,9.115981 -4.871824,9.717037 0.271488,0.595846 3.398167,6.05337 8.749597,15.272141 l 1.256422,2.164413 10.260839,-0.08441 10.260838,-0.08441 z m 64.006184,0 c 2.79101,-4.840001 5.07521,-8.909671 5.07599,-9.04371 6.4e-4,-0.134041 -2.32653,-4.274041 -5.17178,-9.2 l -5.1732,-8.956291 h -10.1363 -10.1363 l -5.19647,9.015756 c -4.44912,7.719127 -5.15051,9.116612 -4.87694,9.717035 0.27129,0.595401 3.39891,6.054537 8.74936,15.271619 l 1.25642,2.164413 10.26732,-0.08441 10.26733,-0.08441 z m 64,0 c 2.79101,-4.840001 5.07521,-8.903178 5.07599,-9.029287 6.4e-4,-0.126106 -2.32532,-4.266106 -5.16909,-9.2 l -5.17051,-8.970714 H 192 181.86101 l -5.19647,9.015756 c -4.50194,7.810779 -5.1528,9.111579 -4.86979,9.732721 0.17967,0.394333 1.9398,3.501242 3.9114,6.904244 1.9716,3.403004 4.14779,7.161264 4.83598,8.351689 l 1.25125,2.164413 10.26732,-0.08441 10.26733,-0.08441 z m 63.99974,0.0073 c 2.79271,-4.83601 5.07766,-8.905681 5.07766,-9.043726 0,-0.138044 -2.32794,-4.281321 -5.17319,-9.20728 l -5.1732,-8.956291 h -10.14117 -10.14117 l -4.92563,8.531611 c -2.70911,4.692386 -5.0519,8.787989 -5.20621,9.101336 -0.26136,0.530698 2.00751,4.739642 8.99767,16.691463 l 1.07873,1.84441 10.26442,-0.08441 10.26443,-0.08441 5.07766,-8.79272 z M 47.591187,27.50702 52.751978,18.53404 47.610259,9.5870198 42.468544,0.64000002 H 32 21.531457 l -5.142188,8.94783738 -5.142187,8.9478376 5.167909,8.972163 5.167909,8.972163 h 10.42375 10.423747 z m 63.993823,8.32e-4 5.16791,-8.972177 -5.14219,-8.9478376 -5.14219,-8.94783738 H 96 85.531456 l -5.142186,8.94783738 -5.142188,8.9478376 5.16791,8.972163 5.167907,8.972163 H 96 106.4171 l 5.16791,-8.972163 z m 64.00115,0.0077 5.17562,-8.964455 -5.14662,-8.9555607 -5.14662,-8.95554528 H 160 149.53146 l -5.14219,8.94783738 -5.14219,8.9478376 5.16791,8.972163 5.16791,8.972163 h 10.41382 10.41382 l 5.17562,-8.964455 z m 64.00548,-0.0095 5.18109,-8.973941 -5.15175,-8.9460595 -5.15175,-8.94605948 h -10.46889 -10.46888 l -5.14219,8.94783738 -5.14219,8.9478376 5.16791,8.972163 5.16791,8.972163 h 10.41382 10.41382 z m 64.00618,-8.22e-4 5.17396,-8.974763 -5.15127,-8.9452376 -5.15128,-8.94523738 h -10.46889 -10.46888 l -5.14219,8.94783738 -5.14219,8.9478376 5.16791,8.972163 5.16791,8.972163 h 10.42048 10.42047 z M 7.04,290.72933 c -1.1563725,-0.39128 -2.08,-0.89169 -2.08,-1.12691 0,-0.23706 0.9498099,-0.7435 2.16,-1.15173 1.2198765,-0.4115 2.16,-0.58546 2.16,-0.39969 0,0.18091 -0.288,0.40424 -0.64,0.49629 -0.7741914,0.20245 -0.9350829,2.01272 -0.1788854,2.01272 0.4381865,0 1.0087164,0.57565 0.7709289,0.77786 C 9.1704195,291.39027 8.184,291.11643 7.04,290.72933 Z m 0.32,-1.08495 c 0,-0.46278 -0.1784259,-0.56151 -0.8,-0.44269 -1.2464582,0.23827 -0.9503978,0.76759 0.56,1.0012 0.132,0.0204 0.24,-0.23091 0.24,-0.55851 z M 6.6095962,286.77481 C 6.3183181,286.45295 6.08,286.02095 6.08,285.81481 c 0,-0.20614 -0.36,-0.3748 -0.8,-0.3748 -0.44,0 -0.8,-0.144 -0.8,-0.32 0,-0.18299 0.9633478,-0.32 2.2500432,-0.32 2.4826797,0 2.9306346,0.34997 2.2788842,1.78041 -0.4302756,0.94435 -1.6324813,1.04175 -2.3993312,0.19439 z m 1.9705984,-0.7748 c 0.082911,-0.43501 -0.1127719,-0.56 -0.8767309,-0.56 -0.9343853,0 -1.3061159,0.53068 -0.756632,1.08017 0.4081846,0.40818 1.5241616,0.0528 1.6333629,-0.52017 z M 6.5828573,283.33715 C 6.3062858,283.06058 6.08,282.63887 6.08,282.40001 c 0,-0.62497 0.9055904,-1.44 1.6,-1.44 0.6353216,0 1.6,0.79821 1.6,1.32389 0,1.38521 -1.700951,2.04944 -2.6971427,1.05325 z M 8.48,282.40439 c 0,-0.70597 -0.9948474,-1.05753 -1.5164806,-0.5359 -0.5378416,0.53784 -0.00734,1.3879 0.7950499,1.27396 C 8.2306253,283.07542 8.48,282.8203 8.48,282.40439 Z M 6.5828573,276.29715 C 5.9539424,275.66824 5.9423565,275.07261 6.549241,274.56894 7.1991222,274.02958 7.84,274.31644 7.84,275.14667 c 0,0.93127 0.6132858,1.04144 0.7422563,0.13334 C 8.6973862,274.46937 9.28,274.28653 9.28,275.06105 c 0,1.55539 -1.6305661,2.30268 -2.6971427,1.2361 z m 0.6454297,-1.33552 c -0.3495676,-0.34957 -0.5892716,0.20635 -0.3382966,0.78458 0.2379763,0.54828 0.2552275,0.54778 0.3878195,-0.0112 0.07632,-0.32178 0.054035,-0.66978 -0.049523,-0.77334 z m -2.0970281,-3.58058 c -0.4118896,-0.76963 -0.4294928,-1.62104 -0.033515,-1.62104 0.163759,0 0.343759,0.324 0.4,0.72 0.1359049,0.95692 0.8265568,0.91509 1.3208739,-0.08 0.5559552,-1.11918 1.7136467,-1.22657 2.1803539,-0.20226 0.3662263,0.80378 0.2102471,1.80226 -0.281543,1.80226 -0.1444618,0 -0.2569811,-0.38194 -0.2500432,-0.84876 0.018003,-1.21122 -0.6617456,-1.28242 -1.2568311,-0.13165 -0.5808227,1.12319 -1.5787824,1.29666 -2.0792955,0.36145 z m 0.4927523,-2.92006 c -0.5189885,-0.5232 -0.5357853,-0.62098 -0.1066669,-0.62098 0.2801274,0 0.5933223,-0.18 0.6959891,-0.4 0.1493332,-0.32 0.224,-0.32 0.3733332,0 0.1026668,0.22 0.5946668,0.4 1.0933334,0.4 0.4986666,0 0.9709523,-0.18 1.0495238,-0.4 0.078572,-0.22 0.252361,-0.29821 0.3861991,-0.1738 0.5579635,0.51865 -0.1668922,1.2138 -1.2656797,1.2138 -0.6215238,0 -1.1300432,0.144 -1.1300432,0.32 0,0.48083 -0.4078858,0.35466 -1.0959888,-0.33902 z m 0.76952,-2.23307 c -0.7026752,-1.31296 0.4304099,-2.54274 1.9101002,-2.07311 1.5054851,0.47783 0.9911984,2.7252 -0.6236314,2.7252 -0.615769,0 -1.0572432,-0.22378 -1.2864688,-0.65209 z M 8.48,265.44439 c 0,-0.70597 -0.9948474,-1.05753 -1.5164806,-0.5359 -0.5378416,0.53784 -0.00734,1.3879 0.7950499,1.27396 C 8.2306253,266.11542 8.48,265.8603 8.48,265.44439 Z m -1.8971427,-2.58724 c -0.5460999,-0.5461 -0.6867325,-1.73714 -0.2051136,-1.73714 0.163759,0 0.343759,0.324 0.4,0.72 0.074902,0.5274 0.3162582,0.72 0.9022563,0.72 0.5859981,0 0.8273539,-0.1926 0.9022563,-0.72 C 8.7070038,260.96164 9.28,260.87718 9.28,261.73715 c 0,0.78347 -0.8275651,1.62286 -1.6,1.62286 -0.3268573,0 -0.8205715,-0.22629 -1.0971427,-0.50286 z m -2.0255264,-2.76913 c 0.082627,-0.24789 0.6218278,-0.35653 1.4666665,-0.29553 1.4485421,0.10458 1.7070855,-0.20679 0.6960026,-0.83822 -0.352,-0.21983 -0.64,-0.55903 -0.64,-0.75377 0,-0.20999 0.3379446,-0.13267 0.8303533,0.18997 0.7979193,0.52282 0.8604157,0.51583 1.6,-0.17898 C 9.1427747,257.61737 9.28,257.58197 9.28,258.01297 c 0,0.28849 -0.288,0.67865 -0.64,0.86704 -0.352,0.18838 -0.64,0.48145 -0.64,0.65126 0,0.1698 0.288,0.30874 0.64,0.30874 0.352,0 0.64,0.144 0.64,0.32 0,0.1852 -1.0222221,0.32 -2.4266666,0.32 -1.7726729,0 -2.3914524,-0.10564 -2.2960025,-0.39199 z M 5.12,255.36572 c -0.5353213,-0.17526 0.2498928,-0.27247 2.3733334,-0.29381 1.7453332,-0.0175 3.1133336,0.0213 3.0399996,0.0864 -0.314213,0.27888 -4.6836805,0.44626 -5.413333,0.20737 z m 2.3679504,-3.25757 c -0.1059776,-0.17148 -0.3641536,-0.24598 -0.5737238,-0.16556 -0.2095706,0.0804 -0.6545277,-0.0538 -0.9887933,-0.29818 -0.5348535,-0.39109 -0.5428416,-0.4444 -0.066595,-0.4444 0.297639,0 0.5411616,-0.144 0.5411616,-0.32 0,-0.176 -0.2435226,-0.32 -0.5411616,-0.32 -0.4707082,0 -0.4602931,-0.0592 0.08,-0.45503 0.5390618,-0.39488 0.656297,-0.39254 0.8869926,0.0178 0.1737738,0.30905 0.3954058,0.36979 0.64,0.17539 0.2462176,-0.19568 0.5917303,-0.0858 1.0103853,0.32146 0.5321799,0.51764 0.5452618,0.58394 0.08,0.4054 C 8.1769286,250.87943 8,250.96765 8,251.30231 c 0,0.26992 0.252,0.54315 0.56,0.60718 0.4554822,0.0947 0.4256794,0.15317 -0.1596813,0.31342 -0.3958246,0.10836 -0.8063904,0.0567 -0.9123683,-0.11476 z M 7.68,251.23425 c 0,-0.15718 -0.216,-0.36865 -0.48,-0.46996 -0.2923875,-0.1122 -0.48,-6.4e-4 -0.48,0.28576 0,0.25848 0.216,0.46996 0.48,0.46996 0.264,0 0.48,-0.1286 0.48,-0.28576 z m -2.1739984,-2.1732 C 5.2937008,248.67662 5.12,248.28062 5.12,248.18105 c 0,-0.0996 0.936,-0.18104 2.08,-0.18104 1.1733334,0 2.08,0.13949 2.08,0.32 0,0.176 -0.7094413,0.32 -1.5765363,0.32 -1.2433821,0 -1.6013584,0.11834 -1.6939984,0.56 -0.1026429,0.48935 -0.1661619,0.47181 -0.5034637,-0.13896 z m -0.1761274,-2.27923 c -0.1485692,-0.23 -0.1779308,-0.78552 -0.065248,-1.23448 0.1660426,-0.66157 0.3551709,-0.78757 0.9977632,-0.66473 0.4360874,0.0834 0.8699475,0.0269 0.9641338,-0.12552 0.6340189,-1.02586 2.4017702,0.59372 1.9455872,1.78251 -0.3029239,0.78941 -0.7185808,0.58394 -0.7047248,-0.34835 0.015456,-1.03989 -0.7615731,-1.39907 -1.0058493,-0.46496 C 7.2596986,246.49812 6.72,246.63911 6.72,245.92001 c 0,-0.86934 -0.9139834,-0.51048 -1.018745,0.4 -0.070741,0.6148 -0.1826595,0.75398 -0.3713808,0.46181 z M 5.742088,236.20985 c -0.8740115,-0.70773 -0.6803126,-1.49123 0.501824,-2.02985 0.9591878,-0.43704 2.3046218,-0.075 2.8294886,0.76128 0.2597744,0.41392 0.1994394,0.69624 -0.2564489,1.2 -0.7399008,0.81758 -2.1120874,0.84818 -3.0748637,0.0686 z m 2.3917402,-0.24408 C 8.9006045,235.67153 8.7396176,234.9172 7.863095,234.69721 6.8716819,234.44838 5.76,234.79603 5.76,235.3549 c 0,0.68133 1.3110368,1.0187 2.3738282,0.61087 z M 5.36,233.41726 c -0.2510909,-0.25519 -0.3426192,-2.69725 -0.1010925,-2.69725 0.4678944,0 4.0210925,1.73355 4.0210925,1.96183 0,0.39895 -0.1953331,0.35478 -1.6,-0.36183 -1.665073,-0.84946 -1.8617738,-0.81463 -1.9797254,0.35058 C 5.6451235,233.21541 5.492,233.55141 5.36,233.41726 Z m 0.382088,-3.60741 c -0.8740115,-0.70773 -0.6803126,-1.49123 0.501824,-2.02985 0.9591878,-0.43704 2.3046218,-0.0751 2.8294886,0.76127 0.2597744,0.41393 0.1994394,0.69625 -0.2564489,1.2 -0.7399008,0.81759 -2.1120874,0.84819 -3.0748637,0.0686 z m 2.3917402,-0.24408 C 8.9006045,229.27153 8.7396176,228.5172 7.863095,228.29721 6.8716819,228.04838 5.76,228.39603 5.76,228.9549 c 0,0.68133 1.3110368,1.0187 2.3738282,0.61087 z M 5.3142365,226.37383 C 5.2074064,226.09544 5.12,225.80744 5.12,225.73383 c 0,-0.0736 0.936,-0.13382 2.08,-0.13382 1.1733334,0 2.08,0.13949 2.08,0.32 0,0.176 -0.72,0.32 -1.6,0.32 -0.88,0 -1.6,0.144 -1.6,0.32 0,0.50622 -0.5515203,0.37214 -0.7657635,-0.18618 z M 5.36,224.77726 c -0.2510909,-0.25519 -0.3426192,-2.69725 -0.1010925,-2.69725 0.4678944,0 4.0210925,1.73355 4.0210925,1.96182 0,0.39896 -0.1953331,0.35479 -1.6,-0.36182 -1.665073,-0.84946 -1.8617738,-0.81463 -1.9797254,0.35058 C 5.6451235,224.57541 5.492,224.91141 5.36,224.77726 Z"
       id="path837" />
  </g>
</svg>
