<?xml version="1.0" encoding="UTF-8" standalone="no"?>
<svg
   xmlns:dc="http://purl.org/dc/elements/1.1/"
   xmlns:cc="http://creativecommons.org/ns#"
   xmlns:rdf="http://www.w3.org/1999/02/22-rdf-syntax-ns#"
   xmlns:svg="http://www.w3.org/2000/svg"
   xmlns="http://www.w3.org/2000/svg"
   xmlns:sodipodi="http://sodipodi.sourceforge.net/DTD/sodipodi-0.dtd"
   xmlns:inkscape="http://www.inkscape.org/namespaces/inkscape"
   version="1.1"
   id="svg2"
   width="1024"
   height="1024"
   viewBox="0 0 1024 1024"
   sodipodi:docname="queen_bee.svg"
   inkscape:version="1.0.2-2 (e86c870879, 2021-01-15)">
  <metadata
     id="metadata8">
    <rdf:RDF>
      <cc:Work
         rdf:about="">
        <dc:format>image/svg+xml</dc:format>
        <dc:type
           rdf:resource="http://purl.org/dc/dcmitype/StillImage" />
        <dc:title></dc:title>
      </cc:Work>
    </rdf:RDF>
  </metadata>
  <defs
     id="defs6" />
  <sodipodi:namedview
     pagecolor="#ffffff"
     bordercolor="#666666"
     borderopacity="1"
     objecttolerance="10"
     gridtolerance="10"
     guidetolerance="10"
     inkscape:pageopacity="0"
     inkscape:pageshadow="2"
     inkscape:window-width="1920"
     inkscape:window-height="991"
     id="namedview4"
     showgrid="false"
     inkscape:zoom="0.80078125"
     inkscape:cx="512"
     inkscape:cy="512"
     inkscape:window-x="-9"
     inkscape:window-y="-9"
     inkscape:window-maximized="1"
     inkscape:current-layer="g10" />
  <g
     inkscape:groupmode="layer"
     inkscape:label="Image"
     id="g10">
    <path
       style="fill:#000000"
       d="m 502.49937,763.20223 -9.71926,-18.95393 -8.64887,-5.99352 C 462.23362,723.08011 444.167,701.51324 430.70798,674.48126 419.90477,652.78337 415.20689,634.71472 414.33274,611.5 c -0.84363,-22.40414 2.30701,-37.49174 12.67364,-60.69092 5.68948,-12.7323 4.33416,-12.62383 -5.0264,0.40226 -12.07638,16.8054 -18.62611,23.19665 -26.40166,25.76281 l -3.43168,1.13256 1.6545,3.69664 c 1.2401,2.77074 1.65659,6.70232 1.66282,15.69665 0.009,13.25152 -1.582,20.44768 -5.94186,26.8723 -2.10713,3.10503 -2.5221,4.87832 -2.5221,10.77776 0,13.2876 -5.41879,27.30277 -13.39044,34.63305 -3.73195,3.43169 -4.08131,4.16659 -3.80206,7.99791 C 370.03949,680.96406 369.75439,682 368.64639,682 367.12273,682 362,676.54559 362,674.92327 362,674.41547 361.08555,674 359.96788,674 c -4.22422,0 -8.67338,-2.71644 -9.81556,-5.9929 -1.00299,-2.87718 -0.9396,-3.13761 0.61468,-2.5252 0.95315,0.37555 4.06613,0.93069 6.91774,1.23363 4.90724,0.52132 5.35478,0.36973 8.36174,-2.83236 C 372.35286,657.16755 377,644.10774 377,633.10064 c 0,-3.83858 -0.38314,-4.79448 -2.25,-5.61351 -6.18945,-2.71546 -8.43508,-17.361 -4.84705,-31.61147 1.75805,-6.98241 7.15627,-19.70174 10.9819,-25.87566 0.51121,-0.825 1.41787,-3.34093 2.0148,-5.59094 0.59693,-2.25002 3.31089,-7.03086 6.03103,-10.62408 9.16374,-12.10503 22.75003,-20.12693 42.94006,-25.35359 6.67149,-1.72707 9.05444,-2.8376 10.88197,-5.07135 C 448.33792,516.53337 454,508.72836 454,507.85598 c 0,-0.52023 -3.4875,1.69259 -7.75,4.91736 -4.2625,3.22477 -8.31877,6.20042 -9.01393,6.61256 -1.42238,0.84329 3.65793,-8.15844 7.41352,-13.1359 1.34871,-1.7875 2.27619,-3.25 2.06107,-3.25 -0.21512,0 -2.82552,1.34185 -5.80089,2.98188 -2.97537,1.64004 -5.84285,2.99004 -6.37218,3 -0.52932,0.01 1.27068,-2.31261 4,-5.16129 5.6975,-5.94663 3.69993,-5.03857 -8.03759,3.65379 -26.83333,19.87173 -53.32349,34.092 -78,41.87144 -13.0441,4.11224 -19.31316,5.08536 -32.5,5.04482 -10.35074,-0.0318 -13.6161,-0.42838 -18.99118,-2.30641 C 288.883,547.84754 281.20046,539.75197 279.57679,529.5 c -1.53996,-9.72341 5.11439,-23.15599 15.44573,-31.17899 3.28761,-2.55307 5.97503,-4.68223 5.97204,-4.73147 -0.003,-0.0492 -6.64049,-0.12189 -14.75,-0.16144 -28.70794,-0.13999 -51.54836,-7.95117 -73.11458,-25.00439 -15.80811,-12.50007 -29.23776,-32.60608 -32.21063,-48.22369 -4.58696,-24.09701 8.81274,-42.05696 37.59399,-50.38815 7.32671,-2.12084 9.84586,-2.30714 30.48666,-2.2546 20.15737,0.0513 23.90558,0.33387 36,2.71383 38.60771,7.5973 84.58087,24.20925 129.54875,46.8112 14.13529,7.10473 25.88647,12.9177 26.11373,12.9177 0.22727,0 -3.81635,-4.04349 -8.98582,-8.98553 -5.16946,-4.94204 -10.47399,-10.56397 -11.78784,-12.49317 -1.31385,-1.9292 -3.06382,-3.51503 -3.88882,-3.52408 -2.16304,-0.0237 -14.31593,-9.38732 -18.56823,-14.30652 -8.37136,-9.68426 -12.92626,-21.66846 -10.48017,-27.57386 1.12689,-2.72054 0.91374,-3.68612 -2.27576,-10.30926 -3.76721,-7.8228 -12.51354,-18.30809 -18.2068,-21.82672 -3.78406,-2.33867 -9.17435,-2.14198 -14.71904,0.53711 -2.36371,1.14209 -2.75,1.11957 -2.75,-0.16036 0,-4.08733 5.29895,-8.35761 10.37088,-8.35761 1.91779,0 2.61395,-0.65445 3.11297,-2.92647 0.60237,-2.74259 4.15676,-6.07353 6.48097,-6.07353 0.56935,0 1.03518,1.94165 1.03518,4.31479 0,3.91831 0.3109,4.46304 3.38351,5.92827 8.02501,3.82686 18.04466,15.74072 21.72352,25.83032 1.23321,3.38221 2.76168,5.92662 3.5602,5.92662 2.79653,0 11.08927,4.95864 14.18025,8.47907 C 418.85759,371.3242 425,386.41096 425,394.32762 c 0,2.19704 1.77144,4.88838 7.25,11.0149 10.30075,11.51904 13.15827,13.83359 22.2469,18.01968 4.50467,2.07479 4.76129,2.70537 -2.29804,-5.647 C 450.43949,415.63357 449,413.51364 449,413.00425 c 0,-0.50938 3.23304,0.62324 7.18452,2.51694 3.95149,1.8937 7.37669,3.25093 7.61156,3.01607 0.23486,-0.23487 -1.18916,-3.01084 -3.1645,-6.16884 -1.97534,-3.15799 -3.41471,-5.91862 -3.19861,-6.13472 0.2161,-0.2161 3.23555,1.41445 6.70989,3.62344 3.47433,2.209 6.46276,3.87057 6.64095,3.69238 0.17819,-0.17819 -0.82527,-3.15231 -2.22991,-6.60916 -1.40465,-3.45685 -2.5539,-6.46905 -2.5539,-6.69379 0,-0.22473 2.57149,1.63136 5.71443,4.12465 3.14293,2.49329 5.88456,4.36312 6.09251,4.15517 0.20795,-0.20795 -0.36517,-2.93482 -1.27361,-6.05972 -0.90843,-3.1249 -1.41506,-5.91827 -1.12584,-6.20749 0.28921,-0.28921 2.05646,1.00477 3.92721,2.87552 1.87075,1.87075 4.20633,4.06825 5.19019,4.88333 1.8967,1.57134 1.88741,0.94989 -0.13854,-9.26803 -0.82823,-4.17716 1.12873,-3.34758 5.30771,2.25 2.05307,2.75 4.06986,5 4.48177,5 0.41191,0 0.47578,-2.925 0.14194,-6.5 -0.75899,-8.12788 0.42298,-8.37743 4.87073,-1.02836 1.82132,3.0094 3.58604,5.4844 3.9216,5.5 0.33555,0.0156 0.87215,-2.51074 1.19245,-5.61409 0.75732,-7.33772 2.19091,-8.81412 4.1066,-4.22923 0.80028,1.91534 1.75939,4.69501 2.13136,6.17705 0.37197,1.48205 1.02266,2.69463 1.44597,2.69463 0.42332,0 1.7794,-2.7 3.01352,-6 1.23412,-3.3 2.5865,-6 3.00529,-6 1.09659,0 1.96527,3.8368 1.98106,8.75 0.008,2.3375 0.42069,4.25 0.91819,4.25 0.4975,0 2.30135,-2.475 4.00855,-5.5 4.18217,-7.41039 5.45307,-7.14777 4.83932,1 -0.2693,3.575 -0.13708,6.5 0.29381,6.5 0.43089,0 2.43509,-2.25 4.45378,-5 3.68516,-5.02019 6.05292,-6.51399 5.15145,-3.25 -1.07214,3.8819 -1.72516,11.25 -0.99707,11.25 0.42731,0 2.95994,-2.1375 5.62808,-4.75 4.76016,-4.66091 4.83766,-4.69373 4.13194,-1.75 -0.39556,1.65 -1.30566,4.6875 -2.02244,6.75 -0.71678,2.0625 -1.02659,3.75 -0.68847,3.75 0.33813,0 3.01816,-1.81458 5.95564,-4.03239 2.93748,-2.21782 5.34087,-3.53874 5.34087,-2.93539 0,0.60336 -0.96131,3.33163 -2.13624,6.06283 -1.17492,2.7312 -1.92287,5.17917 -1.6621,5.43995 0.26078,0.26077 3.26227,-1.32792 6.66998,-3.53043 3.40771,-2.20252 6.43576,-4.00457 6.72899,-4.00457 0.29323,0 -1.02003,2.925 -2.91837,6.5 -1.89833,3.575 -2.97732,6.5 -2.39774,6.5 0.57957,0 3.49014,-1.375 6.46793,-3.05556 2.97779,-1.68057 5.87232,-2.90285 6.43229,-2.71619 0.55997,0.18665 -1.06164,2.89251 -3.60358,6.01301 l -4.62171,5.67363 3.77027,-1.57018 c 9.91576,-4.12954 14.74803,-8.16916 24.93484,-20.84471 3.40749,-4.23998 4.21886,-6.19537 5.33784,-12.86412 2.59771,-15.48152 12.6571,-30.21519 22.41039,-32.8238 3.97847,-1.06408 4.42711,-1.57127 7.89571,-8.9261 4.223,-8.95446 13.64197,-19.76489 19.67895,-22.58611 2.93239,-1.37038 3.99476,-2.54336 4.45212,-4.91563 0.33038,-1.71366 0.31848,-3.85116 -0.0264,-4.75 C 654.0189,314.60688 654.30015,314 655.1705,314 c 2.29554,0 5.56315,2.80266 6.19288,5.31168 0.43044,1.715 1.75739,2.70209 4.86426,3.6184 5.2087,1.5362 8.77236,4.65107 8.77236,7.66759 0,2.13862 -0.13995,2.17923 -2.85044,0.82705 -1.56774,-0.78209 -4.83024,-1.67659 -7.25,-1.98777 -4.00947,-0.51563 -4.80228,-0.23053 -8.94159,3.2154 -9.86025,8.20855 -21.02198,25.49101 -18.95614,29.35107 1.97273,3.68608 1.11298,10.4451 -2.17345,17.08686 -3.73945,7.55731 -17.01484,21.41301 -23.55641,24.58615 -2.41862,1.17321 -8.05064,6.09002 -13.16027,11.48906 -4.91273,5.19098 -10.78077,10.71918 -13.04008,12.28488 -2.25932,1.56571 -3.93019,3.02439 -3.71305,3.24153 0.21713,0.21714 12.48778,-5.66263 27.26811,-13.06614 38.91112,-19.49069 65.67667,-30.23567 98.37332,-39.49177 28.45734,-8.056 48.47618,-11.23123 70.5,-11.18218 25.58467,0.057 44.14001,5.78344 55.47787,17.1213 7.63812,7.63812 10.28233,13.57519 10.82809,24.31242 0.96861,19.05642 -5.7661,33.70744 -23.7469,51.66016 C 797.57768,482.49196 768.73822,494 734.96865,494 H 723.8204 l 4.91434,3.88456 c 19.38337,15.32167 21.66231,36.4657 5.23385,48.55965 -8.24241,6.06771 -15.68448,8.02263 -30.46859,8.00364 -17.37969,-0.0223 -31.69924,-3.71081 -55,-14.16709 -16.09086,-7.22082 -39.34377,-21.27846 -63.5,-38.38918 l -4.5,-3.18751 4.96241,5.14797 c 2.72932,2.83138 4.60504,5.14796 4.16826,5.14796 -0.43678,0 -3.48147,-1.575 -6.76598,-3.5 -3.28451,-1.925 -6.21055,-3.5 -6.5023,-3.5 -0.29174,0 0.76658,1.6875 2.35185,3.75 1.58526,2.0625 3.57436,4.875 4.42022,6.25 0.84586,1.375 2.33839,3.7375 3.31674,5.25 0.97835,1.5125 1.58236,2.75 1.34224,2.75 -0.24012,0 -3.55438,-2.50402 -7.36501,-5.56448 -3.81064,-3.06046 -7.78416,-6.03781 -8.83006,-6.61633 -2.90188,-1.60513 -1.56558,1.01214 5.4395,10.65372 5.78291,7.95943 6.23827,8.34041 10.75041,8.99441 6.35142,0.9206 20.80777,5.79518 28.09308,9.47279 10.98954,5.54751 24.81304,20.7621 26.6742,29.35852 0.38121,1.76075 1.56114,4.42951 2.62206,5.93057 6.1919,8.7607 11.14573,25.01788 11.20469,36.7708 0.0488,9.73625 -2.55644,16.84705 -6.89707,18.82477 -2.81167,1.28108 -2.93015,2.3225 -1.43849,12.6442 1.19267,8.2528 4.62717,16.20674 9.6391,22.32314 3.52667,4.30383 3.76419,4.41631 8.22286,3.89399 2.52521,-0.29582 5.60379,-0.8487 6.84129,-1.22861 1.70791,-0.52433 2.25,-0.29031 2.25,0.97133 0,2.78721 -4.60079,6.48371 -8.93183,7.17627 C 663.52964,674.01102 662,674.78865 662,675.67326 662,677.6219 657.46078,682 655.44042,682 c -1.34017,0 -1.57248,-0.79907 -1.23557,-4.25 0.3784,-3.87595 0.0576,-4.60909 -3.64496,-8.33012 -2.23294,-2.24406 -5.30722,-6.37302 -6.83174,-9.17547 C 640.18423,653.7298 637,641.30067 637,633.98219 c 0,-4.52917 -0.69422,-7.02976 -3.38454,-12.19119 -5.69876,-10.93317 -7.2206,-28.66764 -3.3862,-39.46041 l 1.48128,-4.16942 -4.41031,-1.68431 c -6.11271,-2.33447 -15.22668,-11.10052 -23.31073,-22.42086 -5.90432,-8.26801 -13.13284,-16.55219 -11.82853,-13.556 0.23942,0.55 2.52126,5.35485 5.07075,10.67745 5.27231,11.00707 8.90112,21.84336 11.33158,33.83817 2.29833,11.34272 1.52882,40.5512 -1.39824,53.07368 -5.66938,24.2546 -18.66487,50.92352 -33.57946,68.9107 -10.86328,13.10124 -31.42131,31.68987 -38.73036,35.02009 -2.92152,1.33114 -4.1083,3.28976 -14.42597,23.80799 l -8.21063,16.32809 z m 32.08959,-44.7219 c 16.19244,-4.06804 22.90685,-8.81982 34.59142,-24.48033 6.73011,-9.02019 12.82708,-19.63036 10.76854,-18.73984 -21.03872,9.10135 -39.32642,13.39648 -61.44892,14.43216 -20.16387,0.94399 -39.79985,-1.96078 -59.5,-8.80189 -6.325,-2.19643 -12.36997,-4.26937 -13.43326,-4.60653 -1.79626,-0.56957 -1.76691,-0.33561 0.41429,3.30155 10.3063,17.18578 20.60443,29.24982 28.70978,33.6329 15.65138,8.46367 38.99238,10.51416 59.89815,5.26198 z m -3.44491,-75.52554 c 20.9546,-2.11491 42.77851,-8.37876 57.85595,-16.60568 10.96708,-5.98413 10.34238,-4.55479 9.71073,-22.21855 -0.30228,-8.45319 -0.95065,-15.77048 -1.44081,-16.26064 -0.5216,-0.5216 -4.05011,0.90899 -8.50819,3.44953 -14.66432,8.35682 -32.70474,14.21519 -53.11669,17.24888 -16.0783,2.38962 -41.72523,1.51443 -58.34911,-1.99113 -15.55761,-3.2807 -29.15052,-8.14714 -40.61709,-14.54145 -6.72405,-3.74965 -9.25819,-4.72518 -9.85061,-3.79206 -1.7111,2.69516 -1.39336,31.31817 0.37164,33.47826 1.72111,2.10636 20.92131,10.98695 29.60135,13.69139 23.01691,7.17137 50.44351,9.95357 74.34283,7.54145 z M 539,561.01157 c 5.775,-1.17235 14.5213,-3.47405 19.43622,-5.11488 C 568.23719,552.62465 581,546.32572 581,544.76062 c 0,-3.36788 -20.94964,-29.4117 -21.74336,-27.03055 -0.18121,0.54363 0.81192,4.92709 2.20695,9.74103 2.94321,10.1564 2.849,9.5289 1.43053,9.5289 -0.60823,0 -3.93633,-3.0375 -7.39577,-6.75 -3.45944,-3.7125 -6.54145,-6.50785 -6.84891,-6.21188 -0.30746,0.29596 0.31293,3.89596 1.37864,8 2.13911,8.23772 2.46034,11.96188 1.03177,11.96188 -0.51709,0 -3.27329,-3.375 -6.1249,-7.5 -2.85161,-4.125 -5.46604,-7.50051 -5.80985,-7.50112 -0.3438,-6.2e-4 -0.47012,4.77719 -0.2807,10.61735 0.18942,5.84017 -0.0377,10.38237 -0.50461,10.09377 -0.46695,-0.28859 -2.62453,-4.1664 -4.79462,-8.61736 C 531.37508,536.64169 529.29288,533 528.91805,533 c -0.37482,0 -0.99302,3.73982 -1.37378,8.31072 -0.84701,10.16836 -1.76591,12.11939 -3.80781,8.0849 -0.80603,-1.59259 -2.20812,-5.14562 -3.11575,-7.89562 -2.70411,-8.19303 -3.28995,-8.43464 -4.59606,-1.89545 C 514.16028,548.93876 512.98376,553 512.14408,553 c -0.87354,0 -3.61333,-8.5045 -4.5997,-14.27779 -0.70347,-4.11747 -1.95635,-4.20124 -2.96111,-0.19798 -1.37366,5.47312 -5.6407,13.81834 -6.58347,12.87557 -0.52462,-0.52462 -1.25558,-4.87919 -1.62435,-9.67683 C 496.00667,536.92534 495.40407,533 495.03634,533 c -0.36773,0 -1.91096,2.59932 -3.4294,5.77626 -1.51844,3.17694 -3.61618,6.88944 -4.66163,8.25 l -1.90084,2.47374 -0.0222,-10.45941 -0.0222,-10.4594 -6.25,8.4594 c -5.65299,7.65135 -6.27938,8.20553 -6.55752,5.80163 -0.16914,-1.46178 0.5549,-6.29928 1.60899,-10.75 C 474.85562,527.6415 475.36041,524 474.9233,524 c -0.43712,0 -3.63616,3.48328 -7.10899,7.74061 -6.15129,7.54085 -6.3215,7.66344 -6.59548,4.75 -0.15468,-1.64483 0.80445,-6.59061 2.1314,-10.99061 1.32695,-4.4 2.22988,-8.19863 2.0065,-8.44141 -0.85512,-0.92936 -11.69862,10.81497 -17.45813,18.90847 -5.64022,7.92588 -5.90943,8.55415 -4.21193,9.82976 9.09184,6.83223 36.98331,15.4627 56.8134,17.5798 8.55669,0.91354 28.3345,-0.30141 38.5,-2.36505 z M 339,541.29964 c 14.15595,-2.90891 34.83338,-11.35525 52.02332,-21.25056 C 405.54782,511.68812 439.39046,490 437.9126,490 c -0.23043,0 -3.53805,0.89198 -7.35027,1.98218 -3.81222,1.09019 -7.12695,1.78653 -7.36607,1.54741 -0.23912,-0.23912 1.69926,-1.6936 4.30753,-3.23218 9.99197,-5.89412 9.1507,-6.29464 -4.00379,-1.90615 -7.15,2.38532 -18.79055,6.65963 -25.86789,9.49846 -32.10303,12.87702 -51.35261,15.35895 -58.67451,7.56514 -3.35012,-3.56604 -3.22649,-8.93904 0.32932,-14.31223 1.5078,-2.27845 2.54593,-4.14263 2.30695,-4.14263 -1.95639,0 -19.69024,7.0236 -26.09387,10.33464 -10.11375,5.22937 -21.36279,15.96536 -23.96525,22.87222 -3.22668,8.56352 -0.4074,14.75133 8.76581,19.23936 9.52257,4.65897 22.11223,5.26192 38.69944,1.85342 z m 380.80959,0.1713 c 9.72376,-2.90053 16.2437,-11.31155 14.22488,-18.35074 -3.22099,-11.23093 -18.04083,-23.51262 -37.32083,-30.92901 -5.6175,-2.16087 -11.25963,-4.25383 -12.53805,-4.65103 l -2.32442,-0.72217 2.61454,3.95083 c 3.97307,6.00371 4.30109,10.16644 1.10081,13.96975 -3.69142,4.387 -8.29863,5.64797 -18.10701,4.95578 -9.11229,-0.64306 -26.36351,-5.79221 -44.95951,-13.41953 -11.83726,-4.85515 -33.64282,-12.46534 -34.17946,-11.9287 -0.18027,0.18028 2.8325,2.31077 6.69505,4.73442 3.86255,2.42366 6.58982,4.55099 6.0606,4.7274 -0.52923,0.17641 -4.00421,-0.59187 -7.72218,-1.70729 -3.71798,-1.11542 -6.92896,-1.85904 -7.13552,-1.65248 -0.5206,0.52061 19.89648,13.84769 33.78151,22.0506 44.31127,26.17792 77.18602,35.72062 99.80959,28.97217 z M 368.24725,502.58919 c 9.29558,-2.35802 62.27544,-22.80544 64.25275,-24.79817 0.67142,-0.67665 -1.40104,-0.85478 -6.30727,-0.54213 -7.73207,0.49273 -8.16799,-0.22161 -1.66857,-2.73425 3.88558,-1.50215 3.75014,-1.52375 -5.96602,-0.95142 -22.18436,1.30676 -54.27985,7.72838 -64.49264,12.90359 -5.8884,2.98388 -11.72482,7.88445 -12.57306,10.557 -0.78672,2.47874 1.06753,5.85903 3.82293,6.96921 3.98952,1.60741 13.31064,1.0368 22.93188,-1.40383 z m 312.2982,-0.0437 c 2.99548,-2.99547 3.06731,-4.49673 0.37872,-7.91472 -4.97751,-6.32788 -14.38618,-10.84544 -30.42417,-14.60813 -12.35366,-2.8983 -55.5,-8.88527 -55.5,-7.70115 0,0.2848 2.3625,1.2843 5.25,2.2211 8.4776,2.75044 8.22257,3.76335 -0.75,2.97883 -5.16836,-0.4519 -7.64605,-0.35655 -7,0.26936 2.31098,2.23898 48.20772,20.34912 61,24.06966 9.67962,2.81524 10.13642,2.89286 17.79545,3.0236 5.96593,0.10184 7.09509,-0.18363 9.25,-2.33855 z M 316.09482,480.0278 c 6.27285,-1.08961 20.40518,-3.97383 31.40518,-6.40938 25.82154,-5.71722 39.58868,-8.01643 64.40321,-10.75579 11.10625,-1.22605 19.60899,-2.53879 18.89498,-2.91719 -0.714,-0.37841 -3.66208,-1.24115 -6.55127,-1.91721 -6.45641,-1.51076 -7.65646,-2.98811 -2.55594,-3.14654 2.09496,-0.0651 5.15902,-0.41168 6.80902,-0.77023 2.58029,-0.56071 1.74087,-0.95995 -6,-2.85368 -10.30589,-2.52123 -33.02986,-6.42028 -52,-8.92231 -19.74875,-2.60472 -54.87246,-2.41651 -67.5,0.36171 -22.97995,5.05587 -33.03623,11.84473 -33.18191,22.40066 -0.0426,3.08861 -0.33326,3.7195 -1.3317,2.89086 -2.08931,-1.73397 -2.69706,-7.54874 -1.17078,-11.20164 3.03742,-7.26958 14.54057,-14.10459 29.9585,-17.80094 4.52424,-1.08466 9.68839,-1.97526 11.47589,-1.97911 5.44562,-0.0117 3.64261,-1.36281 -6.01465,-4.50701 -10.92287,-3.55625 -22.916,-10.52688 -27.0808,-15.73986 -3.40494,-4.26188 -3.8892,-8.73839 -1.25963,-11.64403 5.44254,-6.01393 28.63588,-5.2188 55.30485,1.89599 6.15987,1.64335 11.45255,2.9879 11.7615,2.9879 0.30896,0 -1.47406,-2.49942 -3.96226,-5.55426 -2.4882,-3.05484 -5.24136,-6.64908 -6.11813,-7.9872 -1.81242,-2.7661 -12.91936,-6.66608 -32.83446,-11.52917 -19.4898,-4.75923 -32.21229,-6.32894 -51.54642,-6.35982 -19.7811,-0.0316 -25.56061,1.03628 -37.68468,6.96299 -20.51043,10.02628 -23.89505,30.18292 -8.86935,52.8201 16.50719,24.86914 44.82149,40.93779 77.55403,44.01271 8.31681,0.78128 26.59757,-0.34045 38.09482,-2.33755 z m 432.82407,1.93258 c 24.51411,-2.51562 44.89226,-11.94578 62.4193,-28.88504 23.24365,-22.46417 28.60259,-46.13456 13.7968,-60.94035 -5.03632,-5.03632 -12.01534,-8.63819 -21.98088,-11.34433 -10.34345,-2.80876 -38.41599,-3.07538 -54.65411,-0.51908 -12.65912,1.99288 -30.78439,6.41083 -44.5,10.84668 l -9.5,3.07245 -5.80369,7.98908 c -4.38127,6.03103 -5.29542,7.82775 -3.72984,7.33085 17.07993,-5.42096 40.05889,-9.06885 51.97987,-8.25177 11.99295,0.82201 16.40555,4.21862 14.63663,11.26657 -1.61038,6.41626 -14.68969,14.95054 -31.21965,20.3709 -9.60285,3.14888 -9.68406,2.95394 2.13668,5.12891 21.12431,3.88677 35.5,13.53035 35.5,23.81431 0,1.61638 -0.7875,3.91139 -1.75,5.10003 -1.72927,2.13556 -1.75,2.1093 -1.75,-2.21706 0,-5.81625 -3.55245,-10.4128 -11.15669,-14.43577 -23.50929,-12.43742 -58.13144,-13.37511 -119.82171,-3.24519 -9.91188,1.62759 -21.1716,3.81845 -25.0216,4.86858 l -7,1.90932 5,0.20858 c 2.75,0.11472 6.35,0.52687 8,0.91589 l 3,0.7073 -4.05448,1.16028 c -2.22996,0.63815 -5.49246,1.44787 -7.25,1.79938 -1.75754,0.3515 -3.19552,0.92994 -3.19552,1.28541 0,0.35548 9.06179,1.67008 20.13731,2.92134 23.80174,2.68901 35.9228,4.72296 60.86269,10.21294 43.78195,9.63764 54.99596,10.97427 74.91889,8.92979 z M 436,447.51379 c 0,-0.26742 -3.0375,-2.04528 -6.75,-3.95082 -7.12682,-3.65802 -6.26403,-4.60251 2.24671,-2.45948 10.11781,2.54769 5.66492,-0.53428 -16.49671,-11.41786 -29.45462,-14.46516 -73.99841,-33.02055 -75.54821,-31.47075 -0.5237,0.52369 8.45862,12.67038 10.64327,14.39279 0.77272,0.60922 6.80168,3.48348 13.39769,6.38726 6.59601,2.90377 17.17101,7.8277 23.5,10.94207 18.34279,9.02612 30.07198,13.8815 38.58418,15.97219 8.44773,2.07486 10.42307,2.37896 10.42307,1.6046 z m 167.64112,-3.09499 c 3.92761,-1.28015 16.07761,-6.53833 27,-11.68486 10.92238,-5.14653 24.92892,-11.55332 31.12564,-14.23732 9.93257,-4.30212 11.83676,-5.5382 16.08023,-10.43831 C 683.0343,402.0683 686.59941,397 685.62553,397 c -0.70708,0 -9.52562,3.3495 -25.62553,9.73321 -20.07677,7.96056 -74.30116,33.32703 -75.54567,35.34068 -0.22909,0.37068 2.61215,0.0391 6.31387,-0.73684 10.67124,-2.23688 11.73868,-1.39001 3.72542,2.95562 l -6.99362,3.79267 4.5,-0.6695 c 2.475,-0.36823 7.7135,-1.71689 11.64112,-2.99704 z M 391,437.44151 c -27.35712,-14.78577 -62.1139,-27.44327 -83.77231,-30.50768 -11.34555,-1.60526 -26.70218,-0.88791 -28.94206,1.35197 -1.58987,1.58987 -1.5689,1.85782 0.34614,4.42282 8.34715,11.18009 35.90367,20.69383 64.86823,22.3954 15.16228,0.89073 48.5221,4.59101 49.41667,5.4813 0.22916,0.22808 1.35416,0.40446 2.5,0.39197 1.2985,-0.0142 -0.36535,-1.34616 -4.41667,-3.53578 z m 257.49961,0.54586 c 8.79978,-1.12291 23.42478,-2.4474 32.5,-2.94332 19.98224,-1.09195 34.05937,-4.50845 49.5963,-12.03698 9.1403,-4.429 16.40409,-10.14976 16.40409,-12.91942 0,-2.35251 -3.81591,-3.5309 -12.69085,-3.91906 -13.52473,-0.59152 -32.09091,2.75302 -50.80915,9.15286 -17.42711,5.95839 -60.97157,26.08576 -54.5,25.19131 1.925,-0.26606 10.69982,-1.40249 19.49961,-2.52539 z m -196.39817,-39.9732 c -4.58178,-10.65065 -5.05049,-20.93916 -1.50929,-33.13024 3.75707,-12.93425 14.65887,-25.9749 26.80268,-32.06116 3.35784,-1.6829 6.269,-3.2078 6.46924,-3.38869 0.62361,-0.56334 -4.02948,-7.52901 -9.09721,-13.6185 -9.90651,-11.90388 -25.80559,-23.50914 -39.93857,-29.15247 -6.07993,-2.42773 -7.10934,-2.56302 -11.60551,-1.52517 -7.95086,1.83527 -14.59198,-0.40206 -15.25101,-5.13794 -0.50009,-3.59367 0.22827,-5.15136 3.27823,-7.01096 4.37434,-2.66709 9.40484,-2.50001 15.33052,0.50916 2.70571,1.37402 6.49448,2.999 8.41948,3.61108 5.56932,1.77084 21.06356,10.13584 27.27842,14.72703 8.94251,6.60622 17.6591,15.25948 24.72158,24.54196 l 6.5,8.5432 6,-0.71074 c 7.75097,-0.91814 18.5252,-0.90595 25.58789,0.029 l 5.58789,0.73969 3.28871,-4.57945 c 14.0149,-19.5154 34.89541,-35.97127 54.30637,-42.79868 3.42603,-1.20504 7.4495,-2.99881 8.94104,-3.98616 5.90646,-3.90985 16.83083,-2.81017 18.98184,1.91078 3.41342,7.49165 -5.41356,12.58581 -16.20558,9.35245 -3.39566,-1.01737 -4.5057,-0.79233 -11.93456,2.41947 -10.36621,4.48175 -17.54129,8.80905 -25.60788,15.44416 -6.52888,5.37029 -17.56826,17.66792 -20.69809,23.05723 l -1.75238,3.01745 7.31876,4.01677 c 22.8207,12.52473 34.1606,40.00877 25.7081,62.30769 -3.33049,8.78634 -3.30534,8.77324 -8.20059,4.27034 -9.00306,-8.28146 -22.28418,-14.86033 -36.19661,-17.93017 -6.10308,-1.34667 -10.71589,-1.6232 -20.5,-1.22894 -10.8938,0.43898 -13.85898,0.94848 -21.62491,3.71575 -10.81687,3.85443 -19.76561,8.68265 -26.9727,14.55291 l -5.33759,4.34752 -2.08827,-4.85432 z m 27.56232,-35.40137 c 2.42458,-2.08553 2.77915,-3.11236 2.80577,-8.12541 0.0344,-6.48518 -1.39613,-8.2246 -5.84577,-7.10781 -6.9575,1.74622 -8.95958,14.66208 -2.62376,16.92644 2.46965,0.88263 2.77543,0.79122 5.66376,-1.69322 z m 72.5075,0.73221 c 3.93712,-3.56304 0.79192,-14.5632 -4.5471,-15.9032 -4.44092,-1.1146 -6.62416,1.02363 -6.62416,6.48762 0,3.98185 0.52376,5.41974 2.90121,7.96481 3.2538,3.48321 5.5744,3.8903 8.27005,1.45077 z m -68.45857,-69.02765 c -1.3186,-2.09955 -2.98553,-4.94236 -3.70429,-6.31736 -0.71876,-1.375 -5.11771,-8.48449 -9.77543,-15.79886 -4.65772,-7.31437 -8.21484,-13.55261 -7.9047,-13.86274 0.31014,-0.31014 8.09982,3.10104 17.3104,7.58041 15.28281,7.43245 16.83688,7.98857 17.78045,6.36274 0.56866,-0.97985 3.93347,-7.96905 7.47735,-15.53155 3.54388,-7.5625 6.74474,-13.75 7.11303,-13.75 0.36828,0 3.9568,6.8625 7.97448,15.25 4.01768,8.3875 7.43639,15.40901 7.59713,15.60335 0.16075,0.19435 7.77425,-3.33966 16.91889,-7.85335 9.14464,-4.51369 16.86274,-7.97059 17.15133,-7.682 0.28859,0.28858 -4.73287,9.38574 -11.15879,20.21589 l -11.6835,19.69119 -4.15452,-0.69594 c -14.33206,-2.40083 -34.61216,-2.3892 -45.84945,0.0263 -2.31145,0.49685 -3.03609,0.0361 -5.09238,-3.23808 z"
       id="path837" />
  </g>
</svg>
